{
.appVersion = "3245";
.formatVersion = 3;
axes = (
{
name = wght;
tag = wght;
}
);
classes = (
{

glyphs = (
{
glyphname = A;
lastChange = "2024-03-07 21:16:58 +0000";
layers = (
{
anchors = (
{
name = bottom;
pos = (542,0);
},
{
name = ogonek;
pos = (1092,-5);
},
{
name = top;
pos = (937,1862);
}
);
layerId = m01;
shapes = (
{
closed = 1;
nodes = (
(50,-5,o),
(59,8,o),
(86,61,cs),
(539,948,l),
(959,948,l),
(1030,54,ls),
(1032,25,o),
(1040,-5,o),
(1092,-5,cs),
(1136,-5,o),
(1148,17,o),
(1144,56,cs),
(995,1820,ls),
(993,1846,o),
(979,1862,o),
(937,1862,cs),
(885,1862,o),
(884,1842,o),
(862,1798,cs),
(-39,68,ls),
(-65,19,o),
(-39,-5,o),
(0,-5,cs)
);
},
{
closed = 1;
nodes = (
(800,1458,l),
(920,1726,l),
(920,1439,l),
(951,1055,l),
(594,1055,l)
);
}
);
vertWidth = 0;
width = 1259;
},
{
anchors = (
{
name = bottom;
pos = (603,0);
},
{
name = ogonek;
pos = (1084,20);
},
{
name = top;
pos = (990,1857);
}
);
guides = (
{
angle = 180;
pos = (850,1213);
},
{
pos = (820,950);
}
);
layerId = "140DECC1-64C4-40C0-9C07-503DBC3F4160";
shapes = (
{
closed = 1;
nodes = (
(161,0,o),
(202,24,o),
(241,93,c),
(570,743,l),
(962,743,l),
(1015,116,ls),
(1020,45,o),
(1066,0,o),
(1154,0,cs),
(1234,0,o),
(1291,43,o),
(1284,132,cs),
(1147,1722,ls),
(1140,1812,o),
(1075,1857,o),
(986,1857,cs),
(892,1857,o),
(833,1815,o),
(806,1761,cs),
(-22,171,ls),
(-76,68,o),
(-3,0,o),
(84,0,cs)
);
},
{
closed = 1;
nodes = (
(844,1282,l),
(926,1494,l),
(916,1280,l),
(940,1001,l),
(701,1001,l)
);
}
);
vertWidth = 0;
width = 1382;
}
);
unicode = 65;
userData = {
KernOnName = A;
};
},
{
color = 5;
glyphname = AE;
lastChange = "2023-10-27 01:46:19 +0000";
layers = (
{
anchors = (
{
name = bottom;
pos = (907,0);
},
{
name = top;
pos = (1362,1858);
}
);
layerId = m01;
shapes = (
{
closed = 1;
nodes = (
(49,0,o),
(64,14,o),
(90,65,cs),
(544,949,l),
(946,949,l),
(1008,57,ls),
(1010,28,o),
(1018,0,o),
(1068,0,cs),
(1681,0,ls),
(1731,0,o),
(1743,23,o),
(1743,56,cs),
(1743,86,o),
(1731,104,o),
(1681,104,cs),
(1118,104,l),
(1050,949,l),
(1721,949,ls),
(1770,949,o),
(1781,971,o),
(1781,1000,cs),
(1781,1032,o),
(1770,1054,o),
(1721,1054,cs),
(1042,1054,l),
(985,1756,l),
(1804,1756,ls),
(1854,1756,o),
(1865,1776,o),
(1865,1807,cs),
(1865,1836,o),
(1854,1858,o),
(1804,1858,cs),
(925,1858,ls),
(883,1858,o),
(874,1838,o),
(852,1795,cs),
(-39,71,ls),
(-63,23,o),
(-40,0,o),
(-2,0,cs)
);
},
{
closed = 1;
nodes = (
(798,1461,l),
(899,1702,l),
(907,1444,l),
(938,1054,l),
(596,1054,l)
);
}
);
width = 1714;
},
{
anchors = (
{
name = bottom;
pos = (914,0);
},
{
name = top;
pos = (1241,1857);
}
);
layerId = "140DECC1-64C4-40C0-9C07-503DBC3F4160";
shapes = (
{
closed = 1;
nodes = (
(161,0,o),
(206,24,o),
(241,93,cs),
(635,870,l),
(953,870,l),
(1016,116,ls),
(1022,46,o),
(1068,0,o),
(1154,0,cs),
(1687,0,ls),
(1773,0,o),
(1829,56,o),
(1829,141,cs),
(1829,226,o),
(1783,272,o),
(1692,272,cs),
(1273,272,l),
(1221,870,l),
(1608,870,ls),
(1699,870,o),
(1764,930,o),
(1764,1002,cs),
(1764,1081,o),
(1708,1131,o),
(1622,1131,cs),
(1199,1131,l),
(1160,1585,l),
(1829,1585,ls),
(1914,1585,o),
(1974,1657,o),
(1974,1732,cs),
(1974,1804,o),
(1923,1857,o),
(1835,1857,cs),
(986,1857,ls),
(919,1857,o),
(842,1833,o),
(805,1761,cs),
(-22,171,ls),
(-76,68,o),
(-3,0,o),
(84,0,cs)
);
},
{
closed = 1;
nodes = (
(844,1282,l),
(927,1492,l),
(918,1280,l),
(936,1074,l),
(738,1074,l)
);
}
);
width = 1768;
}
);
metricLeft = A;
metricRight = E;
unicode = 198;
},
{
glyphname = B;
lastChange = "2024-03-07 21:16:58 +0000";
layers = (
{
anchors = (
{
name = bottom;
pos = (685,0);
},
{
name = center;
pos = (848,929);
},
{
name = top;
pos = (1012,1857);
}
);
layerId = m01;
shapes = (
{
closed = 1;
nodes = (
(1052,0,o),
(1281,144,o),
(1328,460,cs),
(1369,734,o),
(1212,916,o),
(868,999,c),
(1313,1046,o),
(1409,1172,o),
(1436,1375,cs),
(1479,1708,o),
(1190,1857,o),
(569,1857,cs),
(524,1857,o),
(506,1844,o),
(497,1791,cs),
(194,74,ls),
(187,34,o),
(203,0,o),
(234,0,cs)
);
},
{
closed = 1;
nodes = (
(471,960,l),
(1030,944,o),
(1249,736,o),
(1212,473,cs),
(1170,179,o),
(846,108,o),
(320,106,c)
);
},
{
closed = 1;
nodes = (
(610,1754,l),
(1069,1749,o),
(1348,1651,o),
(1316,1376,cs),
(1297,1203,o),
(1152,1085,o),
(486,1046,c)
);
}
);
vertWidth = 0;
width = 1447;
},
{
anchors = (
{
name = bottom;
pos = (717,0);
},
{
name = center;
pos = (880,929);
},
{
name = top;
pos = (1044,1857);
}
);
layerId = "140DECC1-64C4-40C0-9C07-503DBC3F4160";
shapes = (
{
closed = 1;
nodes = (
(1111,0,o),
(1402,75,o),
(1458,466,cs),
(1498,746,o),
(1378,904,o),
(1159,1000,c),
(1441,1072,o),
(1578,1205,o),
(1594,1367,cs),
(1629,1705,o),
(1306,1857,o),
(571,1857,cs),
(506,1857,o),
(449,1836,o),
(432,1740,cs),
(153,152,ls),
(137,65,o),
(199,0,o),
(273,0,cs)
);
},
{
closed = 1;
nodes = (
(573,880,l),
(1053,863,o),
(1210,760,o),
(1174,516,cs),
(1147,329,o),
(972,269,o),
(464,257,c)
);
},
{
closed = 1;
nodes = (
(700,1597,l),
(1211,1583,o),
(1312,1494,o),
(1307,1383,cs),
(1301,1281,o),
(1272,1132,o),
(615,1115,c)
);
}
);
vertWidth = 0;
width = 1566;
}
);
metricLeft = H;
unicode = 66;
userData = {
KernOnName = B;
};
},
{
glyphname = C;
lastChange = "2024-03-07 21:16:58 +0000";
layers = (
{
anchors = (
{
name = bottom;
pos = (690,15);
},
{
name = top;
pos = (1053,1862);
}
);
layerId = m01;
shapes = (
{
closed = 1;
nodes = (
(926,-5,o),
(1116,122,o),
(1283,305,cs),
(1351,380,o),
(1357,411,o),
(1354,428,cs),
(1349,456,o),
(1333,468,o),
(1301,468,cs),
(1262,468,o),
(1250,426,o),
(1188,371,cs),
(1028,218,o),
(879,102,o),
(682,102,cs),
(464,102,o),
(241,372,o),
(327,870,cs),
(386,1207,o),
(527,1758,o),
(1050,1758,cs),
(1189,1758,o),
(1335,1694,o),
(1467,1555,cs),
(1501,1521,o),
(1531,1528,o),
(1549,1551,c),
(1570,1571,o),
(1565,1607,o),
(1540,1630,c),
(1400,1779,o),
(1230,1862,o),
(1053,1862,cs),
(444,1862,o),
(283,1281,o),
(210,868,cs),
(108,301,o),
(405,-5,o),
(680,-5,cs)
);
}
);
vertWidth = 0;
width = 1437;
},
{
anchors = (
{
name = bottom;
pos = (795,30);
},
{
name = top;
pos = (1141,1857);
}
);
layerId = "140DECC1-64C4-40C0-9C07-503DBC3F4160";
shapes = (
{
closed = 1;
nodes = (
(1006,0,o),
(1252,111,o),
(1418,293,cs),
(1490,371,o),
(1516,409,o),
(1516,462,cs),
(1516,515,o),
(1475,561,o),
(1400,561,cs),
(1355,561,o),
(1298,544,o),
(1230,469,cs),
(1112,337,o),
(942,257,o),
(778,257,cs),
(566,257,o),
(455,517,o),
(515,869,cs),
(598,1354,o),
(807,1600,o),
(1139,1600,cs),
(1268,1600,o),
(1360,1571,o),
(1451,1486,cs),
(1521,1425,o),
(1608,1398,o),
(1671,1461,cs),
(1735,1525,o),
(1699,1610,o),
(1627,1674,cs),
(1475,1812,o),
(1319,1857,o),
(1141,1857,cs),
(650,1857,o),
(345,1525,o),
(229,871,cs),
(142,371,o),
(376,0,o),
(775,0,cs)
);
}
);
vertWidth = 0;
width = 1535;
}
);
unicode = 67;
userData = {
KernOnName = C;
};
},
{
glyphname = D;
lastChange = "2024-03-07 21:16:58 +0000";
layers = (
{
anchors = (
{
name = bottom;
pos = (731,0);
},
{
name = center;
pos = (894,929);
},
{
name = top;
pos = (1058,1857);
}
);
layerId = m01;
shapes = (
{
closed = 1;
nodes = (
(433,0,ls),
(988,0,o),
(1455,345,o),
(1540,987,cs),
(1616,1559,o),
(1209,1857,o),
(676,1857,cs),
(571,1857,ls),
(518,1857,o),
(507,1835,o),
(499,1790,cs),
(193,62,ls),
(187,23,o),
(202,0,o),
(246,0,cs)
);
},
{
closed = 1;
nodes = (
(612,1754,l),
(686,1754,ls),
(1140,1754,o),
(1476,1481,o),
(1422,1004,cs),
(1349,405,o),
(910,106,o),
(433,106,cs),
(322,106,l)
);
}
);
vertWidth = 0;
width = 1539;
},
{
anchors = (
{
name = bottom;
pos = (767,0);
},
{
name = center;
pos = (930,929);
},
{
name = top;
pos = (1094,1857);
}
);
layerId = "140DECC1-64C4-40C0-9C07-503DBC3F4160";
shapes = (
{
closed = 1;
nodes = (
(504,0,ls),
(1079,0,o),
(1562,428,o),
(1640,1004,cs),
(1712,1533,o),
(1363,1857,o),
(725,1857,cs),
(583,1857,ls),
(495,1857,o),
(451,1819,o),
(436,1740,cs),
(152,140,ls),
(138,63,o),
(194,0,o),
(283,0,cs)
);
},
{
closed = 1;
nodes = (
(701,1602,l),
(740,1602,ls),
(1173,1602,o),
(1411,1372,o),
(1363,1001,cs),
(1308,575,o),
(939,255,o),
(504,255,cs),
(465,255,l)
);
}
);
vertWidth = 0;
width = 1663;
}
);
metricLeft = H;
unicode = 68;
userData = {
KernOnName = D;
};
},
{
color = 5;
glyphname = Dcroat;
lastChange = "2023-10-13 18:43:02 +0000";
layers = (
{
anchors = (
{
name = bottom;
pos = (632,0);
},
{
name = center;
pos = (795,929);
},
{
name = top;
pos = (959,1857);
}
);
layerId = m01;
shapes = (
{
closed = 1;
nodes = (
(334,0,ls),
(889,0,o),
(1356,345,o),
(1441,987,cs),
(1517,1559,o),
(1110,1857,o),
(577,1857,cs),
(472,1857,ls),
(419,1857,o),
(408,1835,o),
(400,1790,cs),
(94,62,ls),
(88,23,o),
(103,0,o),
(147,0,cs)
);
},
{
closed = 1;
nodes = (
(513,1754,l),
(587,1754,ls),
(1041,1754,o),
(1377,1481,o),
(1323,1004,cs),
(1250,405,o),
(811,106,o),
(334,106,cs),
(223,106,l)
);
},
{
closed = 1;
nodes = (
(582,952,ls),
(631,952,o),
(655,970,o),
(655,1006,cs),
(655,1040,o),
(633,1056,o),
(587,1056,cs),
(164,1056,ls),
(116,1056,o),
(89,1039,o),
(89,1006,cs),
(89,969,o),
(110,952,o),
(159,952,cs)
);
}
);
width = 1440;
},
{
anchors = (
{
name = bottom;
pos = (721,0);
},
{
name = center;
pos = (884,929);
},
{
name = top;
pos = (1048,1857);
}
);
layerId = "140DECC1-64C4-40C0-9C07-503DBC3F4160";
shapes = (
{
closed = 1;
nodes = (
(458,0,ls),
(1033,0,o),
(1516,428,o),
(1594,1004,cs),
(1666,1533,o),
(1317,1857,o),
(679,1857,cs),
(537,1857,ls),
(449,1857,o),
(405,1819,o),
(390,1740,cs),
(106,140,ls),
(92,63,o),
(148,0,o),
(237,0,cs)
);
},
{
closed = 1;
nodes = (
(655,1602,l),
(694,1602,ls),
(1127,1602,o),
(1365,1372,o),
(1317,1001,cs),
(1262,575,o),
(893,255,o),
(458,255,cs),
(419,255,l)
);
},
{
closed = 1;
nodes = (
(636,852,ls),
(739,852,o),
(801,903,o),
(801,985,cs),
(801,1061,o),
(747,1109,o),
(662,1109,cs),
(246,1109,ls),
(143,1109,o),
(80,1057,o),
(80,977,cs),
(80,900,o),
(135,852,o),
(222,852,cs)
);
}
);
width = 1617;
}
);
unicode = 272;
},
{
color = 5;
glyphname = Eth;
lastChange = "2023-10-27 01:47:15 +0000";
layers = (
{
layerId = m01;
shapes = (
{
closed = 1;
nodes = (
(334,0,ls),
(889,0,o),
(1356,345,o),
(1441,987,cs),
(1517,1559,o),
(1110,1857,o),
(577,1857,cs),
(472,1857,ls),
(419,1857,o),
(408,1835,o),
(400,1790,cs),
(94,62,ls),
(88,23,o),
(103,0,o),
(147,0,cs)
);
},
{
closed = 1;
nodes = (
(513,1754,l),
(587,1754,ls),
(1041,1754,o),
(1377,1481,o),
(1323,1004,cs),
(1250,405,o),
(811,106,o),
(334,106,cs),
(223,106,l)
);
},
{
closed = 1;
nodes = (
(582,952,ls),
(631,952,o),
(655,970,o),
(655,1006,cs),
(655,1040,o),
(633,1056,o),
(587,1056,cs),
(164,1056,ls),
(116,1056,o),
(89,1039,o),
(89,1006,cs),
(89,969,o),
(110,952,o),
(159,952,cs)
);
}
);
width = 1439;
},
{
layerId = "140DECC1-64C4-40C0-9C07-503DBC3F4160";
shapes = (
{
closed = 1;
nodes = (
(458,0,ls),
(1033,0,o),
(1516,428,o),
(1594,1004,cs),
(1666,1533,o),
(1317,1857,o),
(679,1857,cs),
(537,1857,ls),
(449,1857,o),
(405,1819,o),
(390,1740,cs),
(106,140,ls),
(92,63,o),
(148,0,o),
(237,0,cs)
);
},
{
closed = 1;
nodes = (
(655,1602,l),
(694,1602,ls),
(1127,1602,o),
(1365,1372,o),
(1317,1001,cs),
(1262,575,o),
(893,255,o),
(458,255,cs),
(419,255,l)
);
},
{
closed = 1;
nodes = (
(636,852,ls),
(739,852,o),
(801,903,o),
(801,985,cs),
(801,1061,o),
(747,1109,o),
(662,1109,cs),
(246,1109,ls),
(143,1109,o),
(80,1057,o),
(80,977,cs),
(80,900,o),
(135,852,o),
(222,852,cs)
);
}
);
width = 1618;
}
);
unicode = 208;
},
{
glyphname = E;
lastChange = "2024-03-07 21:16:58 +0000";
layers = (
{
anchors = (
{
name = bottom;
pos = (708,0);
},
{
name = ogonek;
pos = (1235,10);
},
{
name = top;
pos = (1061,1857);
},
{
name = topleft;
pos = (359,1857);
}
);
layerId = m01;
shapes = (
{
closed = 1;
nodes = (
(1223,0,ls),
(1272,0,o),
(1286,31,o),
(1286,63,cs),
(1286,92,o),
(1275,106,o),
(1223,106,cs),
(324,106,l),
(472,948,l),
(1254,948,ls),
(1304,948,o),
(1316,969,o),
(1316,1000,cs),
(1316,1033,o),
(1304,1055,o),
(1254,1055,cs),
(490,1055,l),
(614,1754,l),
(1509,1754,ls),
(1561,1754,o),
(1571,1769,o),
(1571,1801,cs),
(1571,1832,o),
(1559,1857,o),
(1509,1857,cs),
(574,1857,ls),
(519,1857,o),
(507,1835,o),
(500,1791,cs),
(194,62,ls),
(187,22,o),
(202,0,o),
(247,0,cs)
);
}
);
vertWidth = 0;
width = 1420;
},
{
anchors = (
{
name = bottom;
pos = (758,0);
},
{
name = ogonek;
pos = (1185,10);
},
{
name = top;
pos = (1090,1857);
},
{
name = topleft;
pos = (305,1857);
}
);
layerId = "140DECC1-64C4-40C0-9C07-503DBC3F4160";
shapes = (
{
closed = 1;
nodes = (
(1253,0,ls),
(1337,0,o),
(1395,45,o),
(1395,120,cs),
(1395,188,o),
(1349,255,o),
(1258,255,cs),
(469,255,l),
(579,879,l),
(1316,879,ls),
(1407,879,o),
(1470,934,o),
(1470,1002,cs),
(1470,1076,o),
(1414,1122,o),
(1330,1122,cs),
(621,1122,l),
(706,1602,l),
(1533,1602,ls),
(1620,1602,o),
(1680,1658,o),
(1680,1733,cs),
(1680,1805,o),
(1628,1857,o),
(1541,1857,cs),
(588,1857,ls),
(499,1857,o),
(450,1826,o),
(436,1746,cs),
(153,142,ls),
(139,63,o),
(175,0,o),
(260,0,cs)
);
}
);
vertWidth = 0;
width = 1474;
}
);
metricLeft = H;
unicode = 69;
userData = {
KernOnName = E;
};
},
{
glyphname = F;
lastChange = "2024-03-07 21:16:58 +0000";
layers = (
{
anchors = (
{
name = bottom;
pos = (595,0);
},
{
name = top;
pos = (922,1857);
}
);
layerId = m01;
shapes = (
{
closed = 1;
nodes = (
(300,0,o),
(308,33,o),
(314,62,cs),
(471,948,l),
(1221,948,ls),
(1272,948,o),
(1284,969,o),
(1284,1000,cs),
(1284,1033,o),
(1272,1055,o),
(1221,1055,cs),
(489,1055,l),
(612,1754,l),
(1478,1754,ls),
(1530,1754,o),
(1540,1769,o),
(1540,1801,cs),
(1540,1832,o),
(1528,1857,o),
(1478,1857,cs),
(574,1857,ls),
(518,1857,o),
(506,1835,o),
(499,1791,cs),
(193,62,ls),
(187,23,o),
(203,0,o),
(247,0,cs)
);
}
);
vertWidth = 0;
width = 1266;
},
{
anchors = (
{
name = bottom;
pos = (623,0);
},
{
name = top;
pos = (950,1857);
}
);
layerId = "140DECC1-64C4-40C0-9C07-503DBC3F4160";
shapes = (
{
closed = 1;
nodes = (
(368,0,o),
(429,60,o),
(444,147,cs),
(574,879,l),
(1300,879,ls),
(1391,879,o),
(1439,934,o),
(1439,1004,cs),
(1439,1076,o),
(1389,1122,o),
(1302,1122,cs),
(617,1122,l),
(703,1602,l),
(1499,1602,ls),
(1593,1602,o),
(1648,1667,o),
(1648,1728,cs),
(1648,1807,o),
(1595,1857,o),
(1508,1857,cs),
(580,1857,ls),
(491,1857,o),
(447,1824,o),
(433,1745,cs),
(153,154,ls),
(139,77,o),
(165,0,o),
(278,0,cs)
);
}
);
vertWidth = 0;
width = 1378;
}
);
metricLeft = E;
unicode = 70;
userData = {
KernOnName = F;
};
},
{
glyphname = G;
kernLeft = G;
kernRight = G;
lastChange = "2024-03-07 21:57:14 +0000";
layers = (
{
anchors = (
{
name = bottom;
pos = (679,0);
},
{
name = top;
pos = (1006,1857);
}
);
layerId = m01;
shapes = (
{
closed = 1;
nodes = (
(845,-18,o),
(1018,100,o),
(1228,416,c),
(1167,62,ls),
(1162,31,o),
(1167,3,o),
(1213,0,cs),
(1270,-2,o),
(1281,35,o),
(1287,67,cs),
(1402,722,ls),
(1411,768,o),
(1404,784,o),
(1360,784,cs),
(1308,784,o),
(1284,750,o),
(1252,675,cs),
(1097,318,o),
(881,88,o),
(665,88,cs),
(391,88,o),
(255,431,o),
(330,870,cs),
(431,1457,o),
(672,1754,o),
(1050,1754,cs),
(1189,1754,o),
(1326,1692,o),
(1460,1552,cs),
(1492,1520,o),
(1519,1528,o),
(1540,1549,cs),
(1560,1570,o),
(1557,1604,o),
(1533,1628,cs),
(1392,1777,o),
(1230,1857,o),
(1053,1857,cs),
(610,1857,o),
(330,1531,o),
(210,868,cs),
(123,362,o),
(315,-18,o),
(662,-18,cs)
);
}
);
vertWidth = 0;
width = 1553;
},
{
anchors = (
{
name = bottom;
pos = (759,0);
},
{
name = top;
pos = (1086,1857);
}
);
layerId = "140DECC1-64C4-40C0-9C07-503DBC3F4160";
shapes = (
{
closed = 1;
nodes = (
(922,-18,o),
(1060,105,o),
(1192,291,c),
(1164,140,ls),
(1147,51,o),
(1207,0,o),
(1306,0,cs),
(1404,0,o),
(1431,51,o),
(1443,120,cs),
(1556,763,ls),
(1572,852,o),
(1525,907,o),
(1436,907,cs),
(1379,907,o),
(1318,893,o),
(1246,760,cs),
(1102,508,o),
(916,239,o),
(722,239,cs),
(553,239,o),
(460,491,o),
(525,869,cs),
(607,1354,o),
(811,1600,o),
(1143,1600,cs),
(1272,1600,o),
(1364,1571,o),
(1455,1486,cs),
(1525,1425,o),
(1612,1398,o),
(1675,1461,cs),
(1739,1525,o),
(1703,1610,o),
(1631,1674,cs),
(1479,1812,o),
(1323,1857,o),
(1145,1857,cs),
(654,1857,o),
(349,1525,o),
(233,871,cs),
(139,332,o),
(349,-18,o),
(719,-18,cs)
);
}
);
vertWidth = 0;
width = 1708;
}
);
metricLeft = C;
metricRight = H;
unicode = 71;
userData = {
KernOnName = G;
};
},
{
glyphname = H;
lastChange = "2024-03-07 21:16:58 +0000";
layers = (
{
anchors = (
{
name = bottom;
pos = (734,0);
},
{
name = center;
pos = (897,929);
},
{
name = top;
pos = (1061,1857);
},
{
name = topleft;
pos = (359,1857);
}
);
layerId = m01;
shapes = (
{
closed = 1;
nodes = (
(300,0,o),
(309,33,o),
(314,62,cs),
(470,948,l),
(1330,948,l),
(1175,62,ls),
(1169,30,o),
(1175,0,o),
(1229,0,cs),
(1276,0,o),
(1289,27,o),
(1293,53,cs),
(1599,1791,ls),
(1607,1835,o),
(1596,1857,o),
(1548,1857,cs),
(1502,1857,o),
(1487,1833,o),
(1482,1805,cs),
(1350,1055,l),
(489,1055,l),
(617,1783,ls),
(625,1832,o),
(613,1857,o),
(574,1857,cs),
(525,1857,o),
(506,1834,o),
(499,1790,cs),
(194,62,ls),
(187,22,o),
(202,0,o),
(246,0,cs)
);
}
);
vertWidth = 0;
width = 1601;
},
{
anchors = (
{
name = bottom;
pos = (749,0);
},
{
name = center;
pos = (912,929);
},
{
name = top;
pos = (1076,1857);
},
{
name = topleft;
pos = (304,1857);
}
);
layerId = "140DECC1-64C4-40C0-9C07-503DBC3F4160";
shapes = (
{
closed = 1;
nodes = (
(386,0,o),
(431,57,o),
(441,116,cs),
(575,879,l),
(1240,879,l),
(1110,140,ls),
(1095,57,o),
(1147,0,o),
(1240,0,cs),
(1322,0,o),
(1384,48,o),
(1395,105,cs),
(1678,1713,ls),
(1693,1805,o),
(1636,1857,o),
(1547,1857,cs),
(1466,1857,o),
(1405,1814,o),
(1394,1752,cs),
(1283,1122,l),
(618,1122,l),
(720,1706,ls),
(738,1807,o),
(682,1857,o),
(600,1857,cs),
(523,1857,o),
(449,1821,o),
(434,1740,cs),
(152,140,ls),
(138,60,o),
(197,0,o),
(287,0,cs)
);
}
);
vertWidth = 0;
width = 1680;
}
);
unicode = 72;
userData = {
KernOnName = H;
};
},
{
color = 4;
glyphname = Hbar;
lastChange = "2023-10-27 01:46:19 +0000";
layers = (
{
background = {
shapes = (
{
pos = (116,0);
ref = H;
}
);
};
layerId = m01;
shapes = (
{
closed = 1;
nodes = (
(338,0,o),
(347,32,o),
(352,60,cs),
(459,669,l),
(1299,669,l),
(1191,60,ls),
(1186,29,o),
(1193,0,o),
(1246,0,cs),
(1293,0,o),
(1304,26,o),
(1309,52,cs),
(1616,1793,ls),
(1624,1836,o),
(1613,1858,o),
(1563,1858,cs),
(1521,1858,o),
(1504,1833,o),
(1500,1806,cs),
(1318,773,l),
(478,773,l),
(655,1785,ls),
(664,1833,o),
(649,1858,o),
(611,1858,cs),
(562,1858,o),
(546,1834,o),
(538,1793,cs),
(233,60,ls),
(226,22,o),
(241,0,o),
(286,0,cs)
);
},
{
closed = 1;
nodes = (
(1690,1212,ls),
(1736,1212,o),
(1755,1239,o),
(1755,1271,cs),
(1755,1297,o),
(1736,1326,o),
(1690,1326,cs),
(328,1326,ls),
(280,1326,o),
(264,1293,o),
(264,1263,cs),
(264,1235,o),
(284,1212,o),
(328,1212,cs)
);
}
);
width = 1415;
},
{
background = {
shapes = (
{
pos = (109,0);
ref = H;
}
);
};
layerId = "140DECC1-64C4-40C0-9C07-503DBC3F4160";
shapes = (
{
closed = 1;
nodes = (
(442,0,o),
(500,44,o),
(513,116,cs),
(586,551,l),
(1252,551,l),
(1183,139,ls),
(1169,56,o),
(1220,0,o),
(1311,0,cs),
(1390,0,o),
(1454,44,o),
(1465,105,cs),
(1739,1714,ls),
(1755,1800,o),
(1701,1858,o),
(1606,1858,cs),
(1528,1858,o),
(1467,1816,o),
(1456,1753,cs),
(1294,807,l),
(628,807,l),
(782,1706,ls),
(799,1800,o),
(753,1858,o),
(662,1858,cs),
(574,1858,o),
(510,1813,o),
(497,1740,cs),
(224,139,ls),
(211,60,o),
(270,0,o),
(361,0,cs)
);
},
{
closed = 1;
nodes = (
(1746,1129,ls),
(1806,1129,o),
(1867,1187,o),
(1880,1257,cs),
(1891,1318,o),
(1828,1383,o),
(1758,1383,cs),
(331,1383,ls),
(276,1383,o),
(227,1323,o),
(220,1245,cs),
(216,1188,o),
(267,1129,o),
(321,1129,cs)
);
}
);
width = 1527;
}
);
metricLeft = T;
metricRight = T;
unicode = 294;
},
{
glyphname = I;
lastChange = "2024-03-07 21:16:58 +0000";
layers = (
{
anchors = (
{
name = bottom;
pos = (274,0);
},
{
name = ogonek;
pos = (423,0);
},
{
name = top;
pos = (601,1857);
},
{
name = topleft;
pos = (259,1857);
}
);
layerId = m01;
shapes = (
{
closed = 1;
nodes = (
(417,0,ls),
(468,0,o),
(479,21,o),
(479,52,cs),
(479,85,o),
(468,106,o),
(417,106,cs),
(350,106,l),
(640,1754,l),
(720,1754,ls),
(768,1754,o),
(779,1777,o),
(779,1807,cs),
(779,1838,o),
(769,1857,o),
(720,1857,cs),
(460,1857,ls),
(409,1857,o),
(398,1838,o),
(398,1807,cs),
(398,1777,o),
(410,1754,o),
(460,1754,cs),
(520,1754,l),
(229,106,l),
(145,106,ls),
(97,106,o),
(86,85,o),
(86,52,cs),
(86,21,o),
(97,0,o),
(145,0,cs)
);
}
);
vertWidth = 0;
width = 723;
},
{
anchors = (
{
name = bottom;
pos = (388,0);
},
{
name = ogonek;
pos = (620,10);
},
{
name = top;
pos = (715,1857);
},
{
name = topleft;
pos = (259,1857);
}
);
layerId = "140DECC1-64C4-40C0-9C07-503DBC3F4160";
shapes = (
{
closed = 1;
nodes = (
(692,0,ls),
(788,0,o),
(820,57,o),
(829,125,cs),
(841,195,o),
(805,257,o),
(733,257,cs),
(623,257,l),
(857,1600,l),
(979,1600,ls),
(1069,1600,o),
(1111,1667,o),
(1123,1734,cs),
(1132,1805,o),
(1084,1857,o),
(1019,1857,cs),
(509,1857,ls),
(423,1857,o),
(382,1805,o),
(370,1734,cs),
(358,1667,o),
(403,1600,o),
(471,1600,cs),
(567,1600,l),
(335,257,l),
(225,257,ls),
(134,257,o),
(91,195,o),
(79,125,cs),
(67,57,o),
(112,0,o),
(184,0,cs)
);
}
);
vertWidth = 0;
width = 951;
}
);
unicode = 73;
userData = {
KernOnName = I;
};
},
{
glyphname = J;
kernLeft = J;
kernRight = J;
lastChange = "2024-03-07 21:56:59 +0000";
layers = (
{
anchors = (
{
name = bottom;
pos = (440,0);
},
{
name = top;
pos = (951,1857);
}
);
layerId = m01;
shapes = (
{
closed = 1;
nodes = (
(-23,-5,o),
(238,7,o),
(294,15,cs),
(678,72,o),
(753,417,o),
(831,848,cs),
(993,1754,l),
(1386,1754,ls),
(1436,1754,o),
(1447,1774,o),
(1447,1806,cs),
(1447,1836,o),
(1436,1857,o),
(1386,1857,cs),
(500,1857,ls),
(449,1857,o),
(438,1836,o),
(438,1806,cs),
(438,1774,o),
(449,1754,o),
(500,1754,cs),
(875,1754,l),
(714,857,ls),
(655,527,o),
(605,175,o),
(311,124,cs),
(230,110,o),
(-43,102,o),
(-112,102,cs),
(-144,102,o),
(-171,84,o),
(-171,52,cs),
(-171,16,o),
(-144,-5,o),
(-112,-5,cs)
);
}
);
vertWidth = 0;
width = 1055;
},
{
anchors = (
{
name = bottom;
pos = (612,0);
},
{
name = top;
pos = (1098,1857);
}
);
layerId = "140DECC1-64C4-40C0-9C07-503DBC3F4160";
shapes = (
{
closed = 1;
nodes = (
(160,0,o),
(408,5,o),
(459,12,cs),
(978,75,o),
(973,452,o),
(1045,840,cs),
(1180,1600,l),
(1472,1600,ls),
(1563,1600,o),
(1613,1658,o),
(1613,1733,cs),
(1613,1812,o),
(1558,1857,o),
(1474,1857,cs),
(651,1857,ls),
(562,1857,o),
(507,1809,o),
(507,1733,cs),
(507,1653,o),
(562,1600,o),
(647,1600,cs),
(890,1600,l),
(761,876,ls),
(711,573,o),
(683,301,o),
(453,272,cs),
(384,263,o),
(136,257,o),
(76,257,cs),
(6,257,o),
(-64,202,o),
(-64,128,cs),
(-64,51,o),
(6,0,o),
(76,0,cs)
);
}
);
vertWidth = 0;
width = 1399;
}
);
unicode = 74;
userData = {
KernOnName = J;
};
},
{
glyphname = K;
lastChange = "2024-03-07 21:16:58 +0000";
layers = (
{
anchors = (
{
name = bottom;
pos = (668,0);
},
{
name = top;
pos = (995,1857);
}
);
layerId = m01;
shapes = (
{
closed = 1;
nodes = (
(1261,0,o),
(1288,22,o),
(1288,52,cs),
(1288,71,o),
(1280,86,o),
(1257,117,cs),
(589,1001,l),
(1545,1745,ls),
(1581,1772,o),
(1594,1787,o),
(1594,1818,cs),
(1594,1838,o),
(1580,1857,o),
(1550,1857,cs),
(1529,1857,o),
(1504,1850,o),
(1470,1823,cs),
(487,1050,l),
(615,1783,ls),
(623,1833,o),
(617,1857,o),
(572,1857,cs),
(521,1857,o),
(504,1834,o),
(497,1791,cs),
(194,77,ls),
(187,37,o),
(203,0,o),
(246,0,cs),
(297,0,o),
(308,41,o),
(314,79,cs),
(473,971,l),
(1157,51,ls),
(1178,22,o),
(1198,0,o),
(1231,0,cs)
);
}
);
vertWidth = 0;
width = 1413;
},
{
anchors = (
{
name = bottom;
pos = (667,0);
},
{
name = top;
pos = (994,1857);
}
);
layerId = "140DECC1-64C4-40C0-9C07-503DBC3F4160";
shapes = (
{
closed = 1;
nodes = (
(1319,0,o),
(1377,63,o),
(1377,135,cs),
(1377,173,o),
(1364,215,o),
(1343,243,cs),
(825,981,l),
(1603,1617,ls),
(1646,1651,o),
(1676,1694,o),
(1676,1746,cs),
(1676,1805,o),
(1632,1857,o),
(1548,1857,cs),
(1502,1857,o),
(1446,1842,o),
(1401,1805,cs),
(624,1170,l),
(717,1706,ls),
(737,1819,o),
(660,1857,o),
(591,1857,cs),
(517,1857,o),
(445,1821,o),
(431,1740,cs),
(152,154,ls),
(137,69,o),
(198,0,o),
(289,0,cs),
(376,0,o),
(427,56,o),
(440,128,cs),
(565,847,l),
(1103,72,ls),
(1134,27,o),
(1189,0,o),
(1242,0,cs)
);
}
);
vertWidth = 0;
width = 1467;
}
);
metricLeft = H;
unicode = 75;
userData = {
KernOnName = K;
};
},
{
glyphname = L;
lastChange = "2024-03-07 21:16:58 +0000";
layers = (
{
anchors = (
{
name = bottom;
pos = (760,0);
},
{
name = center;
pos = (836,929);
},
{
name = top;
pos = (573,1857);
},
{
name = topright;
pos = (1181,1857);
}
);
layerId = m01;
shapes = (
{
closed = 1;
nodes = (
(1228,0,ls),
(1273,0,o),
(1290,31,o),
(1290,63,cs),
(1290,91,o),
(1276,106,o),
(1228,106,cs),
(322,106,l),
(617,1782,ls),
(626,1833,o),
(621,1857,o),
(573,1857,cs),
(523,1857,o),
(506,1834,o),
(499,1790,cs),
(193,62,ls),
(187,23,o),
(202,0,o),
(246,0,cs)
);
}
);
vertWidth = 0;
width = 1290;
},
{
anchors = (
{
name = bottom;
pos = (790,0);
},
{
name = center;
pos = (840,929);
},
{
name = top;
pos = (603,1857);
},
{
name = topright;
pos = (1295,1857);
}
);
layerId = "140DECC1-64C4-40C0-9C07-503DBC3F4160";
shapes = (
{
closed = 1;
nodes = (
(1264,0,ls),
(1350,0,o),
(1408,63,o),
(1408,132,cs),
(1408,200,o),
(1350,257,o),
(1264,257,cs),
(466,257,l),
(720,1706,ls),
(742,1825,o),
(675,1857,o),
(603,1857,cs),
(518,1857,o),
(449,1821,o),
(434,1740,cs),
(152,140,ls),
(138,60,o),
(191,0,o),
(275,0,cs)
);
}
);
vertWidth = 0;
width = 1408;
}
);
metricLeft = E;
unicode = 76;
userData = {
KernOnName = L;
};
},
{
color = 5;
glyphname = Lslash;
lastChange = "2023-10-27 06:08:01 +0000";
layers = (
{
layerId = m01;
shapes = (
{
closed = 1;
nodes = (
(1156,0,ls),
(1201,0,o),
(1218,31,o),
(1218,63,cs),
(1218,91,o),
(1204,106,o),
(1156,106,cs),
(250,106,l),
(545,1782,ls),
(554,1833,o),
(549,1857,o),
(501,1857,cs),
(451,1857,o),
(434,1834,o),
(427,1790,cs),
(121,62,ls),
(115,23,o),
(130,0,o),
(174,0,cs)
);
},
{
closed = 1;
nodes = (
(10,495,o),
(31,481,o),
(77,505,cs),
(245,595,l),
(327,619,l),
(906,933,ls),
(950,957,o),
(950,982,o),
(933,1012,cs),
(919,1039,o),
(899,1052,o),
(855,1029,cs),
(340,748,l),
(263,726,l),
(27,601,ls),
(-19,576,o),
(-20,552,o),
(-7,526,cs)
);
}
);
width = 1218;
},
{
layerId = "140DECC1-64C4-40C0-9C07-503DBC3F4160";
shapes = (
{
closed = 1;
nodes = (
(1238,0,ls),
(1324,0,o),
(1382,63,o),
(1382,132,cs),
(1382,200,o),
(1324,257,o),
(1238,257,cs),
(440,257,l),
(694,1706,ls),
(716,1825,o),
(649,1857,o),
(577,1857,cs),
(492,1857,o),
(423,1821,o),
(408,1740,cs),
(126,140,ls),
(112,60,o),
(165,0,o),
(249,0,cs)
);
},
{
closed = 1;
nodes = (
(30,428,o),
(103,406,o),
(185,450,cs),
(243,481,l),
(422,540,l),
(1005,865,ls),
(1077,906,o),
(1066,951,o),
(1038,1004,cs),
(1003,1069,o),
(920,1064,o),
(860,1035,cs),
(478,848,l),
(284,793,l),
(64,676,ls),
(-18,632,o),
(-39,556,o),
(-6,493,cs)
);
}
);
width = 1382;
}
);
metricRight = L;
unicode = 321;
},
{
glyphname = M;
lastChange = "2024-03-07 21:16:58 +0000";
layers = (
{
anchors = (
{
name = bottom;
pos = (1080,0);
},
{
name = top;
pos = (1407,1857);
}
);
layerId = m01;
shapes = (
{
closed = 1;
nodes = (
(29,-5,o),
(61,12,o),
(83,61,c),
(899,1643,l),
(1017,54,ls),
(1020,26,o),
(1029,-5,o),
(1085,-5,cs),
(1132,-5,o),
(1151,37,o),
(1163,59,cs),
(1984,1647,l),
(2106,53,ls),
(2107,26,o),
(2118,-5,o),
(2170,-5,cs),
(2209,-5,o),
(2226,18,o),
(2222,56,cs),
(2079,1794,l),
(2077,1840,o),
(2071,1862,o),
(2020,1862,cs),
(1966,1862,o),
(1952,1826,o),
(1934,1793,cs),
(1115,200,l),
(992,1820,l),
(990,1840,o),
(979,1862,o),
(933,1862,cs),
(892,1862,o),
(877,1837,o),
(856,1799,cs),
(-36,85,ls),
(-67,25,o),
(-40,-5,o),
(1,-5,cs)
);
}
);
vertWidth = 0;
width = 2337;
},
{
anchors = (
{
name = bottom;
pos = (1070,0);
},
{
name = top;
pos = (1397,1857);
}
);
layerId = "140DECC1-64C4-40C0-9C07-503DBC3F4160";
shapes = (
{
closed = 1;
nodes = (
(141,0,o),
(220,27,o),
(254,93,cs),
(855,1269,l),
(942,116,l),
(950,51,o),
(998,0,o),
(1084,0,cs),
(1197,0,o),
(1226,56,o),
(1243,89,cs),
(1853,1272,l),
(1936,116,ls),
(1939,56,o),
(2001,0,o),
(2089,0,cs),
(2172,0,o),
(2227,57,o),
(2220,132,cs),
(2089,1733,ls),
(2083,1814,o),
(2065,1857,o),
(1965,1857,cs),
(1880,1857,o),
(1830,1824,o),
(1799,1761,cs),
(1179,563,l),
(1094,1733,ls),
(1089,1814,o),
(1055,1857,o),
(938,1857,cs),
(860,1857,o),
(834,1824,o),
(803,1764,cs),
(-22,183,l),
(-76,87,o),
(4,0,o),
(88,0,cs)
);
}
);
vertWidth = 0;
width = 2318;
}
);
metricLeft = A;
metricRight = A;
unicode = 77;
userData = {
KernOnName = M;
};
},
{
glyphname = N;
lastChange = "2023-10-27 06:08:01 +0000";
layers = (
{
anchors = (
{
name = bottom;
pos = (734,0);
},
{
name = top;
pos = (1061,1857);
}
);
layerId = m01;
shapes = (
{
closed = 1;
nodes = (
(302,0,o),
(310,35,o),
(316,69,cs),
(589,1626,l),
(1172,43,ls),
(1181,19,o),
(1201,0,o),
(1237,0,cs),
(1286,0,o),
(1290,32,o),
(1295,62,cs),
(1599,1783,ls),
(1609,1834,o),
(1602,1857,o),
(1557,1857,cs),
(1509,1857,o),
(1492,1833,o),
(1485,1791,cs),
(1210,250,l),
(649,1807,ls),
(641,1832,o),
(616,1857,o),
(571,1857,cs),
(519,1857,o),
(507,1835,o),
(499,1790,cs),
(193,62,ls),
(187,23,o),
(205,0,o),
(248,0,cs)
);
}
);
vertWidth = 0;
width = 1603;
},
{
anchors = (
{
name = bottom;
pos = (748,0);
},
{
name = top;
pos = (1075,1857);
}
);
layerId = "140DECC1-64C4-40C0-9C07-503DBC3F4160";
shapes = (
{
closed = 1;
nodes = (
(371,0,o),
(426,56,o),
(438,120,cs),
(627,1260,l),
(1122,80,l),
(1146,29,o),
(1186,0,o),
(1259,0,cs),
(1355,0,o),
(1382,56,o),
(1394,116,cs),
(1673,1706,ls),
(1690,1797,o),
(1643,1867,o),
(1550,1867,cs),
(1470,1867,o),
(1406,1821,o),
(1391,1740,cs),
(1201,590,l),
(705,1773,ls),
(679,1833,o),
(629,1857,o),
(570,1857,cs),
(498,1857,o),
(450,1819,o),
(436,1740,cs),
(152,140,ls),
(138,60,o),
(193,0,o),
(274,0,cs)
);
}
);
vertWidth = 0;
width = 1676;
}
);
metricLeft = H;
metricRight = H;
unicode = 78;
},
{
color = 5;
glyphname = Eng;
lastChange = "2023-10-27 06:08:01 +0000";
layers = (
{
background = {
shapes = (
{
pos = (96,0);
ref = H;
}
);
};
layerId = m01;
shapes = (
{
closed = 1;
nodes = (
(299,-4,o),
(306,29,o),
(311,56,cs),
(616,1786,ls),
(624,1834,o),
(610,1859,o),
(571,1859,cs),
(523,1859,o),
(506,1835,o),
(499,1793,cs),
(193,56,ls),
(187,18,o),
(200,-4,o),
(246,-4,cs)
);
},
{
closed = 1;
nodes = (
(602,-576,o),
(670,-573,o),
(766,-560,cs),
(918,-538,o),
(1026,-442,o),
(1097,-330,cs),
(1194,-177,o),
(1220,-92,o),
(1266,148,cs),
(1535,1550,ls),
(1566,1714,o),
(1471,1876,o),
(1263,1876,cs),
(954,1876,o),
(733,1556,o),
(519,1205,c),
(370,938,l),
(359,880,o),
(341,859,o),
(392,851,cs),
(426,847,o),
(435,853,o),
(450,877,cs),
(648,1208,o),
(941,1761,o),
(1242,1761,cs),
(1353,1761,o),
(1432,1659,o),
(1408,1532,cs),
(1142,146,ls),
(1106,-47,o),
(1084,-125,o),
(1003,-265,cs),
(949,-352,o),
(867,-430,o),
(724,-448,cs),
(663,-455,o),
(605,-460,o),
(551,-460,cs),
(481,-460,o),
(451,-490,o),
(451,-525,cs),
(451,-561,o),
(482,-576,o),
(548,-576,cs)
);
}
);
width = 1541;
},
{
background = {
shapes = (
{
pos = (40,0);
ref = H;
}
);
};
layerId = "140DECC1-64C4-40C0-9C07-503DBC3F4160";
shapes = (
{
closed = 1;
nodes = (
(384,-1,o),
(429,57,o),
(440,116,cs),
(717,1710,ls),
(735,1810,o),
(682,1862,o),
(599,1862,cs),
(522,1862,o),
(446,1826,o),
(433,1744,cs),
(152,140,ls),
(137,60,o),
(196,-1,o),
(288,-1,cs)
);
},
{
closed = 1;
nodes = (
(654,-580,o),
(762,-580,o),
(856,-566,cs),
(1023,-540,o),
(1169,-454,o),
(1245,-333,cs),
(1348,-170,o),
(1341,-67,o),
(1380,159,cs),
(1603,1467,ls),
(1637,1663,o),
(1574,1857,o),
(1281,1857,cs),
(1100,1857,o),
(807,1687,o),
(619,1264,c),
(461,1027,l),
(449,958,o),
(269,596,o),
(367,596,cs),
(474,596,o),
(512,647,o),
(541,713,c),
(622,946,o),
(993,1630,o),
(1259,1630,cs),
(1347,1630,o),
(1340,1570,o),
(1328,1493,cs),
(1114,183,ls),
(1083,-7,o),
(1072,-122,o),
(1011,-190,cs),
(952,-253,o),
(900,-300,o),
(792,-314,cs),
(735,-319,o),
(652,-316,o),
(604,-316,cs),
(495,-316,o),
(422,-381,o),
(422,-456,cs),
(422,-529,o),
(487,-580,o),
(598,-580,cs)
);
}
);
width = 1611;
}
);
metricLeft = H;
metricRight = H;
unicode = 330;
},
{
glyphname = O;
lastChange = "2024-03-07 21:16:58 +0000";
layers = (
{
anchors = (
{
name = bottom;
pos = (665,0);
},
{
name = center;
pos = (828,929);
},
{
name = ogonek;
pos = (1269,10);
},
{
name = top;
pos = (992,1857);
},
{
name = topleft;
pos = (259,1857);
},
{
name = topright;
pos = (1724,1857);
}
);
layerId = m01;
shapes = (
{
closed = 1;
nodes = (
(1199,-5,o),
(1421,731,o),
(1488,1113,cs),
(1573,1586,o),
(1424,1862,o),
(1018,1862,cs),
(510,1862,o),
(291,1340,o),
(222,939,cs),
(141,467,o),
(217,-5,o),
(709,-5,cs)
);
},
{
closed = 1;
nodes = (
(384,1168,o),
(568,1758,o),
(1004,1758,cs),
(1405,1758,o),
(1431,1425,o),
(1371,1091,cs),
(1313,768,o),
(1057,102,o),
(707,102,cs),
(305,102,o),
(275,569,o),
(337,914,cs)
);
}
);
vertWidth = 0;
width = 1525;
},
{
anchors = (
{
name = bottom;
pos = (736,0);
},
{
name = center;
pos = (899,929);
},
{
name = ogonek;
pos = (1397,10);
},
{
name = top;
pos = (1063,1857);
},
{
name = topleft;
pos = (259,1857);
},
{
name = topright;
pos = (1867,1857);
}
);
layerId = "140DECC1-64C4-40C0-9C07-503DBC3F4160";
shapes = (
{
closed = 1;
nodes = (
(1212,0,o),
(1534,424,o),
(1655,1106,cs),
(1736,1576,o),
(1585,1857,o),
(1108,1857,cs),
(642,1857,o),
(351,1549,o),
(242,941,cs),
(141,361,o),
(355,0,o),
(805,0,cs)
);
},
{
closed = 1;
nodes = (
(608,1369,o),
(798,1600,o),
(1093,1600,cs),
(1401,1600,o),
(1426,1414,o),
(1368,1090,cs),
(1279,575,o),
(1063,257,o),
(803,257,cs),
(560,257,o),
(454,505,o),
(524,912,cs)
);
}
);
vertWidth = 0;
width = 1648;
}
);
unicode = 79;
userData = {
KernOnName = O;
};
},
{
color = 5;
glyphname = Oslash;
lastChange = "2023-10-14 02:11:19 +0000";
layers = (
{
layerId = m01;
shapes = (
{
closed = 1;
nodes = (
(1199,-5,o),
(1421,731,o),
(1488,1113,cs),
(1573,1586,o),
(1424,1862,o),
(1018,1862,cs),
(510,1862,o),
(291,1340,o),
(222,939,cs),
(141,467,o),
(217,-5,o),
(709,-5,cs)
);
},
{
closed = 1;
nodes = (
(384,1168,o),
(568,1758,o),
(1004,1758,cs),
(1405,1758,o),
(1431,1425,o),
(1371,1091,cs),
(1313,768,o),
(1057,102,o),
(707,102,cs),
(305,102,o),
(275,569,o),
(337,914,cs)
);
},
{
closed = 1;
nodes = (
(381,-117,o),
(406,-102,o),
(426,-62,cs),
(1378,1888,ls),
(1405,1944,o),
(1376,1974,o),
(1340,1974,cs),
(1312,1974,o),
(1285,1959,o),
(1262,1910,cs),
(312,-39,ls),
(287,-91,o),
(313,-117,o),
(353,-117,cs)
);
}
);
width = 1525;
},
{
layerId = "140DECC1-64C4-40C0-9C07-503DBC3F4160";
shapes = (
{
closed = 1;
nodes = (
(1212,0,o),
(1534,424,o),
(1655,1106,cs),
(1736,1576,o),
(1585,1857,o),
(1108,1857,cs),
(642,1857,o),
(351,1549,o),
(242,941,cs),
(141,361,o),
(355,0,o),
(805,0,cs)
);
},
{
closed = 1;
nodes = (
(608,1369,o),
(798,1600,o),
(1093,1600,cs),
(1401,1600,o),
(1426,1414,o),
(1368,1090,cs),
(1279,575,o),
(1063,257,o),
(803,257,cs),
(560,257,o),
(454,505,o),
(524,912,cs)
);
},
{
closed = 1;
nodes = (
(606,-98,o),
(671,-65,o),
(702,6,cs),
(1451,1812,ls),
(1501,1925,o),
(1412,2011,o),
(1324,2011,cs),
(1265,2011,o),
(1200,1975,o),
(1167,1894,cs),
(419,96,ls),
(372,-16,o),
(455,-98,o),
(549,-98,cs)
);
}
);
width = 1648;
}
);
metricLeft = O;
metricRight = O;
unicode = 216;
},
{
glyphname = P;
kernRight = P;
lastChange = "2024-03-07 21:58:01 +0000";
layers = (
{
anchors = (
{
name = bottom;
pos = (649,0);
},
{
name = top;
pos = (976,1857);
}
);
layerId = m01;
shapes = (
{
closed = 1;
nodes = (
(302,0,o),
(309,33,o),
(314,62,cs),
(470,948,l),
(1047,952,o),
(1476,1009,o),
(1527,1392,cs),
(1571,1715,o),
(1196,1857,o),
(573,1857,cs),
(519,1857,o),
(507,1835,o),
(499,1790,cs),
(193,62,ls),
(187,23,o),
(205,0,o),
(249,0,cs)
);
},
{
closed = 1;
nodes = (
(612,1754,l),
(1202,1747,o),
(1437,1615,o),
(1411,1403,cs),
(1375,1116,o),
(967,1059,o),
(488,1055,c)
);
}
);
vertWidth = 0;
width = 1375;
},
{
anchors = (
{
name = bottom;
pos = (689,0);
},
{
name = top;
pos = (1016,1857);
}
);
layerId = "140DECC1-64C4-40C0-9C07-503DBC3F4160";
shapes = (
{
closed = 1;
nodes = (
(383,0,o),
(429,48,o),
(440,111,cs),
(575,879,l),
(1083,890,o),
(1557,944,o),
(1615,1371,cs),
(1662,1721,o),
(1287,1857,o),
(587,1857,cs),
(501,1857,o),
(449,1821,o),
(434,1740,cs),
(152,137,ls),
(138,60,o),
(193,0,o),
(286,0,cs)
);
},
{
closed = 1;
nodes = (
(704,1607,l),
(1280,1607,o),
(1350,1523,o),
(1337,1386,cs),
(1320,1201,o),
(998,1134,o),
(618,1121,c)
);
}
);
vertWidth = 0;
width = 1508;
}
);
metricLeft = H;
unicode = 80;
userData = {
KernOnName = P;
};
},
{
color = 5;
glyphname = Thorn;
lastChange = "2023-10-27 06:08:01 +0000";
layers = (
{
layerId = m01;
shapes = (
{
closed = 1;
nodes = (
(892,549,o),
(1391,602,o),
(1427,992,cs),
(1456,1306,o),
(1148,1443,o),
(538,1456,c),
(482,1354,l),
(1088,1350,o),
(1330,1227,o),
(1311,1006,cs),
(1286,715,o),
(846,656,o),
(366,655,c),
(348,548,l)
);
},
{
closed = 1;
nodes = (
(302,0,o),
(309,33,o),
(314,62,cs),
(618,1790,ls),
(624,1824,o),
(615,1857,o),
(565,1857,cs),
(519,1857,o),
(506,1829,o),
(499,1790,cs),
(193,62,ls),
(186,24,o),
(205,0,o),
(250,0,cs)
);
}
);
width = 1274;
},
{
layerId = "140DECC1-64C4-40C0-9C07-503DBC3F4160";
shapes = (
{
closed = 1;
nodes = (
(952,527,o),
(1474,579,o),
(1524,1006,cs),
(1563,1339,o),
(1264,1473,o),
(648,1495,c),
(576,1247,l),
(1160,1253,o),
(1276,1164,o),
(1247,1025,cs),
(1209,842,o),
(963,776,o),
(506,760,c),
(466,519,l)
);
},
{
closed = 1;
nodes = (
(381,0,o),
(429,48,o),
(440,111,cs),
(715,1722,ls),
(731,1814,o),
(691,1857,o),
(591,1857,cs),
(505,1857,o),
(449,1825,o),
(434,1740,cs),
(152,137,ls),
(138,57,o),
(193,0,o),
(291,0,cs)
);
}
);
width = 1416;
}
);
metricLeft = P;
metricRight = P;
unicode = 222;
},
{
glyphname = Q;
lastChange = "2023-10-12 18:50:15 +0000";
layers = (
{
anchors = (
{
name = bottom;
pos = (667,0);
},
{
name = top;
pos = (994,1857);
}
);
layerId = m01;
shapes = (
{
closed = 1;
nodes = (
(794,-18,o),
(869,1,o),
(938,56,c),
(1104,-185,ls),
(1133,-227,o),
(1168,-245,o),
(1199,-228,cs),
(1233,-209,o),
(1232,-166,o),
(1211,-135,cs),
(1034,123,l),
(1303,352,o),
(1442,831,o),
(1492,1115,cs),
(1577,1589,o),
(1425,1857,o),
(1019,1857,cs),
(511,1857,o),
(292,1342,o),
(223,941,cs),
(142,470,o),
(218,-18,o),
(710,-18,cs)
);
},
{
closed = 1;
nodes = (
(385,1171,o),
(569,1754,o),
(1005,1754,cs),
(1406,1754,o),
(1427,1427,o),
(1367,1092,cs),
(1326,855,o),
(1178,431,o),
(964,225,c),
(897,322,ls),
(871,360,o),
(830,376,o),
(795,345,cs),
(767,324,o),
(771,301,o),
(800,257,cs),
(871,154,l),
(820,105,o),
(765,88,o),
(708,88,cs),
(306,88,o),
(276,571,o),
(338,917,cs)
);
}
);
vertWidth = 0;
width = 1509;
},
{
anchors = (
{
name = bottom;
pos = (736,0);
},
{
name = top;
pos = (1063,1857);
}
);
layerId = "140DECC1-64C4-40C0-9C07-503DBC3F4160";
shapes = (
{
closed = 1;
nodes = (
(868,0,o),
(930,10,o),
(990,31,c),
(1107,-142,ls),
(1158,-219,o),
(1247,-243,o),
(1310,-202,cs),
(1375,-161,o),
(1388,-80,o),
(1343,-12,cs),
(1220,170,l),
(1425,354,o),
(1578,680,o),
(1654,1106,cs),
(1735,1576,o),
(1584,1857,o),
(1107,1857,cs),
(641,1857,o),
(350,1549,o),
(241,941,cs),
(140,361,o),
(354,0,o),
(804,0,cs)
);
},
{
closed = 1;
nodes = (
(607,1369,o),
(797,1600,o),
(1092,1600,cs),
(1400,1600,o),
(1425,1414,o),
(1367,1090,cs),
(1312,770,o),
(1207,526,o),
(1074,388,c),
(1038,440,ls),
(987,517,o),
(898,541,o),
(835,496,cs),
(773,452,o),
(761,365,o),
(807,299,cs),
(834,259,l),
(823,258,o),
(813,257,o),
(802,257,cs),
(559,257,o),
(453,505,o),
(523,912,cs)
);
}
);
vertWidth = 0;
width = 1647;
}
);
unicode = 81;
},
{
glyphname = R;
lastChange = "2024-03-07 21:16:58 +0000";
layers = (
{
anchors = (
{
name = bottom;
pos = (660,0);
},
{
name = top;
pos = (987,1857);
}
);
layerId = m01;
shapes = (
{
closed = 1;
nodes = (
(297,0,o),
(306,35,o),
(313,79,cs),
(464,932,l),
(1169,43,ls),
(1198,6,o),
(1221,-5,o),
(1239,-5,cs),
(1291,-5,o),
(1310,47,o),
(1255,117,cs),
(596,950,l),
(1097,965,o),
(1479,1045,o),
(1525,1398,cs),
(1567,1715,o),
(1203,1857,o),
(571,1857,cs),
(516,1857,o),
(504,1835,o),
(496,1790,cs),
(194,79,ls),
(186,33,o),
(201,0,o),
(243,0,cs)
);
},
{
closed = 1;
nodes = (
(609,1754,l),
(1161,1747,o),
(1436,1620,o),
(1409,1408,cs),
(1371,1120,o),
(961,1059,o),
(486,1055,c)
);
}
);
vertWidth = 0;
width = 1398;
},
{
anchors = (
{
name = bottom;
pos = (668,0);
},
{
name = top;
pos = (995,1857);
}
);
layerId = "140DECC1-64C4-40C0-9C07-503DBC3F4160";
shapes = (
{
closed = 1;
nodes = (
(353,0,o),
(431,65,o),
(445,152,cs),
(559,804,l),
(1111,65,ls),
(1155,6,o),
(1221,0,o),
(1258,0,cs),
(1349,0,o),
(1434,112,o),
(1328,255,cs),
(864,880,l),
(1248,920,o),
(1554,1044,o),
(1613,1368,cs),
(1677,1721,o),
(1284,1857,o),
(589,1857,cs),
(500,1857,o),
(447,1821,o),
(432,1740,cs),
(153,154,ls),
(138,69,o),
(173,0,o),
(264,0,cs)
);
},
{
closed = 1;
nodes = (
(700,1600,l),
(1210,1602,o),
(1360,1519,o),
(1335,1375,cs),
(1306,1203,o),
(1006,1134,o),
(616,1122,c)
);
}
);
vertWidth = 0;
width = 1469;
}
);
metricLeft = H;
unicode = 82;
userData = {
KernOnName = R;
};
},
{
glyphname = S;
lastChange = "2024-03-07 21:16:58 +0000";
layers = (
{
anchors = (
{
name = bottom;
pos = (536,10);
},
{
name = top;
pos = (873,1857);
}
);
layerId = m01;
shapes = (
{
closed = 1;
nodes = (
(889,-5,o),
(1121,205,o),
(1121,553,cs),
(1121,733,o),
(991,898,o),
(785,1042,cs),
(569,1191,o),
(431,1287,o),
(431,1430,cs),
(431,1633,o),
(623,1758,o),
(924,1758,cs),
(1133,1758,o),
(1185,1692,o),
(1203,1579,cs),
(1206,1550,o),
(1252,1544,o),
(1284,1551,cs),
(1317,1560,o),
(1317,1590,o),
(1313,1618,cs),
(1279,1798,o),
(1170,1862,o),
(927,1862,cs),
(545,1862,o),
(317,1695,o),
(317,1422,cs),
(317,1226,o),
(478,1119,o),
(684,969,cs),
(918,803,o),
(1002,678,o),
(1002,534,cs),
(1002,267,o),
(811,102,o),
(507,102,cs),
(330,102,o),
(239,163,o),
(213,278,cs),
(205,310,o),
(177,320,o),
(147,312,cs),
(110,301,o),
(99,265,o),
(104,241,cs),
(131,80,o),
(279,-5,o),
(507,-5,cs)
);
}
);
vertWidth = 0;
width = 1268;
},
{
anchors = (
{
name = bottom;
pos = (545,30);
},
{
name = top;
pos = (902,1857);
}
);
layerId = "140DECC1-64C4-40C0-9C07-503DBC3F4160";
shapes = (
{
closed = 1;
nodes = (
(929,0,o),
(1227,260,o),
(1227,606,cs),
(1227,770,o),
(1165,893,o),
(870,1100,cs),
(726,1203,o),
(544,1304,o),
(544,1393,cs),
(544,1530,o),
(681,1600,o),
(953,1600,cs),
(1078,1600,o),
(1142,1569,o),
(1154,1504,cs),
(1169,1417,o),
(1256,1398,o),
(1318,1414,c),
(1388,1438,o),
(1414,1499,o),
(1402,1566,cs),
(1364,1776,o),
(1225,1857,o),
(996,1857,cs),
(512,1857,o),
(267,1701,o),
(267,1393,cs),
(267,1121,o),
(527,1005,o),
(681,895,cs),
(893,741,o),
(956,684,o),
(956,575,cs),
(956,397,o),
(794,257,o),
(580,257,cs),
(436,257,o),
(341,299,o),
(329,353,cs),
(313,438,o),
(228,452,o),
(168,440,cs),
(93,426,o),
(65,361,o),
(80,291,cs),
(111,111,o),
(284,0,o),
(532,0,cs)
);
}
);
vertWidth = 0;
width = 1326;
}
);
unicode = 83;
userData = {
KernOnName = S;
};
},
{
color = 5;
glyphname = Germandbls;
lastChange = "2023-10-27 06:08:01 +0000";
layers = (
{
background = {
shapes = (
{
pos = (102,0);
ref = H;
}
);
};
layerId = m01;
shapes = (
{
closed = 1;
nodes = (
(1254,-3,o),
(1579,179,o),
(1620,542,cs),
(1656,857,o),
(1443,989,o),
(1206,1096,c),
(1716,1753,ls),
(1734,1776,o),
(1738,1800,o),
(1728,1823,cs),
(1717,1848,o),
(1696,1857,o),
(1672,1857,cs),
(590,1857,ls),
(537,1857,o),
(511,1836,o),
(504,1797,cs),
(193,45,ls),
(188,17,o),
(199,-10,o),
(250,-10,cs),
(296,-10,o),
(315,12,o),
(321,47,cs),
(620,1743,l),
(1577,1743,l),
(1103,1144,l),
(1049,1070,o),
(1088,1012,o),
(1167,982,cs),
(1209,966,o),
(1550,851,o),
(1494,524,cs),
(1444,233,o),
(1138,118,o),
(856,118,cs),
(665,118,ls),
(639,118,o),
(610,92,o),
(610,53,cs),
(610,13,o),
(642,0,o),
(667,0,cs),
(857,-1,ls)
);
}
);
width = 1686;
},
{
background = {
shapes = (
{
pos = (44,0);
ref = H;
}
);
};
layerId = "140DECC1-64C4-40C0-9C07-503DBC3F4160";
shapes = (
{
closed = 1;
nodes = (
(1233,-7,o),
(1672,140,o),
(1726,545,cs),
(1767,855,o),
(1548,1058,o),
(1361,1134,c),
(1774,1639,ls),
(1814,1688,o),
(1813,1745,o),
(1791,1786,cs),
(1769,1827,o),
(1723,1857,o),
(1664,1857,cs),
(597,1857,ls),
(520,1857,o),
(446,1821,o),
(432,1739,cs),
(152,139,ls),
(138,59,o),
(196,0,o),
(290,0,cs),
(383,0,o),
(428,58,o),
(438,116,cs),
(697,1600,l),
(1416,1600,l),
(1058,1189,l),
(1006,1121,o),
(997,1011,o),
(1128,954,cs),
(1266,894,o),
(1475,783,o),
(1439,545,cs),
(1405,323,o),
(1199,253,o),
(951,257,cs),
(739,260,ls),
(664,261,o),
(603,199,o),
(603,122,cs),
(603,26,o),
(698,1,o),
(739,0,cs),
(951,-3,ls)
);
}
);
width = 1727;
}
);
metricLeft = H;
metricRight = S;
unicode = 7838;
},
{
glyphname = T;
kernLeft = T;
kernRight = T;
lastChange = "2024-03-07 21:53:27 +0000";
layers = (
{
anchors = (
{
name = bottom;
pos = (615,0);
},
{
name = center;
pos = (712,929);
},
{
name = top;
pos = (896,1857);
}
);
layerId = m01;
shapes = (
{
closed = 1;
nodes = (
(611,0,o),
(619,33,o),
(623,62,cs),
(919,1754,l),
(1422,1754,ls),
(1470,1754,o),
(1481,1774,o),
(1481,1806,cs),
(1481,1836,o),
(1470,1857,o),
(1422,1857,cs),
(293,1857,ls),
(242,1857,o),
(231,1836,o),
(231,1806,cs),
(231,1774,o),
(242,1754,o),
(293,1754,cs),
(801,1754,l),
(507,62,ls),
(500,22,o),
(513,0,o),
(560,0,cs)
);
}
);
vertWidth = 0;
width = 1141;
},
{
anchors = (
{
name = bottom;
pos = (617,0);
},
{
name = center;
pos = (745,929);
},
{
name = top;
pos = (919,1867);
}
);
layerId = "140DECC1-64C4-40C0-9C07-503DBC3F4160";
shapes = (
{
closed = 1;
nodes = (
(680,-3,o),
(728,51,o),
(740,111,cs),
(1002,1610,l),
(1397,1610,ls),
(1488,1610,o),
(1539,1667,o),
(1539,1734,cs),
(1539,1809,o),
(1484,1867,o),
(1397,1867,cs),
(363,1867,ls),
(276,1867,o),
(220,1809,o),
(220,1734,cs),
(220,1667,o),
(271,1610,o),
(363,1610,cs),
(713,1610,l),
(454,140,ls),
(439,60,o),
(497,-3,o),
(586,-3,cs)
);
}
);
vertWidth = 0;
width = 1185;
}
);
unicode = 84;
userData = {
KernOnName = T;
};
},
{
glyphname = U;
lastChange = "2024-03-07 21:16:58 +0000";
layers = (
{
anchors = (
{
name = bottom;
pos = (675,0);
},
{
name = ogonek;
pos = (1180,10);
},
{
name = top;
pos = (1002,1857);
},
{
name = topright;
pos = (1702,1857);
}
);
guides = (
{
angle = 80;
pos = (1363,998);
}
);
layerId = m01;
shapes = (
{
closed = 1;
nodes = (
(660,-18,o),
(1007,309,o),
(1276,993,c),
(1112,65,ls),
(1104,19,o),
(1133,0,o),
(1170,0,cs),
(1200,0,o),
(1228,17,o),
(1234,56,cs),
(1541,1798,ls),
(1548,1837,o),
(1535,1857,o),
(1486,1857,cs),
(1441,1857,o),
(1424,1832,o),
(1418,1800,cs),
(1362,1480,l),
(1117,685,o),
(711,89,o),
(418,89,cs),
(265,89,o),
(302,321,o),
(335,510,cs),
(561,1793,ls),
(567,1830,o),
(550,1855,o),
(513,1857,cs),
(473,1857,o),
(446,1826,o),
(439,1782,cs),
(215,511,ls),
(149,135,o),
(231,-18,o),
(394,-18,cs)
);
}
);
vertWidth = 0;
width = 1543;
},
{
anchors = (
{
name = bottom;
pos = (694,0);
},
{
name = ogonek;
pos = (1140,30);
},
{
name = top;
pos = (1021,1857);
},
{
name = topright;
pos = (1792,1857);
}
);
layerId = "140DECC1-64C4-40C0-9C07-503DBC3F4160";
shapes = (
{
closed = 1;
nodes = (
(672,-18,o),
(923,179,o),
(1119,515,c),
(1054,140,ls),
(1037,45,o),
(1108,0,o),
(1188,0,cs),
(1253,0,o),
(1327,33,o),
(1340,105,cs),
(1623,1721,ls),
(1637,1800,o),
(1585,1857,o),
(1488,1857,cs),
(1407,1857,o),
(1349,1814,o),
(1337,1749,cs),
(1302,1552,l),
(1082,744,o),
(776,239,o),
(507,239,cs),
(418,239,o),
(428,359,o),
(458,529,cs),
(666,1716,ls),
(680,1797,o),
(623,1857,o),
(538,1857,cs),
(447,1860,o),
(387,1782,o),
(378,1733,cs),
(170,558,ls),
(101,164,o),
(218,-18,o),
(427,-18,cs)
);
}
);
vertWidth = 0;
width = 1625;
}
);
metricLeft = H;
metricRight = H;
unicode = 85;
userData = {
KernOnName = U;
};
},
{
glyphname = V;
lastChange = "2024-03-07 21:16:58 +0000";
layers = (
{
anchors = (
{
name = bottom;
pos = (421,0);
},
{
name = top;
pos = (748,1857);
}
);
layerId = m01;
shapes = (
{
closed = 1;
nodes = (
(438,-5,o),
(448,19,o),
(468,61,cs),
(1322,1789,ls),
(1347,1839,o),
(1324,1862,o),
(1286,1862,cs),
(1235,1862,o),
(1219,1846,o),
(1195,1799,cs),
(426,209,l),
(352,1807,ls),
(352,1833,o),
(340,1862,o),
(284,1862,cs),
(241,1862,o),
(230,1841,o),
(232,1800,cs),
(327,64,l),
(332,30,o),
(350,-5,o),
(392,-5,cs)
);
}
);
vertWidth = 0;
width = 1017;
},
{
anchors = (
{
name = bottom;
pos = (506,0);
},
{
name = top;
pos = (833,1857);
}
);
layerId = "140DECC1-64C4-40C0-9C07-503DBC3F4160";
shapes = (
{
closed = 1;
nodes = (
(537,-5,o),
(573,43,o),
(602,96,c),
(1388,1689,ls),
(1439,1788,o),
(1375,1857,o),
(1283,1857,cs),
(1201,1857,o),
(1145,1824,o),
(1119,1766,c),
(553,597,l),
(499,1745,ls),
(496,1809,o),
(443,1857,o),
(352,1857,cs),
(270,1857,o),
(215,1812,o),
(222,1728,c),
(313,125,ls),
(315,56,o),
(374,-5,o),
(455,-5,cs)
);
}
);
vertWidth = 0;
width = 1187;
}
);
unicode = 86;
userData = {
KernOnName = V;
};
},
{
glyphname = W;
lastChange = "2023-10-27 05:43:53 +0000";
layers = (
{
anchors = (
{
name = bottom;
pos = (913,0);
},
{
name = top;
pos = (1240,1857);
}
);
layerId = m01;
shapes = (
{
closed = 1;
nodes = (
(428,-5,o),
(449,32,o),
(463,64,c),
(1237,1663,l),
(1319,39,ls),
(1322,6,o),
(1335,-5,o),
(1381,-5,cs),
(1412,-5,o),
(1434,15,o),
(1454,61,c),
(2307,1789,ls),
(2331,1839,o),
(2308,1862,o),
(2260,1862,cs),
(2224,1862,o),
(2202,1843,o),
(2179,1799,c),
(1416,222,l),
(1335,1806,l),
(1331,1833,o),
(1319,1862,o),
(1261,1862,cs),
(1222,1862,o),
(1195,1820,o),
(1186,1801,cs),
(420,213,l),
(341,1807,l),
(341,1833,o),
(331,1862,o),
(275,1862,cs),
(231,1862,o),
(220,1841,o),
(223,1800,cs),
(318,64,ls),
(322,21,o),
(343,-5,o),
(388,-5,cs)
);
}
);
vertWidth = 0;
width = 2001;
},
{
anchors = (
{
name = bottom;
pos = (973,0);
},
{
name = top;
pos = (1300,1857);
}
);
layerId = "140DECC1-64C4-40C0-9C07-503DBC3F4160";
shapes = (
{
closed = 1;
nodes = (
(515,0,o),
(566,36,o),
(598,96,cs),
(1178,1264,l),
(1256,128,ls),
(1262,48,o),
(1317,0,o),
(1396,0,cs),
(1459,0,o),
(1516,36,o),
(1546,101,cs),
(2325,1689,ls),
(2373,1788,o),
(2299,1857,o),
(2214,1857,cs),
(2125,1857,o),
(2077,1809,o),
(2051,1758,cs),
(1496,609,l),
(1415,1745,ls),
(1411,1814,o),
(1363,1857,o),
(1262,1857,cs),
(1167,1857,o),
(1141,1805,o),
(1124,1769,cs),
(548,592,l),
(499,1745,ls),
(497,1809,o),
(446,1857,o),
(354,1857,cs),
(273,1857,o),
(215,1812,o),
(222,1728,c),
(306,125,l),
(314,48,o),
(369,0,o),
(461,0,cs)
);
}
);
vertWidth = 0;
width = 2121;
}
);
unicode = 87;
},
{
glyphname = X;
lastChange = "2024-03-07 21:16:58 +0000";
layers = (
{
anchors = (
{
name = bottom;
pos = (463,0);
},
{
name = top;
pos = (790,1857);
}
);
layerId = m01;
shapes = (
{
closed = 1;
nodes = (
(-31,-14,o),
(13,-17,o),
(40,22,cs),
(611,808,l),
(897,43,ls),
(914,-6,o),
(960,-13,o),
(993,4,cs),
(1017,16,o),
(1025,40,o),
(1010,80,cs),
(694,920,l),
(1306,1765,ls),
(1335,1803,o),
(1329,1834,o),
(1309,1850,cs),
(1284,1871,o),
(1240,1869,o),
(1212,1831,cs),
(644,1052,l),
(355,1818,ls),
(338,1865,o),
(301,1873,o),
(270,1860,cs),
(240,1850,o),
(229,1823,o),
(249,1773,cs),
(562,939,l),
(-62,83,l),
(-85,54,o),
(-80,26,o),
(-59,9,cs)
);
}
);
vertWidth = 0;
width = 1102;
},
{
anchors = (
{
name = bottom;
pos = (501,0);
},
{
name = top;
pos = (828,1857);
}
);
layerId = "140DECC1-64C4-40C0-9C07-503DBC3F4160";
shapes = (
{
closed = 1;
nodes = (
(31,-9,o),
(144,-24,o),
(194,45,cs),
(622,643,l),
(833,80,ls),
(864,-3,o),
(972,-17,o),
(1037,17,cs),
(1097,48,o),
(1126,104,o),
(1097,173,c),
(817,915,l),
(1345,1653,ls),
(1395,1721,o),
(1383,1781,o),
(1330,1826,cs),
(1279,1872,o),
(1177,1874,o),
(1126,1805,cs),
(703,1217,l),
(490,1781,ls),
(460,1860,o),
(368,1872,o),
(302,1850,cs),
(228,1824,o),
(202,1764,o),
(236,1674,cs),
(508,946,l),
(-31,197,ls),
(-75,137,o),
(-75,81,o),
(-24,36,cs)
);
}
);
vertWidth = 0;
width = 1177;
}
);
unicode = 88;
userData = {
KernOnName = X;
};
},
{
glyphname = Y;
lastChange = "2024-03-07 21:16:58 +0000";
layers = (
{
anchors = (
{
name = bottom;
pos = (421,0);
},
{
name = top;
pos = (748,1857);
},
{
name = topleft;
pos = (259,1857);
}
);
layerId = m01;
shapes = (
{
closed = 1;
nodes = (
(526,-5,o),
(534,29,o),
(541,58,c),
(694,927,l),
(1309,1764,ls),
(1323,1785,o),
(1331,1801,o),
(1331,1815,cs),
(1331,1840,o),
(1303,1862,o),
(1276,1862,cs),
(1249,1862,o),
(1231,1856,o),
(1212,1831,cs),
(648,1052,l),
(355,1812,ls),
(344,1844,o),
(324,1862,o),
(285,1862,cs),
(256,1862,o),
(232,1841,o),
(232,1818,cs),
(232,1803,o),
(234,1798,o),
(244,1773,cs),
(572,925,l),
(419,57,ls),
(413,19,o),
(428,-5,o),
(471,-5,cs)
);
}
);
vertWidth = 0;
width = 1017;
},
{
anchors = (
{
name = bottom;
pos = (459,0);
},
{
name = top;
pos = (786,1857);
},
{
name = topleft;
pos = (259,1857);
}
);
layerId = "140DECC1-64C4-40C0-9C07-503DBC3F4160";
shapes = (
{
closed = 1;
nodes = (
(631,-5,o),
(670,56,o),
(682,116,cs),
(819,902,l),
(1377,1643,l),
(1399,1674,o),
(1411,1704,o),
(1411,1737,cs),
(1411,1812,o),
(1322,1857,o),
(1271,1857,cs),
(1226,1857,o),
(1179,1836,o),
(1153,1797,c),
(713,1190,l),
(494,1769,l),
(467,1829,o),
(434,1857,o),
(374,1857,cs),
(290,1857,o),
(222,1812,o),
(222,1752,cs),
(222,1722,o),
(227,1706,o),
(239,1674,cs),
(530,921,l),
(395,140,ls),
(381,60,o),
(441,-5,o),
(533,-5,cs)
);
}
);
vertWidth = 0;
width = 1093;
}
);
unicode = 89;
userData = {
KernOnName = Y;
};
},
{
glyphname = Z;
lastChange = "2024-03-07 21:16:58 +0000";
layers = (
{
anchors = (
{
name = bottom;
pos = (463,0);
},
{
name = center;
pos = (626,929);
},
{
name = top;
pos = (790,1857);
}
);
layerId = m01;
shapes = (
{
closed = 1;
nodes = (
(956,-5,ls),
(1007,-5,o),
(1019,21,o),
(1019,55,cs),
(1019,85,o),
(1008,102,o),
(956,102,cs),
(85,102,l),
(1281,1761,ls),
(1295,1782,o),
(1304,1803,o),
(1304,1818,cs),
(1304,1850,o),
(1290,1862,o),
(1243,1862,cs),
(296,1862,ls),
(247,1862,o),
(235,1836,o),
(235,1806,cs),
(235,1773,o),
(245,1758,o),
(296,1758,cs),
(1144,1758,l),
(-60,86,ls),
(-72,69,o),
(-75,56,o),
(-75,43,cs),
(-75,18,o),
(-59,-5,o),
(-12,-5,cs)
);
}
);
vertWidth = 0;
width = 1102;
},
{
anchors = (
{
name = bottom;
pos = (511,0);
},
{
name = center;
pos = (674,929);
},
{
name = top;
pos = (838,1857);
}
);
layerId = "140DECC1-64C4-40C0-9C07-503DBC3F4160";
shapes = (
{
closed = 1;
nodes = (
(987,0,ls),
(1079,0,o),
(1129,56,o),
(1129,123,cs),
(1129,197,o),
(1071,257,o),
(987,257,cs),
(343,257,l),
(1355,1648,ls),
(1382,1684,o),
(1391,1716,o),
(1391,1745,cs),
(1391,1814,o),
(1331,1867,o),
(1238,1867,cs),
(369,1867,ls),
(282,1867,o),
(227,1809,o),
(227,1734,cs),
(227,1667,o),
(278,1610,o),
(369,1610,cs),
(989,1610,l),
(-40,200,ls),
(-56,178,o),
(-64,152,o),
(-64,125,cs),
(-64,72,o),
(-28,0,o),
(100,0,cs)
);
}
);
vertWidth = 0;
width = 1198;
}
);
unicode = 90;
userData = {
KernOnName = Z;
};
},
{
color = 5;
glyphname = A.ss02;
lastChange = "2023-10-27 01:46:19 +0000";
layers = (
{
anchors = (
{
name = bottom;
pos = (542,0);
},
{
name = ogonek;
pos = (1051,10);
},
{
name = top;
pos = (869,1857);
}
);
layerId = m01;
shapes = (
{
closed = 1;
nodes = (
(82,0,o),
(98,23,o),
(125,77,cs),
(561,932,l),
(931,932,l),
(999,78,ls),
(1001,48,o),
(1013,0,o),
(1081,0,cs),
(1138,0,o),
(1158,36,o),
(1154,84,cs),
(1010,1797,ls),
(1007,1830,o),
(984,1857,o),
(931,1857,cs),
(861,1857,o),
(857,1820,o),
(838,1783,cs),
(-36,105,ls),
(-71,40,o),
(-27,0,o),
(22,0,cs)
);
},
{
closed = 1;
nodes = (
(-18,19,o),
(-48,45,o),
(-21,96,cs),
(854,1775,ls),
(876,1816,o),
(877,1839,o),
(931,1839,cs),
(974,1839,o),
(989,1820,o),
(991,1795,cs),
(1136,82,ls),
(1140,42,o),
(1126,19,o),
(1081,19,cs),
(1027,19,o),
(1019,51,o),
(1017,79,cs),
(948,951,l),
(550,951,l),
(109,85,ls),
(82,33,o),
(72,19,o),
(22,19,cs)
);
},
{
closed = 1;
nodes = (
(919,1072,l),
(882,1562,l),
(633,1072,l)
);
},
{
closed = 1;
nodes = (
(873,1585,ls),
(890,1619,o),
(895,1619,o),
(898,1580,cs),
(939,1055,l),
(603,1055,l)
);
}
);
vertWidth = 0;
width = 1259;
},
{
anchors = (
{
name = bottom;
pos = (622,0);
},
{
name = ogonek;
pos = (1192,10);
},
{
name = top;
pos = (949,1857);
}
);
layerId = "140DECC1-64C4-40C0-9C07-503DBC3F4160";
shapes = (
{
closed = 1;
nodes = (
(187,-18,o),
(238,7,o),
(277,85,cs),
(610,743,l),
(964,742,l),
(1016,115,ls),
(1022,34,o),
(1075,-18,o),
(1174,-18,cs),
(1263,-18,o),
(1330,32,o),
(1322,134,cs),
(1185,1724,ls),
(1177,1824,o),
(1103,1876,o),
(1005,1876,cs),
(904,1876,o),
(839,1828,o),
(808,1770,cs),
(-19,179,ls),
(-80,65,o),
(3,-18,o),
(104,-18,cs)
);
},
{
closed = 1;
nodes = (
(24,19,o),
(-33,72,o),
(14,163,cs),
(842,1753,ls),
(868,1803,o),
(918,1839,o),
(1005,1839,cs),
(1089,1839,o),
(1141,1802,o),
(1148,1721,cs),
(1285,130,ls),
(1291,52,o),
(1247,19,o),
(1174,19,cs),
(1092,19,o),
(1058,54,o),
(1053,117,cs),
(997,779,l),
(587,780,l),
(243,102,ls),
(210,36,o),
(176,19,o),
(104,19,cs)
);
},
{
closed = 1;
nodes = (
(940,1038,l),
(914,1342,l),
(759,1038,l)
);
},
{
closed = 1;
nodes = (
(898,1392,ls),
(930,1453,o),
(940,1458,o),
(945,1396,cs),
(979,1001,l),
(699,1001,l)
);
}
);
vertWidth = 0;
width = 1382;
}
);
metricLeft = A;
metricWidth = A;
},
{
color = 5;
glyphname = B.ss02;
lastChange = "2023-10-27 06:08:01 +0000";
layers = (
{
anchors = (
{
name = bottom;
pos = (688,0);
},
{
name = center;
pos = (851,929);
},
{
name = top;
pos = (1015,1857);
}
);
layerId = m01;
shapes = (
{
closed = 1;
nodes = (
(1061,0,o),
(1292,154,o),
(1341,471,cs),
(1381,728,o),
(1254,903,o),
(985,996,c),
(1335,1053,o),
(1423,1183,o),
(1445,1359,cs),
(1489,1701,o),
(1194,1857,o),
(582,1857,cs),
(531,1857,o),
(501,1835,o),
(490,1774,cs),
(194,99,ls),
(186,51,o),
(210,0,o),
(255,0,cs)
);
},
{
closed = 1;
nodes = (
(223,19,o),
(204,56,o),
(211,95,cs),
(507,1770,ls),
(517,1824,o),
(538,1839,o),
(582,1839,cs),
(1187,1839,o),
(1468,1690,o),
(1427,1362,cs),
(1404,1175,o),
(1311,1051,o),
(899,1003,c),
(1217,919,o),
(1364,742,o),
(1323,473,cs),
(1277,167,o),
(1053,19,o),
(255,19,cs)
);
},
{
closed = 1;
nodes = (
(859,154,o),
(1146,228,o),
(1183,489,cs),
(1218,736,o),
(1021,924,o),
(504,944,c),
(364,150,l)
);
},
{
closed = 1;
nodes = (
(488,962,l),
(1026,945,o),
(1238,746,o),
(1201,487,cs),
(1161,208,o),
(853,133,o),
(342,131,c)
);
},
{
closed = 1;
nodes = (
(1174,1081,o),
(1265,1190,o),
(1284,1365,cs),
(1311,1610,o),
(1066,1704,o),
(638,1710,c),
(526,1073,l)
);
},
{
closed = 1;
nodes = (
(623,1729,l),
(1064,1725,o),
(1334,1627,o),
(1303,1363,cs),
(1282,1178,o),
(1183,1061,o),
(505,1055,c)
);
}
);
vertWidth = 0;
width = 1447;
},
{
anchors = (
{
name = bottom;
pos = (735,0);
},
{
name = center;
pos = (898,929);
},
{
name = top;
pos = (1062,1857);
}
);
layerId = "140DECC1-64C4-40C0-9C07-503DBC3F4160";
shapes = (
{
closed = 1;
nodes = (
(1135,-18,o),
(1438,57,o),
(1495,469,cs),
(1531,725,o),
(1424,882,o),
(1227,983,c),
(1483,1060,o),
(1612,1195,o),
(1630,1346,cs),
(1675,1717,o),
(1332,1876,o),
(591,1876,cs),
(520,1876,o),
(453,1852,o),
(433,1743,cs),
(153,154,ls),
(136,56,o),
(207,-18,o),
(292,-18,cs)
);
},
{
closed = 1;
nodes = (
(226,19,o),
(176,70,o),
(190,149,cs),
(470,1737,ls),
(485,1822,o),
(530,1839,o),
(591,1839,cs),
(1321,1839,o),
(1633,1695,o),
(1593,1351,cs),
(1574,1189,o),
(1430,1061,o),
(1113,993,c),
(1363,900,o),
(1497,746,o),
(1458,475,cs),
(1404,90,o),
(1127,19,o),
(292,19,cs)
);
},
{
closed = 1;
nodes = (
(992,290,o),
(1148,345,o),
(1174,524,cs),
(1206,737,o),
(1067,831,o),
(605,848,c),
(505,277,l)
);
},
{
closed = 1;
nodes = (
(575,887,l),
(1077,871,o),
(1246,763,o),
(1211,519,cs),
(1182,311,o),
(991,249,o),
(460,238,c)
);
},
{
closed = 1;
nodes = (
(1273,1141,o),
(1298,1274,o),
(1307,1365,cs),
(1317,1485,o),
(1228,1562,o),
(734,1578,c),
(653,1122,l)
);
},
{
closed = 1;
nodes = (
(703,1616,l),
(1241,1603,o),
(1357,1507,o),
(1344,1362,cs),
(1334,1263,o),
(1307,1099,o),
(609,1083,c)
);
}
);
vertWidth = 0;
width = 1566;
}
);
metricLeft = B;
metricWidth = B;
},
{
color = 5;
glyphname = C.ss02;
lastChange = "2023-10-27 01:46:18 +0000";
layers = (
{
anchors = (
{
name = bottom;
pos = (634,0);
},
{
name = top;
pos = (961,1857);
}
);
layerId = m01;
shapes = (
{
closed = 1;
nodes = (
(934,0,o),
(1127,129,o),
(1290,308,cs),
(1361,387,o),
(1369,425,o),
(1366,447,cs),
(1359,485,o),
(1330,505,o),
(1290,505,cs),
(1238,505,o),
(1221,453,o),
(1165,404,cs),
(1011,257,o),
(873,150,o),
(690,150,cs),
(492,150,o),
(288,398,o),
(368,868,cs),
(425,1193,o),
(559,1710,o),
(1047,1710,cs),
(1176,1710,o),
(1311,1652,o),
(1436,1521,cs),
(1479,1478,o),
(1523,1490,o),
(1549,1518,cs),
(1576,1548,o),
(1569,1597,o),
(1540,1625,cs),
(1394,1766,o),
(1228,1857,o),
(1050,1857,cs),
(442,1857,o),
(281,1277,o),
(209,873,cs),
(108,310,o),
(411,0,o),
(688,0,cs)
);
},
{
closed = 1;
nodes = (
(420,19,o),
(128,317,o),
(227,870,cs),
(299,1272,o),
(456,1839,o),
(1050,1839,cs),
(1224,1839,o),
(1389,1758,o),
(1527,1612,cs),
(1551,1589,o),
(1557,1551,o),
(1535,1530,cs),
(1516,1507,o),
(1484,1499,o),
(1449,1533,cs),
(1322,1668,o),
(1180,1729,o),
(1047,1729,cs),
(545,1729,o),
(407,1197,o),
(350,870,cs),
(268,390,o),
(482,131,o),
(690,131,cs),
(880,131,o),
(1023,243,o),
(1177,391,cs),
(1238,443,o),
(1250,487,o),
(1290,487,cs),
(1324,487,o),
(1342,473,o),
(1348,444,cs),
(1350,426,o),
(1344,395,o),
(1276,320,cs),
(1115,142,o),
(928,19,o),
(688,19,cs)
);
}
);
vertWidth = 0;
width = 1437;
},
{
anchors = (
{
name = bottom;
pos = (698,0);
},
{
name = top;
pos = (1025,1857);
}
);
layerId = "140DECC1-64C4-40C0-9C07-503DBC3F4160";
shapes = (
{
closed = 1;
nodes = (
(1030,-18,o),
(1280,95,o),
(1450,280,cs),
(1523,360,o),
(1553,402,o),
(1553,462,cs),
(1553,524,o),
(1505,579,o),
(1419,579,cs),
(1370,579,o),
(1307,561,o),
(1235,481,cs),
(1119,352,o),
(956,276,o),
(796,276,cs),
(597,276,o),
(493,519,o),
(552,866,cs),
(634,1346,o),
(833,1582,o),
(1157,1582,cs),
(1284,1582,o),
(1369,1554,o),
(1458,1473,cs),
(1532,1407,o),
(1630,1375,o),
(1702,1448,cs),
(1777,1523,o),
(1734,1619,o),
(1658,1688,cs),
(1502,1829,o),
(1341,1876,o),
(1160,1876,cs),
(659,1876,o),
(347,1536,o),
(229,874,cs),
(141,364,o),
(381,-18,o),
(794,-18,cs)
);
},
{
closed = 1;
nodes = (
(404,19,o),
(180,375,o),
(266,869,cs),
(381,1517,o),
(677,1839,o),
(1160,1839,cs),
(1335,1839,o),
(1485,1795,o),
(1634,1660,cs),
(1702,1598,o),
(1732,1530,o),
(1676,1474,cs),
(1621,1419,o),
(1548,1441,o),
(1482,1500,cs),
(1388,1587,o),
(1290,1619,o),
(1157,1619,cs),
(814,1619,o),
(599,1364,o),
(515,871,cs),
(454,511,o),
(570,239,o),
(796,239,cs),
(966,239,o),
(1141,321,o),
(1263,457,cs),
(1326,527,o),
(1376,542,o),
(1419,542,cs),
(1486,542,o),
(1516,508,o),
(1516,462,cs),
(1516,414,o),
(1494,383,o),
(1423,306,cs),
(1259,127,o),
(1021,19,o),
(794,19,cs)
);
}
);
vertWidth = 0;
width = 1535;
}
);
metricLeft = C;
metricWidth = C;
},
{
color = 5;
glyphname = D.ss02;
lastChange = "2023-10-27 06:08:01 +0000";
layers = (
{
anchors = (
{
name = bottom;
pos = (731,0);
},
{
name = center;
pos = (894,929);
},
{
name = top;
pos = (1058,1857);
}
);
layerId = m01;
shapes = (
{
closed = 1;
nodes = (
(451,0,ls),
(998,0,o),
(1459,349,o),
(1544,982,cs),
(1618,1551,o),
(1212,1857,o),
(686,1857,cs),
(583,1857,ls),
(518,1857,o),
(499,1821,o),
(491,1774,cs),
(193,87,ls),
(185,38,o),
(209,0,o),
(266,0,cs)
);
},
{
closed = 1;
nodes = (
(220,19,o),
(203,43,o),
(211,83,cs),
(509,1770,ls),
(517,1814,o),
(530,1839,o),
(583,1839,cs),
(686,1839,ls),
(1205,1839,o),
(1598,1542,o),
(1525,985,cs),
(1442,360,o),
(990,19,o),
(451,19,cs),
(266,19,ls)
);
},
{
closed = 1;
nodes = (
(451,150,ls),
(905,150,o),
(1316,436,o),
(1384,1004,cs),
(1436,1453,o),
(1126,1710,o),
(696,1710,cs),
(640,1710,l),
(364,150,l)
);
},
{
closed = 1;
nodes = (
(624,1729,l),
(696,1729,ls),
(1134,1729,o),
(1456,1462,o),
(1403,1002,cs),
(1333,425,o),
(912,131,o),
(451,131,cs),
(343,131,l)
);
}
);
vertWidth = 0;
width = 1539;
},
{
anchors = (
{
name = bottom;
pos = (785,0);
},
{
name = center;
pos = (948,929);
},
{
name = top;
pos = (1112,1857);
}
);
layerId = "140DECC1-64C4-40C0-9C07-503DBC3F4160";
shapes = (
{
closed = 1;
nodes = (
(522,-18,ls),
(1107,-18,o),
(1598,417,o),
(1677,1001,cs),
(1751,1543,o),
(1392,1876,o),
(743,1876,cs),
(600,1876,ls),
(502,1876,o),
(450,1831,o),
(434,1744,cs),
(152,143,ls),
(137,55,o),
(201,-18,o),
(301,-18,cs)
);
},
{
closed = 1;
nodes = (
(221,19,o),
(177,68,o),
(189,136,cs),
(471,1736,ls),
(484,1809,o),
(519,1839,o),
(600,1839,cs),
(743,1839,ls),
(1374,1839,o),
(1711,1525,o),
(1640,1006,cs),
(1563,438,o),
(1090,19,o),
(522,19,cs),
(301,19,ls)
);
},
{
closed = 1;
nodes = (
(522,274,ls),
(951,274,o),
(1308,585,o),
(1363,1004,cs),
(1410,1365,o),
(1184,1584,o),
(758,1584,cs),
(736,1584,l),
(506,274,l)
);
},
{
closed = 1;
nodes = (
(704,1621,l),
(758,1621,ls),
(1201,1621,o),
(1450,1381,o),
(1400,998,cs),
(1344,564,o),
(967,237,o),
(522,237,cs),
(461,237,l)
);
}
);
vertWidth = 0;
width = 1663;
}
);
metricLeft = D;
metricWidth = D;
},
{
color = 5;
glyphname = E.ss02;
lastChange = "2023-10-27 06:08:01 +0000";
layers = (
{
anchors = (
{
name = bottom;
pos = (675,0);
},
{
name = ogonek;
pos = (1211,10);
},
{
name = top;
pos = (1002,1857);
},
{
name = topleft;
pos = (354,1857);
}
);
layerId = m01;
shapes = (
{
closed = 1;
nodes = (
(1217,0,ls),
(1281,0,o),
(1300,47,o),
(1300,83,cs),
(1300,120,o),
(1280,150,o),
(1217,150,cs),
(364,150,l),
(502,930,l),
(1246,930,ls),
(1310,930,o),
(1329,967,o),
(1328,997,cs),
(1327,1036,o),
(1310,1073,o),
(1245,1073,cs),
(527,1073,l),
(640,1710,l),
(1494,1710,ls),
(1557,1710,o),
(1576,1740,o),
(1576,1780,cs),
(1576,1816,o),
(1557,1857,o),
(1494,1857,cs),
(586,1857,ls),
(518,1857,o),
(499,1820,o),
(491,1774,cs),
(193,87,ls),
(185,38,o),
(209,0,o),
(266,0,cs)
);
},
{
closed = 1;
nodes = (
(220,19,o),
(203,43,o),
(211,83,cs),
(509,1770,ls),
(517,1814,o),
(530,1839,o),
(586,1839,cs),
(1494,1839,ls),
(1544,1839,o),
(1558,1810,o),
(1558,1780,cs),
(1558,1746,o),
(1546,1729,o),
(1494,1729,cs),
(624,1729,l),
(505,1055,l),
(1245,1055,ls),
(1298,1055,o),
(1309,1030,o),
(1310,997,cs),
(1310,972,o),
(1298,948,o),
(1246,948,cs),
(486,948,l),
(343,131,l),
(1217,131,ls),
(1270,131,o),
(1283,114,o),
(1283,83,cs),
(1283,52,o),
(1268,19,o),
(1217,19,cs),
(266,19,ls)
);
}
);
vertWidth = 0;
width = 1420;
},
{
anchors = (
{
name = bottom;
pos = (691,0);
},
{
name = ogonek;
pos = (1279,10);
},
{
name = top;
pos = (1018,1857);
},
{
name = topleft;
pos = (305,1857);
}
);
layerId = "140DECC1-64C4-40C0-9C07-503DBC3F4160";
shapes = (
{
closed = 1;
nodes = (
(1272,-18,ls),
(1365,-18,o),
(1432,34,o),
(1432,120,cs),
(1432,196,o),
(1380,274,o),
(1276,274,cs),
(507,274,l),
(606,842,l),
(1331,842,ls),
(1431,842,o),
(1503,905,o),
(1503,983,cs),
(1503,1068,o),
(1438,1122,o),
(1345,1122,cs),
(656,1122,l),
(737,1584,l),
(1553,1584,ls),
(1649,1584,o),
(1718,1647,o),
(1718,1733,cs),
(1718,1815,o),
(1657,1876,o),
(1560,1876,cs),
(607,1876,ls),
(511,1876,o),
(453,1839,o),
(437,1750,cs),
(153,144,ls),
(138,56,o),
(181,-18,o),
(278,-18,cs)
);
},
{
closed = 1;
nodes = (
(205,19,o),
(177,67,o),
(190,139,cs),
(474,1743,ls),
(487,1815,o),
(524,1839,o),
(607,1839,cs),
(1560,1839,ls),
(1640,1839,o),
(1681,1797,o),
(1681,1733,cs),
(1681,1666,o),
(1632,1621,o),
(1553,1621,cs),
(705,1621,l),
(611,1085,l),
(1345,1085,ls),
(1422,1085,o),
(1466,1049,o),
(1466,983,cs),
(1466,924,o),
(1414,879,o),
(1331,879,cs),
(574,879,l),
(462,237,l),
(1276,237,ls),
(1358,237,o),
(1395,182,o),
(1395,120,cs),
(1395,55,o),
(1349,19,o),
(1272,19,cs),
(278,19,ls)
);
}
);
vertWidth = 0;
width = 1474;
}
);
metricLeft = E;
metricWidth = E;
},
{
color = 5;
glyphname = F.ss02;
lastChange = "2023-10-27 06:08:01 +0000";
layers = (
{
anchors = (
{
name = bottom;
pos = (599,0);
},
{
name = top;
pos = (926,1857);
}
);
layerId = m01;
shapes = (
{
closed = 1;
nodes = (
(336,0,o),
(346,50,o),
(351,80,cs),
(502,930,l),
(1214,930,ls),
(1279,930,o),
(1298,967,o),
(1298,997,cs),
(1298,1036,o),
(1279,1073,o),
(1214,1073,cs),
(528,1073,l),
(640,1710,l),
(1465,1710,ls),
(1528,1710,o),
(1548,1740,o),
(1548,1780,cs),
(1548,1816,o),
(1529,1857,o),
(1465,1857,cs),
(586,1857,ls),
(518,1857,o),
(499,1820,o),
(491,1774,cs),
(193,87,ls),
(185,38,o),
(210,0,o),
(267,0,cs)
);
},
{
closed = 1;
nodes = (
(221,19,o),
(204,44,o),
(211,83,cs),
(509,1770,ls),
(517,1814,o),
(530,1839,o),
(586,1839,cs),
(1465,1839,ls),
(1517,1839,o),
(1530,1810,o),
(1530,1780,cs),
(1530,1746,o),
(1518,1729,o),
(1465,1729,cs),
(624,1729,l),
(506,1055,l),
(1214,1055,ls),
(1267,1055,o),
(1280,1030,o),
(1280,997,cs),
(1280,972,o),
(1267,948,o),
(1214,948,cs),
(486,948,l),
(334,82,ls),
(329,55,o),
(321,19,o),
(267,19,cs)
);
}
);
vertWidth = 0;
width = 1266;
},
{
anchors = (
{
name = bottom;
pos = (642,0);
},
{
name = top;
pos = (969,1857);
}
);
layerId = "140DECC1-64C4-40C0-9C07-503DBC3F4160";
shapes = (
{
closed = 1;
nodes = (
(396,-18,o),
(466,49,o),
(482,144,cs),
(604,842,l),
(1316,842,ls),
(1418,842,o),
(1473,907,o),
(1473,985,cs),
(1473,1067,o),
(1414,1122,o),
(1318,1122,cs),
(654,1122,l),
(735,1584,l),
(1518,1584,ls),
(1624,1584,o),
(1686,1658,o),
(1686,1728,cs),
(1686,1817,o),
(1625,1876,o),
(1528,1876,cs),
(600,1876,ls),
(502,1876,o),
(450,1836,o),
(434,1747,cs),
(154,157,ls),
(139,73,o),
(169,-18,o),
(297,-18,cs)
);
},
{
closed = 1;
nodes = (
(197,19,o),
(178,79,o),
(191,150,cs),
(471,1742,ls),
(484,1814,o),
(517,1839,o),
(600,1839,cs),
(1528,1839,ls),
(1607,1839,o),
(1649,1799,o),
(1649,1728,cs),
(1649,1673,o),
(1604,1621,o),
(1518,1621,cs),
(703,1621,l),
(609,1085,l),
(1318,1085,ls),
(1397,1085,o),
(1436,1049,o),
(1436,985,cs),
(1436,922,o),
(1398,879,o),
(1316,879,cs),
(573,879,l),
(445,150,ls),
(432,69,o),
(380,19,o),
(297,19,cs)
);
}
);
vertWidth = 0;
width = 1378;
}
);
metricLeft = F;
metricWidth = F;
},
{
color = 5;
glyphname = G.ss02;
kernLeft = G;
kernRight = G;
lastChange = "2024-03-07 21:57:38 +0000";
layers = (
{
anchors = (
{
name = bottom;
pos = (682,0);
},
{
name = top;
pos = (1009,1857);
}
);
layerId = m01;
shapes = (
{
closed = 1;
nodes = (
(838,-18,o),
(994,88,o),
(1176,336,c),
(1136,87,ls),
(1130,51,o),
(1139,4,o),
(1201,0,cs),
(1275,-3,o),
(1291,52,o),
(1297,84,cs),
(1407,724,ls),
(1416,777,o),
(1401,811,o),
(1343,811,cs),
(1280,811,o),
(1249,767,o),
(1217,692,cs),
(1068,351,o),
(872,131,o),
(673,131,cs),
(425,131,o),
(298,450,o),
(368,868,cs),
(465,1429,o),
(693,1729,o),
(1047,1729,cs),
(1176,1729,o),
(1301,1673,o),
(1429,1541,cs),
(1469,1500,o),
(1513,1511,o),
(1540,1539,cs),
(1568,1568,o),
(1561,1618,o),
(1533,1647,cs),
(1393,1794,o),
(1228,1876,o),
(1050,1876,cs),
(609,1876,o),
(327,1524,o),
(209,873,cs),
(123,374,o),
(318,-18,o),
(670,-18,cs)
);
},
{
closed = 1;
nodes = (
(331,0,o),
(142,378,o),
(227,870,cs),
(344,1515,o),
(618,1857,o),
(1050,1857,cs),
(1224,1857,o),
(1382,1779,o),
(1520,1634,cs),
(1544,1610,o),
(1546,1573,o),
(1526,1551,cs),
(1506,1529,o),
(1474,1521,o),
(1442,1553,cs),
(1312,1689,o),
(1180,1747,o),
(1047,1747,cs),
(683,1747,o),
(448,1438,o),
(350,870,cs),
(278,447,o),
(411,113,o),
(673,113,cs),
(880,113,o),
(1084,339,o),
(1234,685,cs),
(1265,758,o),
(1290,793,o),
(1343,793,cs),
(1389,793,o),
(1397,773,o),
(1389,728,cs),
(1279,87,ls),
(1274,56,o),
(1262,16,o),
(1202,19,cs),
(1155,21,o),
(1150,52,o),
(1154,83,cs),
(1199,360,ls),
(1205,402,o),
(1199,400,o),
(1173,363,cs),
(989,105,o),
(836,0,o),
(670,0,cs)
);
}
);
vertWidth = 0;
width = 1553;
},
{
anchors = (
{
name = bottom;
pos = (778,0);
},
{
name = top;
pos = (1105,1857);
}
);
layerId = "140DECC1-64C4-40C0-9C07-503DBC3F4160";
shapes = (
{
closed = 1;
nodes = (
(924,-18,o),
(1058,67,o),
(1179,217,c),
(1168,161,ls),
(1148,60,o),
(1220,-1,o),
(1329,-1,cs),
(1440,-1,o),
(1471,60,o),
(1484,135,cs),
(1594,760,ls),
(1612,860,o),
(1555,926,o),
(1455,926,cs),
(1395,926,o),
(1327,911,o),
(1250,770,cs),
(1106,518,o),
(926,276,o),
(741,276,cs),
(585,276,o),
(493,493,o),
(557,866,cs),
(639,1346,o),
(838,1582,o),
(1162,1582,cs),
(1289,1582,o),
(1374,1554,o),
(1463,1473,cs),
(1537,1407,o),
(1635,1375,o),
(1707,1448,cs),
(1782,1523,o),
(1739,1619,o),
(1663,1688,cs),
(1507,1829,o),
(1346,1876,o),
(1165,1876,cs),
(664,1876,o),
(352,1536,o),
(234,874,cs),
(138,325,o),
(357,-18,o),
(739,-18,cs)
);
},
{
closed = 1;
nodes = (
(379,19,o),
(178,336,o),
(271,869,cs),
(386,1517,o),
(682,1839,o),
(1165,1839,cs),
(1340,1839,o),
(1490,1795,o),
(1639,1660,cs),
(1707,1598,o),
(1737,1530,o),
(1681,1474,cs),
(1626,1419,o),
(1553,1441,o),
(1487,1500,cs),
(1393,1587,o),
(1295,1619,o),
(1162,1619,cs),
(819,1619,o),
(604,1364,o),
(520,871,cs),
(454,484,o),
(558,239,o),
(741,239,cs),
(946,239,o),
(1136,497,o),
(1282,751,cs),
(1350,877,o),
(1400,889,o),
(1455,889,cs),
(1536,889,o),
(1571,846,o),
(1557,766,cs),
(1447,141,ls),
(1436,75,o),
(1416,36,o),
(1329,36,cs),
(1236,36,o),
(1191,76,o),
(1205,154,cs),
(1227,275,ls),
(1237,328,o),
(1219,333,o),
(1184,286,cs),
(1059,112,o),
(929,19,o),
(739,19,cs)
);
}
);
vertWidth = 0;
width = 1708;
}
);
metricLeft = G;
metricWidth = G;
},
{
color = 5;
glyphname = H.ss02;
lastChange = "2023-10-27 06:08:01 +0000";
layers = (
{
anchors = (
{
name = bottom;
pos = (735,0);
},
{
name = center;
pos = (898,929);
},
{
name = top;
pos = (1062,1857);
},
{
name = topleft;
pos = (354,1857);
}
);
layerId = m01;
shapes = (
{
closed = 1;
nodes = (
(336,0,o),
(347,50,o),
(352,80,cs),
(502,930,l),
(1292,930,l),
(1146,87,ls),
(1139,51,o),
(1147,0,o),
(1219,0,cs),
(1281,0,o),
(1299,42,o),
(1304,70,cs),
(1603,1766,ls),
(1612,1819,o),
(1591,1857,o),
(1530,1857,cs),
(1471,1857,o),
(1445,1820,o),
(1439,1788,cs),
(1316,1073,l),
(527,1073,l),
(648,1758,ls),
(658,1816,o),
(640,1857,o),
(585,1857,cs),
(525,1857,o),
(499,1821,o),
(491,1774,cs),
(193,87,ls),
(185,38,o),
(210,0,o),
(266,0,cs)
);
},
{
closed = 1;
nodes = (
(220,19,o),
(203,43,o),
(211,83,cs),
(508,1770,ls),
(516,1813,o),
(535,1839,o),
(585,1839,cs),
(628,1839,o),
(639,1811,o),
(630,1761,cs),
(505,1055,l),
(1332,1055,l),
(1458,1784,ls),
(1462,1812,o),
(1483,1839,o),
(1530,1839,cs),
(1579,1839,o),
(1594,1814,o),
(1585,1769,cs),
(1286,73,ls),
(1282,48,o),
(1269,19,o),
(1219,19,cs),
(1163,19,o),
(1159,52,o),
(1164,83,cs),
(1313,948,l),
(486,948,l),
(334,82,ls),
(329,55,o),
(322,19,o),
(266,19,cs)
);
}
);
vertWidth = 0;
width = 1601;
},
{
anchors = (
{
name = bottom;
pos = (766,0);
},
{
name = center;
pos = (929,929);
},
{
name = top;
pos = (1093,1857);
},
{
name = topleft;
pos = (303,1857);
}
);
layerId = "140DECC1-64C4-40C0-9C07-503DBC3F4160";
shapes = (
{
closed = 1;
nodes = (
(415,-18,o),
(467,48,o),
(475,113,c),
(592,787,l),
(1222,787,l),
(1110,142,ls),
(1093,49,o),
(1153,-18,o),
(1258,-18,cs),
(1348,-18,o),
(1417,36,o),
(1431,102,c),
(1710,1709,ls),
(1728,1814,o),
(1660,1876,o),
(1561,1876,cs),
(1471,1876,o),
(1403,1827,o),
(1391,1755,cs),
(1273,1082,l),
(643,1082,l),
(752,1703,ls),
(771,1816,o),
(710,1876,o),
(617,1876,cs),
(534,1876,o),
(450,1836,o),
(433,1744,cs),
(152,143,ls),
(136,52,o),
(204,-18,o),
(305,-18,cs)
);
},
{
closed = 1;
nodes = (
(222,19,o),
(176,67,o),
(189,136,cs),
(470,1736,ls),
(483,1808,o),
(545,1839,o),
(617,1839,cs),
(692,1839,o),
(731,1800,o),
(715,1708,cs),
(599,1045,l),
(1305,1045,l),
(1428,1749,ls),
(1436,1804,o),
(1485,1839,o),
(1561,1839,cs),
(1642,1839,o),
(1688,1798,o),
(1673,1717,cs),
(1394,109,ls),
(1383,58,o),
(1333,19,o),
(1258,19,cs),
(1172,19,o),
(1133,63,o),
(1147,137,cs),
(1267,824,l),
(561,824,l),
(438,118,l),
(432,65,o),
(395,19,o),
(305,19,cs)
);
}
);
vertWidth = 0;
width = 1680;
}
);
metricLeft = H;
metricWidth = H;
},
{
color = 5;
glyphname = I.ss02;
lastChange = "2023-10-27 01:46:19 +0000";
layers = (
{
anchors = (
{
name = bottom;
pos = (287,0);
},
{
name = ogonek;
pos = (591,10);
},
{
name = top;
pos = (614,1857);
},
{
name = topleft;
pos = (256,1857);
}
);
layerId = m01;
shapes = (
{
closed = 1;
nodes = (
(430,0,ls),
(495,0,o),
(513,37,o),
(513,73,cs),
(513,113,o),
(495,150,o),
(430,150,cs),
(392,150,l),
(667,1710,l),
(726,1710,ls),
(787,1710,o),
(806,1750,o),
(806,1786,cs),
(806,1823,o),
(787,1857,o),
(726,1857,cs),
(473,1857,ls),
(409,1857,o),
(391,1823,o),
(391,1786,cs),
(391,1750,o),
(409,1710,o),
(473,1710,cs),
(501,1710,l),
(229,150,l),
(166,150,ls),
(105,150,o),
(86,112,o),
(86,73,cs),
(86,37,o),
(105,0,o),
(166,0,cs)
);
},
{
closed = 1;
nodes = (
(117,19,o),
(104,43,o),
(104,73,cs),
(104,106,o),
(117,131,o),
(166,131,cs),
(245,131,l),
(523,1729,l),
(473,1729,ls),
(422,1729,o),
(409,1755,o),
(409,1786,cs),
(409,1818,o),
(422,1839,o),
(473,1839,cs),
(726,1839,ls),
(776,1839,o),
(788,1818,o),
(788,1786,cs),
(788,1755,o),
(775,1729,o),
(726,1729,cs),
(651,1729,l),
(371,131,l),
(430,131,ls),
(483,131,o),
(495,106,o),
(495,73,cs),
(495,43,o),
(483,19,o),
(430,19,cs),
(166,19,ls)
);
}
);
vertWidth = 0;
width = 723;
},
{
anchors = (
{
name = bottom;
pos = (410,0);
},
{
name = ogonek;
pos = (730,10);
},
{
name = top;
pos = (737,1857);
},
{
name = topleft;
pos = (358,1857);
}
);
layerId = "140DECC1-64C4-40C0-9C07-503DBC3F4160";
shapes = (
{
closed = 1;
nodes = (
(710,-18,ls),
(820,-18,o),
(856,50,o),
(866,122,cs),
(879,202,o),
(836,276,o),
(751,276,cs),
(664,276,l),
(891,1582,l),
(997,1582,ls),
(1100,1582,o),
(1147,1659,o),
(1160,1732,cs),
(1170,1814,o),
(1114,1876,o),
(1038,1876,cs),
(527,1876,ls),
(430,1876,o),
(383,1814,o),
(370,1737,cs),
(356,1660,o),
(409,1582,o),
(489,1582,cs),
(563,1582,l),
(338,276,l),
(243,276,ls),
(141,276,o),
(92,204,o),
(79,128,cs),
(65,50,o),
(118,-18,o),
(203,-18,cs)
);
},
{
closed = 1;
nodes = (
(140,19,o),
(104,62,o),
(116,122,cs),
(127,188,o),
(162,239,o),
(243,239,cs),
(369,239,l),
(608,1619,l),
(489,1619,ls),
(432,1619,o),
(396,1671,o),
(407,1732,cs),
(418,1797,o),
(450,1839,o),
(527,1839,cs),
(1038,1839,ls),
(1094,1839,o),
(1131,1798,o),
(1123,1737,cs),
(1112,1673,o),
(1078,1619,o),
(997,1619,cs),
(859,1619,l),
(620,239,l),
(751,239,ls),
(813,239,o),
(840,191,o),
(829,128,cs),
(820,63,o),
(795,19,o),
(710,19,cs),
(203,19,ls)
);
}
);
vertWidth = 0;
width = 951;
}
);
metricLeft = I;
metricWidth = I;
},
{
color = 5;
glyphname = J.ss02;
kernLeft = J;
kernRight = J;
lastChange = "2024-03-07 21:56:59 +0000";
layers = (
{
anchors = (
{
name = bottom;
pos = (438,0);
},
{
name = top;
pos = (765,1857);
}
);
layerId = m01;
shapes = (
{
closed = 1;
nodes = (
(-4,0,o),
(251,12,o),
(307,19,cs),
(696,77,o),
(774,426,o),
(848,846,cs),
(1001,1710,l),
(1363,1710,ls),
(1427,1710,o),
(1445,1746,o),
(1445,1784,cs),
(1445,1820,o),
(1427,1857,o),
(1363,1857,cs),
(503,1857,ls),
(439,1857,o),
(420,1820,o),
(420,1784,cs),
(420,1746,o),
(439,1710,o),
(503,1710,cs),
(840,1710,l),
(690,863,ls),
(634,542,o),
(585,216,o),
(316,170,cs),
(239,156,o),
(-23,150,o),
(-90,150,cs),
(-130,150,o),
(-171,122,o),
(-171,78,cs),
(-171,31,o),
(-130,0,o),
(-90,0,cs)
);
},
{
closed = 1;
nodes = (
(-122,19,o),
(-152,41,o),
(-152,78,cs),
(-152,112,o),
(-123,131,o),
(-90,131,cs),
(-23,131,o),
(241,139,o),
(319,153,cs),
(601,201,o),
(653,538,o),
(707,860,cs),
(862,1729,l),
(503,1729,ls),
(451,1729,o),
(438,1753,o),
(438,1784,cs),
(438,1815,o),
(451,1839,o),
(503,1839,cs),
(1363,1839,ls),
(1414,1839,o),
(1427,1815,o),
(1427,1784,cs),
(1427,1753,o),
(1415,1729,o),
(1363,1729,cs),
(987,1729,l),
(829,850,ls),
(756,430,o),
(680,93,o),
(304,38,cs),
(249,31,o),
(-4,19,o),
(-90,19,cs)
);
}
);
vertWidth = 0;
width = 1055;
},
{
anchors = (
{
name = bottom;
pos = (630,0);
},
{
name = top;
pos = (957,1857);
}
);
layerId = "140DECC1-64C4-40C0-9C07-503DBC3F4160";
shapes = (
{
closed = 1;
nodes = (
(179,-18,o),
(428,-14,o),
(480,-6,cs),
(1015,58,o),
(1010,450,o),
(1082,836,cs),
(1215,1582,l),
(1490,1582,ls),
(1593,1582,o),
(1650,1648,o),
(1650,1733,cs),
(1650,1823,o),
(1585,1876,o),
(1492,1876,cs),
(670,1876,ls),
(572,1876,o),
(507,1820,o),
(507,1733,cs),
(507,1643,o),
(571,1582,o),
(665,1582,cs),
(886,1582,l),
(761,879,ls),
(711,575,o),
(685,317,o),
(469,290,cs),
(401,281,o),
(154,276,o),
(94,276,cs),
(16,276,o),
(-64,213,o),
(-64,128,cs),
(-64,39,o),
(17,-18,o),
(94,-18,cs)
);
},
{
closed = 1;
nodes = (
(31,19,o),
(-27,60,o),
(-27,128,cs),
(-27,192,o),
(31,239,o),
(94,239,cs),
(154,239,o),
(404,244,o),
(475,253,cs),
(719,284,o),
(748,570,o),
(798,873,cs),
(931,1619,l),
(665,1619,ls),
(588,1619,o),
(544,1661,o),
(544,1733,cs),
(544,1801,o),
(587,1839,o),
(670,1839,cs),
(1492,1839,ls),
(1570,1839,o),
(1613,1804,o),
(1613,1733,cs),
(1613,1664,o),
(1573,1619,o),
(1490,1619,cs),
(1183,1619,l),
(1045,844,ls),
(973,453,o),
(979,92,o),
(475,31,cs),
(425,23,o),
(179,19,o),
(94,19,cs)
);
}
);
vertWidth = 0;
width = 1399;
}
);
metricLeft = J;
metricWidth = J;
},
{
color = 5;
glyphname = K.ss02;
lastChange = "2023-10-27 06:08:01 +0000";
layers = (
{
anchors = (
{
name = bottom;
pos = (670,0);
},
{
name = top;
pos = (997,1857);
}
);
layerId = m01;
shapes = (
{
closed = 1;
nodes = (
(1261,0,o),
(1302,32,o),
(1302,73,cs),
(1302,98,o),
(1291,118,o),
(1267,151,cs),
(630,994,l),
(1546,1708,ls),
(1581,1735,o),
(1602,1756,o),
(1602,1796,cs),
(1602,1823,o),
(1579,1857,o),
(1539,1857,cs),
(1512,1857,o),
(1480,1847,o),
(1444,1819,cs),
(531,1102,l),
(649,1758,ls),
(659,1814,o),
(645,1857,o),
(582,1857,cs),
(520,1857,o),
(499,1821,o),
(491,1773,cs),
(193,102,ls),
(185,54,o),
(209,0,o),
(266,0,cs),
(333,0,o),
(347,57,o),
(354,96,cs),
(498,914,l),
(1133,59,ls),
(1155,30,o),
(1181,0,o),
(1223,0,cs)
);
},
{
closed = 1;
nodes = (
(1189,19,o),
(1169,42,o),
(1147,69,cs),
(506,933,ls),
(490,956,o),
(487,956,o),
(483,932,cs),
(335,99,ls),
(329,61,o),
(319,19,o),
(266,19,cs),
(222,19,o),
(203,58,o),
(210,98,cs),
(508,1770,ls),
(516,1814,o),
(531,1839,o),
(582,1839,cs),
(630,1839,o),
(640,1812,o),
(630,1761,cs),
(511,1090,ls),
(506,1064,o),
(510,1062,o),
(536,1082,cs),
(1455,1806,ls),
(1489,1832,o),
(1516,1839,o),
(1537,1839,cs),
(1568,1839,o),
(1583,1817,o),
(1583,1796,cs),
(1583,1764,o),
(1569,1748,o),
(1535,1721,cs),
(604,998,l),
(1252,140,ls),
(1275,109,o),
(1283,93,o),
(1283,73,cs),
(1283,43,o),
(1254,19,o),
(1223,19,cs)
);
}
);
vertWidth = 0;
width = 1413;
},
{
anchors = (
{
name = bottom;
pos = (687,0);
},
{
name = top;
pos = (1014,1857);
}
);
layerId = "140DECC1-64C4-40C0-9C07-503DBC3F4160";
shapes = (
{
closed = 1;
nodes = (
(1349,-18,o),
(1415,54,o),
(1415,135,cs),
(1415,177,o),
(1400,223,o),
(1379,253,cs),
(870,977,l),
(1635,1603,ls),
(1679,1639,o),
(1714,1686,o),
(1714,1746,cs),
(1714,1814,o),
(1663,1876,o),
(1567,1876,cs),
(1517,1876,o),
(1456,1859,o),
(1408,1819,cs),
(667,1215,l),
(755,1703,ls),
(778,1831,o),
(686,1876,o),
(610,1876,cs),
(530,1876,o),
(451,1835,o),
(434,1744,cs),
(153,156,ls),
(136,61,o),
(207,-18,o),
(308,-18,cs),
(406,-18,o),
(460,44,o),
(474,124,cs),
(594,800,l),
(1107,62,ls),
(1142,12,o),
(1203,-18,o),
(1261,-18,cs)
);
},
{
closed = 1;
nodes = (
(1213,19,o),
(1166,42,o),
(1138,82,cs),
(614,837,ls),
(581,883,o),
(571,881,o),
(562,828,cs),
(437,131,ls),
(425,64,o),
(387,19,o),
(308,19,cs),
(226,19,o),
(176,75,o),
(190,151,cs),
(471,1736,ls),
(484,1809,o),
(542,1839,o),
(610,1839,cs),
(675,1839,o),
(736,1808,o),
(718,1708,cs),
(626,1190,ls),
(616,1135,o),
(621,1128,o),
(679,1176,cs),
(1432,1790,ls),
(1474,1824,o),
(1524,1839,o),
(1567,1839,cs),
(1643,1839,o),
(1677,1798,o),
(1677,1746,cs),
(1677,1700,o),
(1652,1664,o),
(1611,1631,cs),
(820,984,l),
(1347,233,ls),
(1366,206,o),
(1378,169,o),
(1378,135,cs),
(1378,70,o),
(1331,19,o),
(1261,19,cs)
);
}
);
vertWidth = 0;
width = 1467;
}
);
metricLeft = K;
metricWidth = K;
},
{
color = 5;
glyphname = L.ss02;
lastChange = "2023-10-27 06:08:01 +0000";
layers = (
{
anchors = (
{
name = bottom;
pos = (675,0);
},
{
name = center;
pos = (838,929);
},
{
name = top;
pos = (1002,1857);
},
{
name = topright;
pos = (1652,1857);
}
);
layerId = m01;
shapes = (
{
closed = 1;
nodes = (
(1221,0,ls),
(1279,0,o),
(1303,46,o),
(1303,83,cs),
(1303,122,o),
(1277,150,o),
(1221,150,cs),
(366,150,l),
(651,1758,ls),
(660,1813,o),
(650,1857,o),
(584,1857,cs),
(521,1857,o),
(497,1821,o),
(489,1774,cs),
(194,87,ls),
(184,39,o),
(211,0,o),
(267,0,cs)
);
},
{
closed = 1;
nodes = (
(223,19,o),
(204,44,o),
(212,83,cs),
(506,1770,ls),
(517,1814,o),
(532,1839,o),
(584,1839,cs),
(634,1839,o),
(642,1812,o),
(632,1761,cs),
(344,131,l),
(1221,131,ls),
(1269,131,o),
(1284,113,o),
(1284,83,cs),
(1284,52,o),
(1267,19,o),
(1221,19,cs),
(267,19,ls)
);
}
);
vertWidth = 0;
width = 1290;
},
{
anchors = (
{
name = bottom;
pos = (695,0);
},
{
name = center;
pos = (858,929);
},
{
name = top;
pos = (1022,1857);
},
{
name = topright;
pos = (1740,1857);
}
);
layerId = "140DECC1-64C4-40C0-9C07-503DBC3F4160";
shapes = (
{
closed = 1;
nodes = (
(1283,-18,ls),
(1379,-18,o),
(1445,54,o),
(1445,132,cs),
(1445,210,o),
(1379,276,o),
(1283,276,cs),
(506,276,l),
(760,1703,l),
(780,1839,o),
(700,1876,o),
(621,1876,cs),
(530,1876,o),
(453,1835,o),
(436,1744,cs),
(152,142,ls),
(137,52,o),
(198,-18,o),
(294,-18,cs)
);
},
{
closed = 1;
nodes = (
(218,19,o),
(176,66,o),
(189,137,cs),
(473,1736,ls),
(486,1809,o),
(541,1839,o),
(621,1839,cs),
(690,1839,o),
(740,1815,o),
(723,1708,cs),
(461,239,l),
(1283,239,ls),
(1361,239,o),
(1408,192,o),
(1408,132,cs),
(1408,70,o),
(1360,19,o),
(1283,19,cs),
(294,19,ls)
);
}
);
vertWidth = 0;
width = 1408;
}
);
metricLeft = L;
metricWidth = L;
},
{
color = 5;
glyphname = M.ss02;
lastChange = "2023-10-27 01:46:19 +0000";
layers = (
{
anchors = (
{
name = bottom;
pos = (1063,0);
},
{
name = top;
pos = (1390,1857);
}
);
layerId = m01;
shapes = (
{
closed = 1;
nodes = (
(54,0,o),
(94,23,o),
(122,77,cs),
(876,1539,l),
(986,77,ls),
(988,47,o),
(1002,0,o),
(1073,0,cs),
(1134,0,o),
(1159,53,o),
(1170,74,cs),
(1929,1544,l),
(2041,78,ls),
(2044,47,o),
(2059,0,o),
(2127,0,cs),
(2178,0,o),
(2205,36,o),
(2200,84,cs),
(2061,1770,ls),
(2058,1818,o),
(2047,1857,o),
(1981,1857,cs),
(1913,1857,o),
(1894,1809,o),
(1877,1778,cs),
(1120,304,l),
(1007,1797,ls),
(1003,1820,o),
(985,1857,o),
(926,1857,cs),
(873,1857,o),
(851,1821,o),
(832,1783,cs),
(-36,120,ls),
(-72,46,o),
(-30,0,o),
(22,0,cs)
);
},
{
closed = 1;
nodes = (
(-21,19,o),
(-50,51,o),
(-19,112,cs),
(848,1775,ls),
(867,1812,o),
(884,1839,o),
(926,1839,cs),
(973,1839,o),
(986,1814,o),
(988,1795,cs),
(1102,287,ls),
(1105,248,o),
(1111,249,o),
(1130,285,cs),
(1894,1770,ls),
(1911,1801,o),
(1925,1839,o),
(1981,1839,cs),
(2034,1839,o),
(2039,1814,o),
(2043,1769,cs),
(2182,82,ls),
(2186,43,o),
(2167,19,o),
(2127,19,cs),
(2073,19,o),
(2061,52,o),
(2059,79,cs),
(1947,1562,ls),
(1944,1599,o),
(1939,1602,o),
(1919,1563,cs),
(1153,82,ls),
(1141,61,o),
(1122,19,o),
(1073,19,cs),
(1016,19,o),
(1007,51,o),
(1004,79,cs),
(893,1557,ls),
(890,1590,o),
(882,1592,o),
(862,1552,cs),
(106,85,ls),
(81,36,o),
(49,19,o),
(22,19,cs)
);
}
);
vertWidth = 0;
width = 2337;
},
{
anchors = (
{
name = bottom;
pos = (1087,0);
},
{
name = top;
pos = (1414,1857);
}
);
layerId = "140DECC1-64C4-40C0-9C07-503DBC3F4160";
shapes = (
{
closed = 1;
nodes = (
(164,-18,o),
(250,10,o),
(288,85,cs),
(858,1203,l),
(941,114,ls),
(947,41,o),
(1005,-18,o),
(1101,-18,cs),
(1226,-18,o),
(1260,46,o),
(1277,80,cs),
(1856,1205,l),
(1935,115,ls),
(1940,44,o),
(2009,-18,o),
(2107,-18,cs),
(2199,-18,o),
(2263,48,o),
(2256,134,cs),
(2125,1734,ls),
(2118,1820,o),
(2097,1876,o),
(1982,1876,cs),
(1890,1876,o),
(1835,1838,o),
(1800,1770,cs),
(1211,630,l),
(1130,1733,ls),
(1124,1823,o),
(1084,1876,o),
(955,1876,cs),
(867,1876,o),
(837,1835,o),
(804,1772,cs),
(-21,191,ls),
(-79,81,o),
(8,-18,o),
(105,-18,cs)
);
},
{
closed = 1;
nodes = (
(29,19,o),
(-34,88,o),
(12,175,cs),
(837,1756,ls),
(867,1814,o),
(887,1839,o),
(955,1839,cs),
(1064,1839,o),
(1088,1807,o),
(1093,1732,cs),
(1176,586,ls),
(1182,511,o),
(1189,511,o),
(1229,586,cs),
(1833,1753,ls),
(1863,1810,o),
(1903,1839,o),
(1982,1839,cs),
(2071,1839,o),
(2082,1809,o),
(2088,1731,cs),
(2219,130,ls),
(2224,64,o),
(2182,19,o),
(2107,19,cs),
(2026,19,o),
(1976,64,o),
(1972,117,cs),
(1890,1261,ls),
(1885,1329,o),
(1879,1329,o),
(1841,1256,cs),
(1244,97,ls),
(1227,64,o),
(1203,19,o),
(1101,19,cs),
(1024,19,o),
(983,59,o),
(978,117,cs),
(892,1252,ls),
(887,1326,o),
(880,1325,o),
(843,1252,cs),
(255,102,ls),
(225,42,o),
(156,19,o),
(105,19,cs)
);
}
);
vertWidth = 0;
width = 2318;
}
);
metricLeft = M;
metricWidth = M;
},
{
color = 5;
glyphname = N.ss02;
lastChange = "2023-10-27 06:08:01 +0000";
layers = (
{
anchors = (
{
name = bottom;
pos = (733,0);
},
{
name = top;
pos = (1060,1857);
}
);
layerId = m01;
shapes = (
{
closed = 1;
nodes = (
(335,0,o),
(347,52,o),
(354,87,cs),
(605,1523,l),
(1141,56,ls),
(1152,27,o),
(1181,0,o),
(1225,0,cs),
(1293,0,o),
(1299,51,o),
(1304,80,cs),
(1599,1758,ls),
(1608,1813,o),
(1598,1857,o),
(1535,1857,cs),
(1475,1857,o),
(1451,1821,o),
(1443,1773,cs),
(1192,359,l),
(678,1795,ls),
(667,1822,o),
(635,1857,o),
(579,1857,cs),
(514,1857,o),
(496,1820,o),
(488,1774,cs),
(193,87,ls),
(185,39,o),
(210,0,o),
(266,0,cs)
);
},
{
closed = 1;
nodes = (
(221,19,o),
(204,44,o),
(210,83,cs),
(505,1770,ls),
(513,1815,o),
(527,1839,o),
(579,1839,cs),
(627,1839,o),
(652,1812,o),
(660,1788,cs),
(1183,329,ls),
(1194,298,o),
(1199,298,o),
(1205,329,cs),
(1461,1770,ls),
(1468,1813,o),
(1486,1839,o),
(1535,1839,cs),
(1582,1839,o),
(1591,1812,o),
(1581,1761,cs),
(1286,82,ls),
(1282,54,o),
(1277,19,o),
(1225,19,cs),
(1189,19,o),
(1168,38,o),
(1159,63,cs),
(615,1550,ls),
(603,1584,o),
(597,1584,o),
(592,1550,cs),
(335,90,ls),
(330,56,o),
(321,19,o),
(266,19,cs)
);
}
);
vertWidth = 0;
width = 1603;
},
{
anchors = (
{
name = bottom;
pos = (766,0);
},
{
name = top;
pos = (1093,1857);
}
);
layerId = "140DECC1-64C4-40C0-9C07-503DBC3F4160";
shapes = (
{
closed = 1;
nodes = (
(398,-18,o),
(463,44,o),
(475,117,cs),
(653,1193,l),
(1123,72,ls),
(1148,14,o),
(1197,-18,o),
(1277,-18,cs),
(1386,-18,o),
(1419,48,o),
(1431,112,cs),
(1710,1702,ls),
(1728,1804,o),
(1675,1885,o),
(1568,1885,cs),
(1481,1885,o),
(1406,1834,o),
(1391,1743,cs),
(1212,657,l),
(741,1781,ls),
(712,1850,o),
(654,1876,o),
(589,1876,cs),
(508,1876,o),
(452,1831,o),
(436,1743,cs),
(152,143,ls),
(136,52,o),
(200,-18,o),
(293,-18,cs)
);
},
{
closed = 1;
nodes = (
(220,19,o),
(177,66,o),
(189,136,cs),
(473,1737,ls),
(486,1808,o),
(523,1839,o),
(589,1839,cs),
(642,1839,o),
(684,1820,o),
(707,1766,cs),
(1194,603,ls),
(1223,533,o),
(1229,533,o),
(1241,608,cs),
(1428,1737,ls),
(1440,1810,o),
(1494,1848,o),
(1568,1848,cs),
(1652,1848,o),
(1688,1794,o),
(1673,1709,cs),
(1394,119,ls),
(1383,61,o),
(1361,19,o),
(1277,19,cs),
(1210,19,o),
(1176,40,o),
(1157,87,cs),
(671,1247,ls),
(642,1315,o),
(636,1314,o),
(624,1243,cs),
(438,123,ls),
(429,65,o),
(382,19,o),
(293,19,cs)
);
}
);
vertWidth = 0;
width = 1676;
}
);
metricLeft = N;
metricWidth = N;
},
{
color = 5;
glyphname = O.ss02;
lastChange = "2023-10-27 01:46:19 +0000";
layers = (
{
anchors = (
{
name = bottom;
pos = (668,0);
},
{
name = center;
pos = (831,929);
},
{
name = ogonek;
pos = (1276,10);
},
{
name = top;
pos = (995,1857);
},
{
name = topleft;
pos = (257,1857);
},
{
name = topright;
pos = (1733,1857);
}
);
layerId = m01;
shapes = (
{
closed = 1;
nodes = (
(1209,0,o),
(1429,731,o),
(1495,1103,cs),
(1579,1573,o),
(1425,1857,o),
(1016,1857,cs),
(507,1857,o),
(288,1335,o),
(221,943,cs),
(142,480,o),
(219,0,o),
(717,0,cs)
);
},
{
closed = 1;
nodes = (
(235,19,o),
(161,481,o),
(239,939,cs),
(306,1329,o),
(519,1839,o),
(1016,1839,cs),
(1413,1839,o),
(1559,1568,o),
(1476,1106,cs),
(1411,735,o),
(1195,19,o),
(717,19,cs)
);
},
{
closed = 1;
nodes = (
(318,580,o),
(346,150,o),
(714,150,cs),
(1036,150,o),
(1281,779,o),
(1336,1090,cs),
(1393,1410,o),
(1370,1710,o),
(1002,1710,cs),
(596,1710,o),
(422,1155,o),
(377,910,cs)
);
},
{
closed = 1;
nodes = (
(404,1160,o),
(583,1729,o),
(1002,1729,cs),
(1387,1729,o),
(1411,1410,o),
(1353,1087,cs),
(1299,773,o),
(1050,131,o),
(714,131,cs),
(328,131,o),
(300,581,o),
(360,914,cs)
);
}
);
vertWidth = 0;
width = 1525;
},
{
anchors = (
{
name = bottom;
pos = (755,0);
},
{
name = center;
pos = (918,929);
},
{
name = ogonek;
pos = (1431,10);
},
{
name = top;
pos = (1082,1857);
},
{
name = topleft;
pos = (259,1857);
},
{
name = topright;
pos = (1905,1857);
}
);
layerId = "140DECC1-64C4-40C0-9C07-503DBC3F4160";
shapes = (
{
closed = 1;
nodes = (
(1241,-18,o),
(1569,413,o),
(1692,1104,cs),
(1774,1582,o),
(1617,1876,o),
(1127,1876,cs),
(650,1876,o),
(353,1560,o),
(242,944,cs),
(139,353,o),
(361,-18,o),
(823,-18,cs)
);
},
{
closed = 1;
nodes = (
(384,19,o),
(179,364,o),
(279,938,cs),
(387,1541,o),
(669,1839,o),
(1127,1839,cs),
(1592,1839,o),
(1735,1573,o),
(1655,1109,cs),
(1535,431,o),
(1221,19,o),
(823,19,cs)
);
},
{
closed = 1;
nodes = (
(492,507,o),
(590,276,o),
(821,276,cs),
(1071,276,o),
(1280,583,o),
(1368,1092,cs),
(1426,1414,o),
(1403,1582,o),
(1112,1582,cs),
(825,1582,o),
(644,1361,o),
(561,909,cs)
);
},
{
closed = 1;
nodes = (
(610,1379,o),
(806,1619,o),
(1112,1619,cs),
(1437,1619,o),
(1463,1417,o),
(1405,1087,cs),
(1315,566,o),
(1093,239,o),
(821,239,cs),
(564,239,o),
(453,500,o),
(524,915,cs)
);
}
);
vertWidth = 0;
width = 1648;
}
);
metricLeft = O;
metricWidth = O;
},
{
color = 5;
glyphname = P.ss02;
kernRight = P;
lastChange = "2024-03-07 21:58:01 +0000";
layers = (
{
anchors = (
{
name = bottom;
pos = (652,0);
},
{
name = top;
pos = (979,1857);
}
);
layerId = m01;
shapes = (
{
closed = 1;
nodes = (
(336,0,o),
(346,51,o),
(351,80,cs),
(501,924,l),
(1058,929,o),
(1483,991,o),
(1535,1381,cs),
(1579,1708,o),
(1197,1857,o),
(586,1857,cs),
(518,1857,o),
(499,1821,o),
(491,1774,cs),
(193,87,ls),
(185,39,o),
(211,0,o),
(267,0,cs)
);
},
{
closed = 1;
nodes = (
(222,19,o),
(205,44,o),
(211,83,cs),
(509,1770,ls),
(517,1814,o),
(530,1839,o),
(586,1839,cs),
(1192,1839,o),
(1557,1695,o),
(1517,1384,cs),
(1467,1004,o),
(1048,946,o),
(486,942,c),
(334,82,ls),
(329,54,o),
(322,19,o),
(267,19,cs)
);
},
{
closed = 1;
nodes = (
(980,1079,o),
(1345,1138,o),
(1377,1399,cs),
(1399,1578,o),
(1191,1702,o),
(640,1710,c),
(528,1073,l)
);
},
{
closed = 1;
nodes = (
(624,1729,l),
(1194,1723,o),
(1418,1591,o),
(1394,1396,cs),
(1360,1116,o),
(970,1059,o),
(506,1055,c)
);
}
);
vertWidth = 0;
width = 1375;
},
{
anchors = (
{
name = bottom;
pos = (708,0);
},
{
name = top;
pos = (1035,1857);
}
);
layerId = "140DECC1-64C4-40C0-9C07-503DBC3F4160";
shapes = (
{
closed = 1;
nodes = (
(412,-18,o),
(466,38,o),
(478,107,cs),
(604,826,l),
(1108,839,o),
(1579,851,o),
(1647,1333,cs),
(1704,1734,o),
(1311,1876,o),
(606,1876,cs),
(511,1876,o),
(451,1834,o),
(435,1744,cs),
(152,141,ls),
(137,52,o),
(200,-18,o),
(305,-18,cs)
);
},
{
closed = 1;
nodes = (
(220,19,o),
(177,66,o),
(189,133,cs),
(472,1736,ls),
(485,1810,o),
(525,1839,o),
(606,1839,cs),
(1302,1839,o),
(1664,1708,o),
(1610,1338,cs),
(1545,875,o),
(1085,873,o),
(572,863,c),
(441,115,ls),
(431,56,o),
(392,19,o),
(305,19,cs)
);
},
{
closed = 1;
nodes = (
(1024,1137,o),
(1308,1139,o),
(1334,1351,cs),
(1354,1515,o),
(1291,1587,o),
(738,1588,c),
(656,1122,l)
);
},
{
closed = 1;
nodes = (
(706,1625,l),
(1310,1627,o),
(1394,1534,o),
(1371,1348,cs),
(1340,1097,o),
(1004,1094,o),
(611,1083,c)
);
}
);
vertWidth = 0;
width = 1508;
}
);
metricLeft = P;
metricWidth = P;
},
{
color = 5;
glyphname = Q.ss02;
lastChange = "2023-10-27 01:46:19 +0000";
layers = (
{
anchors = (
{
name = bottom;
pos = (669,0);
},
{
name = top;
pos = (996,1857);
}
);
layerId = m01;
shapes = (
{
closed = 1;
nodes = (
(795,-1,o),
(867,18,o),
(930,49,c),
(1080,-168,ls),
(1112,-214,o),
(1162,-241,o),
(1202,-216,cs),
(1249,-191,o),
(1249,-130,o),
(1222,-93,cs),
(1062,140,l),
(1318,370,o),
(1448,831,o),
(1496,1102,cs),
(1580,1572,o),
(1426,1856,o),
(1017,1856,cs),
(508,1856,o),
(289,1334,o),
(222,941,cs),
(143,479,o),
(220,-1,o),
(718,-1,cs)
);
},
{
closed = 1;
nodes = (
(236,18,o),
(162,480,o),
(240,938,cs),
(307,1328,o),
(520,1838,o),
(1017,1838,cs),
(1414,1838,o),
(1560,1567,o),
(1477,1105,cs),
(1430,831,o),
(1298,365,o),
(1038,142,c),
(1207,-105,ls),
(1229,-135,o),
(1229,-181,o),
(1193,-201,cs),
(1162,-219,o),
(1124,-199,o),
(1096,-158,cs),
(936,73,l),
(870,37,o),
(797,18,o),
(718,18,cs)
);
},
{
closed = 1;
nodes = (
(319,579,o),
(347,148,o),
(715,148,cs),
(758,148,o),
(800,160,o),
(841,180,c),
(786,260,ls),
(753,308,o),
(747,348,o),
(784,377,cs),
(830,414,o),
(886,394,o),
(918,350,cs),
(967,278,l),
(1161,480,o),
(1298,867,o),
(1337,1089,cs),
(1394,1409,o),
(1371,1709,o),
(1003,1709,cs),
(597,1709,o),
(423,1154,o),
(378,909,cs)
);
},
{
closed = 1;
nodes = (
(405,1159,o),
(584,1728,o),
(1003,1728,cs),
(1388,1728,o),
(1412,1409,o),
(1354,1085,cs),
(1314,857,o),
(1169,450,o),
(964,250,c),
(902,339,ls),
(875,377,o),
(832,393,o),
(796,363,cs),
(768,340,o),
(771,314,o),
(801,271,cs),
(867,175,l),
(819,146,o),
(768,130,o),
(715,130,cs),
(329,130,o),
(301,579,o),
(361,913,cs)
);
}
);
vertWidth = 0;
width = 1509;
},
{
anchors = (
{
name = bottom;
pos = (755,0);
},
{
name = top;
pos = (1082,1857);
}
);
layerId = "140DECC1-64C4-40C0-9C07-503DBC3F4160";
shapes = (
{
closed = 1;
nodes = (
(883,-18,o),
(944,-9,o),
(1001,8,c),
(1110,-152,ls),
(1166,-237,o),
(1266,-265,o),
(1338,-217,cs),
(1412,-171,o),
(1428,-78,o),
(1377,-2,cs),
(1263,167,l),
(1464,356,o),
(1616,682,o),
(1691,1104,cs),
(1773,1582,o),
(1616,1876,o),
(1126,1876,cs),
(649,1876,o),
(352,1560,o),
(241,944,cs),
(138,353,o),
(360,-18,o),
(822,-18,cs)
);
},
{
closed = 1;
nodes = (
(383,19,o),
(178,364,o),
(278,938,cs),
(386,1541,o),
(668,1839,o),
(1126,1839,cs),
(1591,1839,o),
(1734,1573,o),
(1654,1109,cs),
(1577,677,o),
(1422,353,o),
(1215,173,c),
(1346,-22,ls),
(1388,-84,o),
(1376,-150,o),
(1318,-186,cs),
(1263,-223,o),
(1189,-203,o),
(1141,-131,cs),
(1016,53,l),
(953,30,o),
(889,19,o),
(822,19,cs)
);
},
{
closed = 1;
nodes = (
(491,507,o),
(589,276,o),
(820,276,cs),
(820,276,o),
(820,276,o),
(819,276,c),
(810,289,ls),
(759,363,o),
(772,462,o),
(843,511,cs),
(915,562,o),
(1016,536,o),
(1072,450,cs),
(1094,417,l),
(1218,556,o),
(1314,787,o),
(1367,1092,cs),
(1425,1414,o),
(1402,1582,o),
(1111,1582,cs),
(824,1582,o),
(643,1361,o),
(560,909,cs)
);
},
{
closed = 1;
nodes = (
(609,1379,o),
(805,1619,o),
(1111,1619,cs),
(1436,1619,o),
(1462,1417,o),
(1404,1087,cs),
(1346,751,o),
(1233,497,o),
(1090,359,c),
(1041,430,ls),
(993,501,o),
(920,521,o),
(865,481,cs),
(809,442,o),
(799,370,o),
(840,309,cs),
(887,242,l),
(863,242,o),
(844,239,o),
(820,239,cs),
(563,239,o),
(452,500,o),
(523,915,cs)
);
}
);
vertWidth = 0;
width = 1647;
}
);
metricLeft = Q;
metricWidth = Q;
},
{
color = 5;
glyphname = R.ss02;
lastChange = "2023-10-27 06:08:01 +0000";
layers = (
{
anchors = (
{
name = bottom;
pos = (662,0);
},
{
name = top;
pos = (989,1857);
}
);
layerId = m01;
shapes = (
{
closed = 1;
nodes = (
(334,0,o),
(345,52,o),
(352,95,cs),
(493,884,l),
(1147,54,ls),
(1177,15,o),
(1208,0,o),
(1233,0,cs),
(1300,0,o),
(1329,74,o),
(1265,155,cs),
(659,927,l),
(1123,945,o),
(1488,1035,o),
(1533,1380,cs),
(1576,1707,o),
(1206,1857,o),
(584,1857,cs),
(516,1857,o),
(497,1821,o),
(489,1774,cs),
(194,104,ls),
(185,52,o),
(208,0,o),
(265,0,cs)
);
},
{
closed = 1;
nodes = (
(221,19,o),
(205,56,o),
(212,100,cs),
(507,1770,ls),
(515,1814,o),
(528,1839,o),
(584,1839,cs),
(1199,1839,o),
(1555,1695,o),
(1515,1384,cs),
(1471,1047,o),
(1114,963,o),
(649,945,cs),
(626,944,o),
(624,939,o),
(637,922,cs),
(1251,143,ls),
(1307,73,o),
(1286,19,o),
(1233,19,cs),
(1213,19,o),
(1188,31,o),
(1160,66,cs),
(502,898,ls),
(482,922,o),
(480,920,o),
(475,894,cs),
(334,99,ls),
(327,56,o),
(320,19,o),
(265,19,cs)
);
},
{
closed = 1;
nodes = (
(975,1079,o),
(1341,1141,o),
(1375,1398,cs),
(1399,1582,o),
(1154,1702,o),
(638,1710,c),
(526,1073,l)
);
},
{
closed = 1;
nodes = (
(622,1729,l),
(1156,1723,o),
(1419,1596,o),
(1393,1395,cs),
(1357,1119,o),
(965,1059,o),
(504,1055,c)
);
}
);
vertWidth = 0;
width = 1398;
},
{
anchors = (
{
name = bottom;
pos = (686,0);
},
{
name = top;
pos = (1013,1857);
}
);
layerId = "140DECC1-64C4-40C0-9C07-503DBC3F4160";
shapes = (
{
closed = 1;
nodes = (
(380,-18,o),
(462,53,o),
(479,149,cs),
(583,746,l),
(1115,53,ls),
(1165,-13,o),
(1237,-18,o),
(1275,-18,cs),
(1381,-18,o),
(1479,111,o),
(1359,267,cs),
(916,845,l),
(1289,891,o),
(1588,1022,o),
(1649,1363,cs),
(1715,1735,o),
(1307,1876,o),
(606,1876,cs),
(510,1876,o),
(447,1834,o),
(431,1744,cs),
(153,156,ls),
(137,65,o),
(176,-18,o),
(282,-18,cs)
);
},
{
closed = 1;
nodes = (
(202,19,o),
(176,72,o),
(190,151,cs),
(468,1736,ls),
(481,1810,o),
(523,1839,o),
(606,1839,cs),
(1299,1839,o),
(1672,1709,o),
(1612,1370,cs),
(1553,1040,o),
(1264,921,o),
(887,880,cs),
(849,875,o),
(845,870,o),
(874,833,cs),
(1331,243,ls),
(1433,112,o),
(1358,19,o),
(1275,19,cs),
(1241,19,o),
(1183,24,o),
(1143,77,cs),
(603,776,ls),
(565,825,o),
(562,821,o),
(553,771,cs),
(443,154,ls),
(430,74,o),
(364,19,o),
(282,19,cs)
);
},
{
closed = 1;
nodes = (
(1027,1136,o),
(1305,1203,o),
(1334,1375,cs),
(1356,1508,o),
(1223,1582,o),
(733,1582,c),
(652,1122,l)
);
},
{
closed = 1;
nodes = (
(701,1619,l),
(1231,1622,o),
(1400,1535,o),
(1371,1370,cs),
(1335,1163,o),
(1009,1093,o),
(607,1083,c)
);
}
);
vertWidth = 0;
width = 1469;
}
);
metricLeft = R;
metricWidth = R;
},
{
color = 5;
glyphname = S.ss02;
lastChange = "2023-10-27 01:46:18 +0000";
layers = (
{
anchors = (
{
name = bottom;
pos = (551,0);
},
{
name = top;
pos = (878,1857);
}
);
layerId = m01;
shapes = (
{
closed = 1;
nodes = (
(899,0,o),
(1137,216,o),
(1137,564,cs),
(1137,746,o),
(1003,916,o),
(802,1058,cs),
(592,1203,o),
(468,1289,o),
(468,1415,cs),
(468,1597,o),
(640,1710,o),
(923,1710,cs),
(1113,1710,o),
(1155,1659,o),
(1171,1557,cs),
(1176,1511,o),
(1242,1502,o),
(1277,1511,cs),
(1328,1524,o),
(1327,1572,o),
(1323,1601,cs),
(1288,1788,o),
(1169,1857,o),
(926,1857,cs),
(546,1857,o),
(311,1684,o),
(311,1408,cs),
(311,1205,o),
(477,1095,o),
(677,950,cs),
(900,791,o),
(976,678,o),
(976,545,cs),
(976,299,o),
(803,150,o),
(518,150,cs),
(356,150,o),
(278,201,o),
(255,302,cs),
(245,345,o),
(201,363,o),
(163,352,cs),
(114,338,o),
(99,288,o),
(104,258,cs),
(133,89,o),
(290,0,o),
(518,0,cs)
);
},
{
closed = 1;
nodes = (
(296,19,o),
(150,101,o),
(122,261,cs),
(118,285,o),
(129,323,o),
(168,334,cs),
(198,343,o),
(229,331,o),
(237,298,cs),
(262,189,o),
(349,131,o),
(518,131,cs),
(811,131,o),
(994,290,o),
(994,545,cs),
(994,684,o),
(914,804,o),
(687,965,cs),
(487,1110,o),
(329,1215,o),
(329,1408,cs),
(329,1674,o),
(554,1839,o),
(926,1839,cs),
(1163,1839,o),
(1272,1775,o),
(1305,1598,cs),
(1310,1571,o),
(1310,1538,o),
(1273,1528,cs),
(1242,1522,o),
(1193,1527,o),
(1189,1559,cs),
(1172,1667,o),
(1124,1729,o),
(923,1729,cs),
(634,1729,o),
(449,1610,o),
(449,1415,cs),
(449,1279,o),
(582,1188,o),
(791,1043,cs),
(990,903,o),
(1119,740,o),
(1119,564,cs),
(1119,225,o),
(891,19,o),
(518,19,cs)
);
}
);
vertWidth = 0;
width = 1268;
},
{
anchors = (
{
name = bottom;
pos = (594,0);
},
{
name = top;
pos = (921,1857);
}
);
layerId = "140DECC1-64C4-40C0-9C07-503DBC3F4160";
shapes = (
{
closed = 1;
nodes = (
(956,-18,o),
(1264,249,o),
(1264,606,cs),
(1264,776,o),
(1199,904,o),
(900,1115,cs),
(755,1219,o),
(581,1315,o),
(581,1393,cs),
(581,1519,o),
(704,1582,o),
(971,1582,cs),
(1092,1582,o),
(1144,1556,o),
(1154,1500,cs),
(1172,1400,o),
(1274,1378,o),
(1342,1397,c),
(1423,1424,o),
(1452,1494,o),
(1439,1570,cs),
(1400,1790,o),
(1251,1876,o),
(1015,1876,cs),
(524,1876,o),
(267,1714,o),
(267,1393,cs),
(267,1109,o),
(537,990,o),
(688,881,cs),
(899,726,o),
(956,675,o),
(956,575,cs),
(956,405,o),
(806,276,o),
(598,276,cs),
(458,276,o),
(376,312,o),
(366,357,cs),
(347,455,o),
(249,472,o),
(183,459,cs),
(96,441,o),
(64,365,o),
(80,288,cs),
(113,98,o),
(295,-18,o),
(550,-18,cs)
);
},
{
closed = 1;
nodes = (
(308,19,o),
(146,122,o),
(117,295,c),
(103,359,o),
(125,409,o),
(191,422,cs),
(247,434,o),
(315,422,o),
(329,350,cs),
(344,283,o),
(448,239,o),
(598,239,cs),
(821,239,o),
(993,386,o),
(993,575,cs),
(993,693,o),
(923,755,o),
(710,910,cs),
(555,1022,o),
(304,1133,o),
(304,1393,cs),
(304,1691,o),
(537,1839,o),
(1015,1839,cs),
(1239,1839,o),
(1366,1764,o),
(1402,1562,cs),
(1413,1501,o),
(1393,1453,o),
(1331,1432,c),
(1274,1417,o),
(1203,1433,o),
(1191,1508,cs),
(1177,1584,o),
(1103,1619,o),
(971,1619,cs),
(692,1619,o),
(544,1544,o),
(544,1393,cs),
(544,1291,o),
(734,1188,o),
(878,1085,cs),
(1168,881,o),
(1227,765,o),
(1227,606,cs),
(1227,268,o),
(941,19,o),
(550,19,cs)
);
}
);
vertWidth = 0;
width = 1326;
}
);
metricLeft = S;
metricWidth = S;
},
{
color = 5;
glyphname = T.ss02;
kernLeft = T;
kernRight = T;
lastChange = "2024-03-07 21:53:27 +0000";
layers = (
{
anchors = (
{
name = bottom;
pos = (491,0);
},
{
name = center;
pos = (654,929);
},
{
name = top;
pos = (818,1857);
}
);
layerId = m01;
shapes = (
{
closed = 1;
nodes = (
(640,0,o),
(651,50,o),
(656,80,cs),
(941,1710,l),
(1409,1710,ls),
(1470,1710,o),
(1489,1746,o),
(1489,1784,cs),
(1489,1820,o),
(1471,1857,o),
(1409,1857,cs),
(314,1857,ls),
(249,1857,o),
(231,1820,o),
(231,1784,cs),
(231,1746,o),
(250,1710,o),
(314,1710,cs),
(779,1710,l),
(498,87,l),
(487,39,o),
(513,0,o),
(571,0,cs)
);
},
{
closed = 1;
nodes = (
(524,19,o),
(507,44,o),
(516,83,c),
(801,1729,l),
(314,1729,ls),
(261,1729,o),
(249,1753,o),
(249,1784,cs),
(249,1815,o),
(262,1839,o),
(314,1839,cs),
(1409,1839,ls),
(1458,1839,o),
(1471,1815,o),
(1471,1784,cs),
(1471,1753,o),
(1459,1729,o),
(1409,1729,cs),
(925,1729,l),
(638,82,ls),
(634,54,o),
(626,19,o),
(571,19,cs)
);
}
);
vertWidth = 0;
width = 1141;
},
{
anchors = (
{
name = bottom;
pos = (524,0);
},
{
name = center;
pos = (687,929);
},
{
name = top;
pos = (851,1857);
}
);
layerId = "140DECC1-64C4-40C0-9C07-503DBC3F4160";
shapes = (
{
closed = 1;
nodes = (
(709,-21,o),
(763,41,o),
(777,107,c),
(1036,1591,l),
(1415,1591,ls),
(1518,1591,o),
(1576,1658,o),
(1576,1734,cs),
(1576,1819,o),
(1512,1885,o),
(1415,1885,cs),
(381,1885,ls),
(284,1885,o),
(220,1819,o),
(220,1734,cs),
(220,1658,o),
(278,1591,o),
(381,1591,cs),
(709,1591,l),
(454,143,ls),
(438,52,o),
(504,-21,o),
(605,-21,cs)
);
},
{
closed = 1;
nodes = (
(524,16,o),
(477,66,o),
(491,136,cs),
(754,1628,l),
(381,1628,ls),
(298,1628,o),
(257,1674,o),
(257,1734,cs),
(257,1802,o),
(302,1848,o),
(381,1848,cs),
(1415,1848,ls),
(1495,1848,o),
(1539,1802,o),
(1539,1734,cs),
(1539,1674,o),
(1499,1628,o),
(1415,1628,cs),
(1005,1628,l),
(740,115,ls),
(729,59,o),
(690,16,o),
(605,16,cs)
);
}
);
vertWidth = 0;
width = 1185;
}
);
metricLeft = T;
metricWidth = T;
},
{
color = 5;
glyphname = U.ss02;
lastChange = "2023-10-27 06:08:01 +0000";
layers = (
{
anchors = (
{
name = bottom;
pos = (679,0);
},
{
name = ogonek;
pos = (1263,10);
},
{
name = top;
pos = (1006,1857);
},
{
name = topright;
pos = (1714,1857);
}
);
layerId = m01;
shapes = (
{
closed = 1;
nodes = (
(680,-13,o),
(1021,356,o),
(1217,819,c),
(1090,86,ls),
(1078,27,o),
(1118,-4,o),
(1163,-4,cs),
(1199,-4,o),
(1240,21,o),
(1248,68,cs),
(1548,1771,ls),
(1558,1819,o),
(1534,1856,o),
(1472,1856,cs),
(1414,1856,o),
(1392,1819,o),
(1384,1782,c),
(1329,1468,l),
(1092,700,o),
(703,136,o),
(436,136,cs),
(313,136,o),
(340,336,o),
(373,517,cs),
(600,1767,ls),
(609,1812,o),
(580,1853,o),
(531,1856,cs),
(480,1856,o),
(446,1813,o),
(439,1765,cs),
(215,526,ls),
(145,152,o),
(238,-13,o),
(412,-13,cs)
);
},
{
closed = 1;
nodes = (
(250,6,o),
(165,157,o),
(233,523,cs),
(456,1762,ls),
(464,1805,o),
(490,1838,o),
(530,1838,cs),
(569,1835,o),
(588,1807,o),
(582,1770,cs),
(355,520,ls),
(322,338,o),
(291,118,o),
(436,118,cs),
(715,118,o),
(1108,693,o),
(1347,1464,c),
(1402,1779,ls),
(1409,1811,o),
(1425,1838,o),
(1472,1838,cs),
(1522,1838,o),
(1538,1814,o),
(1530,1774,cs),
(1229,72,ls),
(1223,33,o),
(1192,15,o),
(1163,15,cs),
(1125,15,o),
(1098,36,o),
(1107,82,cs),
(1240,843,ls),
(1251,907,o),
(1244,925,o),
(1209,846,cs),
(985,344,o),
(663,6,o),
(412,6,cs)
);
}
);
vertWidth = 0;
width = 1543;
},
{
anchors = (
{
name = bottom;
pos = (712,0);
},
{
name = ogonek;
pos = (1362,10);
},
{
name = top;
pos = (1039,1857);
},
{
name = topright;
pos = (1829,1857);
}
);
layerId = "140DECC1-64C4-40C0-9C07-503DBC3F4160";
shapes = (
{
closed = 1;
nodes = (
(678,-31,o),
(914,135,o),
(1106,425,c),
(1056,142,ls),
(1037,35,o),
(1118,-18,o),
(1207,-18,cs),
(1278,-18,o),
(1363,19,o),
(1377,103,cs),
(1661,1718,ls),
(1677,1808,o),
(1615,1876,o),
(1508,1876,cs),
(1418,1876,o),
(1352,1827,o),
(1338,1752,cs),
(1302,1556,l),
(1084,751,o),
(785,264,o),
(526,264,cs),
(457,264,o),
(464,357,o),
(494,525,cs),
(706,1712,ls),
(723,1807,o),
(652,1876,o),
(558,1876,cs),
(455,1879,o),
(393,1792,o),
(383,1736,cs),
(171,561,ls),
(98,154,o),
(226,-31,o),
(447,-31,cs)
);
},
{
closed = 1;
nodes = (
(248,6,o),
(139,167,o),
(208,554,cs),
(420,1729,ls),
(428,1775,o),
(476,1842,o),
(558,1839,cs),
(635,1839,o),
(682,1791,o),
(669,1720,cs),
(457,533,ls),
(426,359,o),
(416,227,o),
(526,227,cs),
(809,227,o),
(1118,734,o),
(1339,1548,c),
(1375,1746,ls),
(1385,1804,o),
(1432,1839,o),
(1508,1839,cs),
(1596,1839,o),
(1637,1795,o),
(1624,1723,cs),
(1340,108,ls),
(1329,46,o),
(1268,19,o),
(1207,19,cs),
(1133,19,o),
(1079,55,o),
(1093,137,cs),
(1158,509,ls),
(1170,575,o),
(1157,581,o),
(1118,514,cs),
(926,187,o),
(683,6,o),
(447,6,cs)
);
}
);
vertWidth = 0;
width = 1625;
}
);
metricLeft = U;
metricWidth = U;
},
{
color = 5;
glyphname = V.ss02;
lastChange = "2023-10-27 01:46:19 +0000";
layers = (
{
anchors = (
{
name = bottom;
pos = (432,0);
},
{
name = top;
pos = (759,1857);
}
);
layerId = m01;
shapes = (
{
closed = 1;
nodes = (
(471,0,o),
(485,37,o),
(504,77,cs),
(1333,1754,ls),
(1366,1819,o),
(1326,1857,o),
(1278,1857,cs),
(1219,1857,o),
(1194,1833,o),
(1170,1783,cs),
(462,321,l),
(393,1782,ls),
(392,1812,o),
(377,1857,o),
(306,1857,cs),
(249,1857,o),
(230,1820,o),
(232,1773,cs),
(325,87,ls),
(327,49,o),
(355,0,o),
(410,0,cs)
);
},
{
closed = 1;
nodes = (
(367,19,o),
(345,56,o),
(343,89,cs),
(251,1774,ls),
(249,1815,o),
(261,1839,o),
(306,1839,cs),
(364,1839,o),
(375,1808,o),
(376,1781,cs),
(445,290,ls),
(447,253,o),
(449,253,o),
(467,289,cs),
(1186,1775,ls),
(1208,1821,o),
(1226,1839,o),
(1278,1839,cs),
(1317,1839,o),
(1342,1813,o),
(1317,1761,cs),
(488,85,ls),
(467,44,o),
(459,19,o),
(410,19,cs)
);
}
);
vertWidth = 0;
width = 1017;
},
{
anchors = (
{
name = bottom;
pos = (524,0);
},
{
name = top;
pos = (851,1857);
}
);
layerId = "140DECC1-64C4-40C0-9C07-503DBC3F4160";
shapes = (
{
closed = 1;
nodes = (
(564,-23,o),
(609,31,o),
(636,88,cs),
(1423,1681,ls),
(1480,1793,o),
(1405,1876,o),
(1301,1876,cs),
(1211,1876,o),
(1152,1838,o),
(1120,1773,cs),
(586,670,l),
(535,1745,ls),
(532,1820,o),
(470,1876,o),
(369,1876,cs),
(278,1876,o),
(216,1823,o),
(221,1727,cs),
(312,124,ls),
(315,45,o),
(381,-23,o),
(473,-23,cs)
);
},
{
closed = 1;
nodes = (
(399,14,o),
(352,63,o),
(349,126,cs),
(258,1729,ls),
(253,1804,o),
(294,1839,o),
(369,1839,cs),
(453,1839,o),
(495,1801,o),
(498,1744,cs),
(551,623,ls),
(556,536,o),
(565,542,o),
(604,623,cs),
(1153,1758,ls),
(1178,1811,o),
(1224,1839,o),
(1301,1839,cs),
(1384,1839,o),
(1435,1785,o),
(1389,1697,cs),
(603,105,ls),
(577,52,o),
(545,14,o),
(473,14,cs)
);
}
);
vertWidth = 0;
width = 1187;
}
);
metricLeft = V;
metricWidth = V;
},
{
color = 5;
glyphname = W.ss02;
lastChange = "2023-10-27 01:46:19 +0000";
layers = (
{
anchors = (
{
name = bottom;
pos = (910,0);
},
{
name = top;
pos = (1237,1857);
}
);
layerId = m01;
shapes = (
{
closed = 1;
nodes = (
(460,0,o),
(485,49,o),
(500,80,cs),
(1213,1551,l),
(1288,64,ls),
(1291,20,o),
(1317,0,o),
(1371,0,cs),
(1411,0,o),
(1439,28,o),
(1463,77,cs),
(2290,1754,ls),
(2321,1819,o),
(2281,1857,o),
(2224,1857,cs),
(2180,1857,o),
(2148,1832,o),
(2125,1783,cs),
(1423,333,l),
(1349,1782,ls),
(1347,1812,o),
(1328,1857,o),
(1254,1857,cs),
(1204,1857,o),
(1170,1806,o),
(1160,1785,cs),
(456,325,l),
(385,1782,ls),
(383,1812,o),
(369,1857,o),
(297,1857,cs),
(240,1857,o),
(221,1820,o),
(223,1773,cs),
(316,87,ls),
(319,38,o),
(351,0,o),
(406,0,cs)
);
},
{
closed = 1;
nodes = (
(361,19,o),
(337,46,o),
(334,89,cs),
(242,1774,ls),
(239,1815,o),
(252,1839,o),
(297,1839,cs),
(355,1839,o),
(366,1808,o),
(367,1781,cs),
(440,294,ls),
(442,262,o),
(447,264,o),
(463,297,cs),
(1177,1777,ls),
(1186,1796,o),
(1214,1839,o),
(1254,1839,cs),
(1314,1839,o),
(1329,1807,o),
(1331,1781,cs),
(1405,314,ls),
(1407,273,o),
(1415,275,o),
(1433,313,cs),
(2141,1775,ls),
(2164,1819,o),
(2187,1839,o),
(2224,1839,cs),
(2272,1839,o),
(2299,1813,o),
(2273,1761,cs),
(1446,84,ls),
(1424,40,o),
(1404,19,o),
(1371,19,cs),
(1324,19,o),
(1308,31,o),
(1306,65,cs),
(1229,1578,ls),
(1227,1617,o),
(1222,1613,o),
(1205,1577,cs),
(483,87,ls),
(470,56,o),
(449,19,o),
(406,19,cs)
);
}
);
vertWidth = 0;
width = 2001;
},
{
anchors = (
{
name = bottom;
pos = (991,0);
},
{
name = top;
pos = (1318,1857);
}
);
layerId = "140DECC1-64C4-40C0-9C07-503DBC3F4160";
shapes = (
{
closed = 1;
nodes = (
(540,-18,o),
(598,21,o),
(632,88,cs),
(1181,1195,l),
(1255,127,ls),
(1262,37,o),
(1326,-18,o),
(1413,-18,cs),
(1484,-18,o),
(1546,22,o),
(1580,93,cs),
(2359,1681,ls),
(2414,1794,o),
(2329,1876,o),
(2232,1876,cs),
(2133,1876,o),
(2078,1822,o),
(2052,1767,cs),
(1527,679,l),
(1451,1745,ls),
(1446,1825,o),
(1389,1876,o),
(1279,1876,cs),
(1173,1876,o),
(1142,1813,o),
(1125,1777,cs),
(581,665,l),
(535,1745,ls),
(532,1819,o),
(474,1876,o),
(372,1876,cs),
(281,1876,o),
(216,1823,o),
(221,1727,cs),
(305,124,ls),
(310,37,o),
(377,-18,o),
(478,-18,cs)
);
},
{
closed = 1;
nodes = (
(393,19,o),
(346,57,o),
(342,126,cs),
(258,1729,ls),
(254,1804,o),
(297,1839,o),
(372,1839,cs),
(456,1839,o),
(495,1801,o),
(498,1744,cs),
(546,607,ls),
(549,532,o),
(557,535,o),
(592,606,cs),
(1158,1760,ls),
(1176,1796,o),
(1196,1839,o),
(1279,1839,cs),
(1373,1839,o),
(1410,1806,o),
(1414,1744,cs),
(1494,619,ls),
(1499,550,o),
(1504,549,o),
(1538,619,cs),
(2085,1750,ls),
(2108,1798,o),
(2150,1839,o),
(2232,1839,cs),
(2309,1839,o),
(2368,1783,o),
(2325,1697,cs),
(1547,109,ls),
(1517,50,o),
(1471,19,o),
(1413,19,cs),
(1341,19,o),
(1297,57,o),
(1292,129,cs),
(1215,1243,ls),
(1211,1314,o),
(1200,1315,o),
(1165,1244,cs),
(598,105,ls),
(571,49,o),
(527,19,o),
(478,19,cs)
);
}
);
vertWidth = 0;
width = 2121;
}
);
metricLeft = W;
metricWidth = W;
},
{
color = 5;
glyphname = X.ss02;
lastChange = "2023-10-27 01:46:18 +0000";
layers = (
{
anchors = (
{
name = bottom;
pos = (464,0);
},
{
name = top;
pos = (791,1857);
}
);
layerId = m01;
shapes = (
{
closed = 1;
nodes = (
(-18,-10,o),
(42,-12,o),
(76,35,cs),
(605,763,l),
(868,61,ls),
(890,1,o),
(953,-10,o),
(993,10,cs),
(1025,27,o),
(1038,65,o),
(1021,112,cs),
(717,918,l),
(1306,1726,ls),
(1339,1772,o),
(1332,1819,o),
(1304,1841,cs),
(1272,1868,o),
(1211,1866,o),
(1176,1818,cs),
(651,1096,l),
(385,1799,ls),
(364,1856,o),
(312,1869,o),
(273,1854,cs),
(233,1839,o),
(218,1798,o),
(239,1741,cs),
(539,942,l),
(-59,122,ls),
(-87,83,o),
(-80,41,o),
(-53,19,cs)
);
},
{
closed = 1;
nodes = (
(-62,50,o),
(-67,80,o),
(-45,111,cs),
(559,939,l),
(256,1747,ls),
(237,1796,o),
(248,1826,o),
(279,1837,cs),
(310,1850,o),
(349,1841,o),
(368,1793,cs),
(637,1080,ls),
(644,1061,o),
(647,1061,o),
(663,1082,cs),
(1191,1807,ls),
(1220,1846,o),
(1267,1848,o),
(1292,1826,cs),
(1313,1810,o),
(1320,1776,o),
(1291,1737,cs),
(697,920,l),
(1004,105,ls),
(1019,66,o),
(1010,40,o),
(985,27,cs),
(951,9,o),
(904,19,o),
(886,68,cs),
(618,781,ls),
(611,798,o),
(608,798,o),
(596,782,cs),
(62,46,ls),
(33,7,o),
(-12,9,o),
(-41,33,cs)
);
}
);
vertWidth = 0;
width = 1102;
},
{
anchors = (
{
name = bottom;
pos = (519,0);
},
{
name = top;
pos = (846,1857);
}
);
layerId = "140DECC1-64C4-40C0-9C07-503DBC3F4160";
shapes = (
{
closed = 1;
nodes = (
(44,-29,o),
(170,-45,o),
(227,34,cs),
(634,604,l),
(833,73,ls),
(869,-22,o),
(992,-37,o),
(1064,0,cs),
(1131,35,o),
(1165,101,o),
(1133,179,cs),
(856,912,l),
(1378,1642,ls),
(1435,1718,o),
(1420,1789,o),
(1361,1840,cs),
(1303,1893,o),
(1188,1894,o),
(1129,1816,cs),
(727,1256,l),
(526,1787,ls),
(491,1879,o),
(387,1892,o),
(314,1868,cs),
(231,1838,o),
(199,1767,o),
(237,1668,cs),
(506,949,l),
(-28,208,ls),
(-76,142,o),
(-77,75,o),
(-18,22,cs)
);
},
{
closed = 1;
nodes = (
(-38,90,o),
(-38,131,o),
(2,186,cs),
(547,944,l),
(272,1681,ls),
(240,1763,o),
(261,1809,o),
(327,1832,cs),
(388,1854,o),
(465,1844,o),
(491,1774,cs),
(701,1217,ls),
(714,1182,o),
(719,1183,o),
(744,1217,cs),
(1159,1794,ls),
(1204,1856,o),
(1290,1854,o),
(1337,1812,cs),
(1385,1770,o),
(1394,1725,o),
(1349,1664,cs),
(815,918,l),
(1098,167,ls),
(1122,104,o),
(1102,62,o),
(1047,33,cs),
(987,3,o),
(895,14,o),
(869,86,cs),
(660,642,ls),
(647,678,o),
(643,678,o),
(618,643,cs),
(198,56,ls),
(154,-5,o),
(57,8,o),
(6,50,cs)
);
}
);
vertWidth = 0;
width = 1177;
}
);
metricLeft = X;
metricWidth = X;
},
{
color = 5;
glyphname = Y.ss02;
lastChange = "2023-10-27 01:46:19 +0000";
layers = (
{
anchors = (
{
name = bottom;
pos = (432,0);
},
{
name = top;
pos = (759,1857);
},
{
name = topleft;
pos = (264,1857);
}
);
layerId = m01;
shapes = (
{
closed = 1;
nodes = (
(559,0,o),
(571,49,o),
(577,79,cs),
(724,918,l),
(1318,1726,ls),
(1333,1748,o),
(1343,1770,o),
(1343,1789,cs),
(1343,1826,o),
(1302,1857,o),
(1268,1857,cs),
(1237,1857,o),
(1210,1849,o),
(1187,1818,cs),
(664,1096,l),
(395,1795,ls),
(381,1831,o),
(353,1857,o),
(306,1857,cs),
(268,1857,o),
(232,1826,o),
(232,1792,cs),
(232,1772,o),
(235,1764,o),
(245,1741,cs),
(560,923,l),
(413,87,ls),
(405,39,o),
(430,0,o),
(486,0,cs)
);
},
{
closed = 1;
nodes = (
(442,19,o),
(424,44,o),
(431,84,cs),
(579,925,l),
(261,1747,ls),
(252,1771,o),
(250,1776,o),
(250,1792,cs),
(250,1816,o),
(275,1839,o),
(306,1839,cs),
(345,1839,o),
(366,1819,o),
(378,1788,cs),
(652,1075,ls),
(658,1061,o),
(661,1061,o),
(671,1075,cs),
(1202,1807,ls),
(1221,1833,o),
(1241,1839,o),
(1268,1839,cs),
(1295,1839,o),
(1325,1815,o),
(1325,1789,cs),
(1325,1774,o),
(1318,1758,o),
(1303,1737,cs),
(706,925,l),
(559,82,ls),
(554,54,o),
(544,19,o),
(486,19,cs)
);
}
);
vertWidth = 0;
width = 1017;
},
{
anchors = (
{
name = bottom;
pos = (478,0);
},
{
name = top;
pos = (805,1857);
},
{
name = topleft;
pos = (259,1857);
}
);
layerId = "140DECC1-64C4-40C0-9C07-503DBC3F4160";
shapes = (
{
closed = 1;
nodes = (
(661,-23,o),
(708,46,o),
(719,112,cs),
(855,894,l),
(1411,1632,ls),
(1436,1665,o),
(1448,1699,o),
(1448,1737,cs),
(1448,1825,o),
(1347,1876,o),
(1289,1876,cs),
(1239,1876,o),
(1189,1850,o),
(1157,1807,cs),
(737,1229,l),
(530,1776,ls),
(504,1844,o),
(462,1876,o),
(392,1876,cs),
(300,1876,o),
(222,1824,o),
(222,1752,cs),
(222,1720,o),
(228,1700,o),
(240,1668,cs),
(529,919,l),
(395,142,ls),
(379,52,o),
(449,-23,o),
(551,-23,cs)
);
},
{
closed = 1;
nodes = (
(468,14,o),
(420,66,o),
(432,137,cs),
(568,923,l),
(275,1681,ls),
(263,1711,o),
(259,1725,o),
(259,1752,cs),
(259,1802,o),
(314,1839,o),
(392,1839,cs),
(445,1839,o),
(474,1819,o),
(496,1761,cs),
(713,1186,ls),
(725,1154,o),
(729,1154,o),
(751,1186,cs),
(1187,1787,ls),
(1212,1821,o),
(1248,1839,o),
(1289,1839,cs),
(1336,1839,o),
(1411,1801,o),
(1411,1737,cs),
(1411,1708,o),
(1402,1683,o),
(1381,1654,cs),
(820,909,l),
(682,119,ls),
(672,63,o),
(639,14,o),
(551,14,cs)
);
}
);
vertWidth = 0;
width = 1093;
}
);
metricLeft = Y;
metricWidth = Y;
},
{
color = 5;
glyphname = Z.ss02;
lastChange = "2023-10-27 01:46:19 +0000";
layers = (
{
anchors = (
{
name = bottom;
pos = (464,0);
},
{
name = center;
pos = (627,929);
},
{
name = top;
pos = (791,1857);
}
);
layerId = m01;
shapes = (
{
closed = 1;
nodes = (
(948,0,ls),
(1012,0,o),
(1031,42,o),
(1031,80,cs),
(1031,117,o),
(1012,150,o),
(948,150,cs),
(148,150,l),
(1282,1724,ls),
(1296,1745,o),
(1308,1772,o),
(1308,1792,cs),
(1308,1834,o),
(1282,1857,o),
(1226,1857,cs),
(307,1857,ls),
(244,1857,o),
(224,1816,o),
(224,1780,cs),
(224,1740,o),
(244,1710,o),
(307,1710,cs),
(1085,1710,l),
(-58,125,ls),
(-73,104,o),
(-75,84,o),
(-75,68,cs),
(-75,35,o),
(-49,0,o),
(8,0,cs)
);
},
{
closed = 1;
nodes = (
(-40,19,o),
(-58,43,o),
(-58,68,cs),
(-58,82,o),
(-55,96,o),
(-43,114,cs),
(1107,1709,ls),
(1120,1727,o),
(1119,1729,o),
(1095,1729,cs),
(307,1729,ls),
(255,1729,o),
(243,1746,o),
(243,1780,cs),
(243,1810,o),
(256,1839,o),
(307,1839,cs),
(1226,1839,ls),
(1273,1839,o),
(1290,1825,o),
(1290,1792,cs),
(1290,1776,o),
(1282,1755,o),
(1267,1734,cs),
(128,154,ls),
(113,133,o),
(114,131,o),
(142,131,cs),
(948,131,ls),
(1000,131,o),
(1013,111,o),
(1013,80,cs),
(1013,47,o),
(999,19,o),
(948,19,cs),
(8,19,ls)
);
}
);
vertWidth = 0;
width = 1102;
},
{
anchors = (
{
name = bottom;
pos = (530,0);
},
{
name = center;
pos = (693,929);
},
{
name = top;
pos = (857,1857);
}
);
layerId = "140DECC1-64C4-40C0-9C07-503DBC3F4160";
shapes = (
{
closed = 1;
nodes = (
(1005,-18,ls),
(1107,-18,o),
(1166,46,o),
(1166,123,cs),
(1166,207,o),
(1100,276,o),
(1005,276,cs),
(398,276,l),
(1384,1628,ls),
(1413,1668,o),
(1424,1703,o),
(1424,1735,cs),
(1424,1816,o),
(1354,1876,o),
(1252,1876,cs),
(383,1876,ls),
(286,1876,o),
(222,1810,o),
(222,1725,cs),
(222,1648,o),
(280,1582,o),
(383,1582,cs),
(967,1582,l),
(-36,211,ls),
(-55,185,o),
(-64,154,o),
(-64,125,cs),
(-64,66,o),
(-23,-18,o),
(118,-18,cs)
);
},
{
closed = 1;
nodes = (
(2,19,o),
(-27,77,o),
(-27,125,cs),
(-27,149,o),
(-21,169,o),
(-6,189,cs),
(1013,1584,ls),
(1037,1616,o),
(1035,1619,o),
(992,1619,cs),
(383,1619,ls),
(300,1619,o),
(259,1665,o),
(259,1725,cs),
(259,1793,o),
(303,1839,o),
(383,1839,cs),
(1252,1839,ls),
(1338,1839,o),
(1387,1796,o),
(1387,1735,cs),
(1387,1709,o),
(1378,1684,o),
(1354,1650,cs),
(354,278,ls),
(327,241,o),
(328,239,o),
(377,239,cs),
(1005,239,ls),
(1082,239,o),
(1129,190,o),
(1129,123,cs),
(1129,63,o),
(1089,19,o),
(1005,19,cs),
(118,19,ls)
);
}
);
vertWidth = 0;
width = 1198;
}
);
metricLeft = Z;
metricWidth = Z;
},
{
color = 5;
glyphname = A.ss04;
lastChange = "2023-10-27 01:46:19 +0000";
layers = (
{
anchors = (
{
name = bottom;
pos = (542,0);
},
{
name = ogonek;
pos = (1051,10);
},
{
name = top;
pos = (869,1857);
}
);
layerId = m01;
shapes = (
{
closed = 1;
nodes = (
(82,0,o),
(98,23,o),
(125,77,cs),
(561,932,l),
(931,932,l),
(999,78,ls),
(1001,48,o),
(1013,0,o),
(1081,0,cs),
(1138,0,o),
(1158,36,o),
(1154,84,cs),
(1010,1797,ls),
(1007,1830,o),
(984,1857,o),
(931,1857,cs),
(861,1857,o),
(857,1820,o),
(838,1783,cs),
(-36,105,ls),
(-71,40,o),
(-27,0,o),
(22,0,cs)
);
},
{
closed = 1;
nodes = (
(-18,19,o),
(-48,45,o),
(-21,96,cs),
(854,1775,ls),
(876,1816,o),
(877,1839,o),
(931,1839,cs),
(974,1839,o),
(989,1820,o),
(991,1795,cs),
(1136,82,ls),
(1140,42,o),
(1126,19,o),
(1081,19,cs),
(1027,19,o),
(1019,51,o),
(1017,79,cs),
(948,951,l),
(550,951,l),
(109,85,ls),
(82,33,o),
(72,19,o),
(22,19,cs)
);
},
{
closed = 1;
nodes = (
(919,1072,l),
(882,1562,l),
(633,1072,l)
);
},
{
closed = 1;
nodes = (
(873,1585,ls),
(890,1619,o),
(895,1619,o),
(898,1580,cs),
(939,1055,l),
(603,1055,l)
);
},
{
closed = 1;
nodes = (
(950,1733,o),
(968,1752,o),
(968,1775,cs),
(968,1798,o),
(950,1817,o),
(926,1817,cs),
(903,1817,o),
(885,1798,o),
(885,1775,cs),
(885,1752,o),
(903,1733,o),
(926,1733,cs)
);
}
);
vertWidth = 0;
width = 1259;
},
{
anchors = (
{
name = bottom;
pos = (622,0);
},
{
name = ogonek;
pos = (1192,10);
},
{
name = top;
pos = (949,1857);
}
);
layerId = "140DECC1-64C4-40C0-9C07-503DBC3F4160";
shapes = (
{
closed = 1;
nodes = (
(187,-18,o),
(238,7,o),
(277,85,cs),
(610,743,l),
(964,742,l),
(1016,115,ls),
(1022,34,o),
(1075,-18,o),
(1174,-18,cs),
(1263,-18,o),
(1330,32,o),
(1322,134,cs),
(1185,1724,ls),
(1177,1824,o),
(1103,1876,o),
(1005,1876,cs),
(904,1876,o),
(839,1828,o),
(808,1770,cs),
(-19,179,ls),
(-80,65,o),
(3,-18,o),
(104,-18,cs)
);
},
{
closed = 1;
nodes = (
(24,19,o),
(-33,72,o),
(14,163,cs),
(842,1753,ls),
(868,1803,o),
(918,1839,o),
(1005,1839,cs),
(1089,1839,o),
(1141,1802,o),
(1148,1721,cs),
(1285,130,ls),
(1291,52,o),
(1247,19,o),
(1174,19,cs),
(1092,19,o),
(1058,54,o),
(1053,117,cs),
(997,779,l),
(587,780,l),
(243,102,ls),
(210,36,o),
(176,19,o),
(104,19,cs)
);
},
{
closed = 1;
nodes = (
(940,1038,l),
(914,1342,l),
(759,1038,l)
);
},
{
closed = 1;
nodes = (
(898,1392,ls),
(930,1453,o),
(940,1458,o),
(945,1396,cs),
(979,1001,l),
(699,1001,l)
);
},
{
closed = 1;
nodes = (
(1024,1683,o),
(1049,1708,o),
(1049,1738,cs),
(1049,1769,o),
(1024,1794,o),
(993,1794,cs),
(963,1794,o),
(938,1769,o),
(938,1738,cs),
(938,1708,o),
(963,1683,o),
(993,1683,cs)
);
}
);
vertWidth = 0;
width = 1382;
}
);
metricLeft = A;
metricWidth = A;
},
{
color = 5;
glyphname = B.ss04;
lastChange = "2023-10-27 06:08:01 +0000";
layers = (
{
anchors = (
{
name = bottom;
pos = (688,0);
},
{
name = center;
pos = (851,929);
},
{
name = top;
pos = (1015,1857);
}
);
layerId = m01;
shapes = (
{
closed = 1;
nodes = (
(1061,0,o),
(1292,154,o),
(1341,471,cs),
(1381,728,o),
(1254,903,o),
(985,996,c),
(1335,1053,o),
(1423,1183,o),
(1445,1359,cs),
(1489,1701,o),
(1194,1857,o),
(582,1857,cs),
(531,1857,o),
(501,1835,o),
(490,1774,cs),
(194,99,ls),
(186,51,o),
(210,0,o),
(255,0,cs)
);
},
{
closed = 1;
nodes = (
(223,19,o),
(204,56,o),
(211,95,cs),
(507,1770,ls),
(517,1824,o),
(538,1839,o),
(582,1839,cs),
(1187,1839,o),
(1468,1690,o),
(1427,1362,cs),
(1404,1175,o),
(1311,1051,o),
(899,1003,c),
(1217,919,o),
(1364,742,o),
(1323,473,cs),
(1277,167,o),
(1053,19,o),
(255,19,cs)
);
},
{
closed = 1;
nodes = (
(859,154,o),
(1146,228,o),
(1183,489,cs),
(1218,736,o),
(1021,924,o),
(504,944,c),
(364,150,l)
);
},
{
closed = 1;
nodes = (
(488,962,l),
(1026,945,o),
(1238,746,o),
(1201,487,cs),
(1161,208,o),
(853,133,o),
(342,131,c)
);
},
{
closed = 1;
nodes = (
(1174,1081,o),
(1265,1190,o),
(1284,1365,cs),
(1311,1610,o),
(1066,1704,o),
(638,1710,c),
(526,1073,l)
);
},
{
closed = 1;
nodes = (
(623,1729,l),
(1064,1725,o),
(1334,1627,o),
(1303,1363,cs),
(1282,1178,o),
(1183,1061,o),
(505,1055,c)
);
},
{
closed = 1;
nodes = (
(599,1733,o),
(618,1752,o),
(618,1775,cs),
(618,1798,o),
(599,1817,o),
(576,1817,cs),
(553,1817,o),
(534,1798,o),
(534,1775,cs),
(534,1752,o),
(553,1733,o),
(576,1733,cs)
);
}
);
vertWidth = 0;
width = 1447;
},
{
anchors = (
{
name = bottom;
pos = (735,0);
},
{
name = center;
pos = (898,929);
},
{
name = top;
pos = (1062,1857);
}
);
layerId = "140DECC1-64C4-40C0-9C07-503DBC3F4160";
shapes = (
{
closed = 1;
nodes = (
(1135,-18,o),
(1438,57,o),
(1495,469,cs),
(1531,725,o),
(1424,882,o),
(1227,983,c),
(1483,1060,o),
(1612,1195,o),
(1630,1346,cs),
(1675,1717,o),
(1332,1876,o),
(591,1876,cs),
(520,1876,o),
(453,1852,o),
(433,1743,cs),
(153,154,ls),
(136,56,o),
(207,-18,o),
(292,-18,cs)
);
},
{
closed = 1;
nodes = (
(226,19,o),
(176,70,o),
(190,149,cs),
(470,1737,ls),
(485,1822,o),
(530,1839,o),
(591,1839,cs),
(1321,1839,o),
(1633,1695,o),
(1593,1351,cs),
(1574,1189,o),
(1430,1061,o),
(1113,993,c),
(1363,900,o),
(1497,746,o),
(1458,475,cs),
(1404,90,o),
(1127,19,o),
(292,19,cs)
);
},
{
closed = 1;
nodes = (
(992,290,o),
(1148,345,o),
(1174,524,cs),
(1206,737,o),
(1067,831,o),
(605,848,c),
(505,277,l)
);
},
{
closed = 1;
nodes = (
(575,887,l),
(1077,871,o),
(1246,763,o),
(1211,519,cs),
(1182,311,o),
(991,249,o),
(460,238,c)
);
},
{
closed = 1;
nodes = (
(1273,1141,o),
(1298,1274,o),
(1307,1365,cs),
(1317,1485,o),
(1228,1562,o),
(734,1578,c),
(653,1122,l)
);
},
{
closed = 1;
nodes = (
(703,1616,l),
(1241,1603,o),
(1357,1507,o),
(1344,1362,cs),
(1334,1263,o),
(1307,1099,o),
(609,1083,c)
);
},
{
closed = 1;
nodes = (
(605,1683,o),
(630,1708,o),
(630,1738,cs),
(630,1769,o),
(605,1794,o),
(575,1794,cs),
(544,1794,o),
(519,1769,o),
(519,1738,cs),
(519,1708,o),
(544,1683,o),
(575,1683,cs)
);
}
);
vertWidth = 0;
width = 1566;
}
);
metricLeft = B;
metricWidth = B;
},
{
color = 5;
glyphname = C.ss04;
lastChange = "2023-10-27 01:46:18 +0000";
layers = (
{
anchors = (
{
name = bottom;
pos = (600,0);
},
{
name = top;
pos = (927,1857);
}
);
layerId = m01;
shapes = (
{
closed = 1;
nodes = (
(934,0,o),
(1127,129,o),
(1290,308,cs),
(1361,387,o),
(1369,425,o),
(1366,447,cs),
(1359,485,o),
(1330,505,o),
(1290,505,cs),
(1238,505,o),
(1221,453,o),
(1165,404,cs),
(1011,257,o),
(873,150,o),
(690,150,cs),
(492,150,o),
(288,398,o),
(368,868,cs),
(425,1193,o),
(559,1710,o),
(1047,1710,cs),
(1176,1710,o),
(1311,1652,o),
(1436,1521,cs),
(1479,1478,o),
(1523,1490,o),
(1549,1518,cs),
(1576,1548,o),
(1570,1592,o),
(1538,1625,cs),
(1405,1766,o),
(1228,1857,o),
(1050,1857,cs),
(442,1857,o),
(281,1277,o),
(209,873,cs),
(108,310,o),
(411,0,o),
(688,0,cs)
);
},
{
closed = 1;
nodes = (
(420,19,o),
(128,317,o),
(227,870,cs),
(299,1272,o),
(456,1839,o),
(1050,1839,cs),
(1224,1839,o),
(1389,1758,o),
(1527,1612,cs),
(1551,1589,o),
(1557,1551,o),
(1535,1530,cs),
(1516,1507,o),
(1484,1499,o),
(1449,1533,cs),
(1322,1668,o),
(1180,1729,o),
(1047,1729,cs),
(545,1729,o),
(407,1197,o),
(350,870,cs),
(268,390,o),
(482,131,o),
(690,131,cs),
(880,131,o),
(1023,243,o),
(1177,391,cs),
(1238,443,o),
(1250,487,o),
(1290,487,cs),
(1324,487,o),
(1342,473,o),
(1348,444,cs),
(1350,426,o),
(1344,395,o),
(1276,320,cs),
(1115,142,o),
(928,19,o),
(688,19,cs)
);
},
{
closed = 1;
nodes = (
(1515,1526,o),
(1534,1545,o),
(1534,1568,cs),
(1534,1591,o),
(1515,1610,o),
(1492,1610,cs),
(1469,1610,o),
(1450,1591,o),
(1450,1568,cs),
(1450,1545,o),
(1469,1526,o),
(1492,1526,cs)
);
}
);
vertWidth = 0;
width = 1437;
},
{
anchors = (
{
name = bottom;
pos = (684,0);
},
{
name = top;
pos = (1011,1857);
}
);
layerId = "140DECC1-64C4-40C0-9C07-503DBC3F4160";
shapes = (
{
closed = 1;
nodes = (
(1030,-18,o),
(1280,95,o),
(1450,280,cs),
(1523,360,o),
(1553,402,o),
(1553,462,cs),
(1553,524,o),
(1505,579,o),
(1419,579,cs),
(1370,579,o),
(1307,561,o),
(1235,481,cs),
(1119,352,o),
(956,276,o),
(796,276,cs),
(597,276,o),
(493,519,o),
(552,866,cs),
(634,1346,o),
(833,1582,o),
(1157,1582,cs),
(1284,1582,o),
(1369,1554,o),
(1458,1473,cs),
(1532,1407,o),
(1630,1375,o),
(1702,1448,cs),
(1777,1523,o),
(1734,1619,o),
(1658,1688,cs),
(1502,1829,o),
(1341,1876,o),
(1160,1876,cs),
(659,1876,o),
(347,1536,o),
(229,874,cs),
(141,364,o),
(381,-18,o),
(794,-18,cs)
);
},
{
closed = 1;
nodes = (
(404,19,o),
(180,375,o),
(266,869,cs),
(381,1517,o),
(677,1839,o),
(1160,1839,cs),
(1335,1839,o),
(1485,1795,o),
(1634,1660,cs),
(1702,1598,o),
(1732,1530,o),
(1676,1474,cs),
(1621,1419,o),
(1548,1441,o),
(1482,1500,cs),
(1388,1587,o),
(1290,1619,o),
(1157,1619,cs),
(814,1619,o),
(599,1364,o),
(515,871,cs),
(454,511,o),
(570,239,o),
(796,239,cs),
(966,239,o),
(1141,321,o),
(1263,457,cs),
(1326,527,o),
(1376,542,o),
(1419,542,cs),
(1486,542,o),
(1516,508,o),
(1516,462,cs),
(1516,414,o),
(1494,383,o),
(1423,306,cs),
(1259,127,o),
(1021,19,o),
(794,19,cs)
);
},
{
closed = 1;
nodes = (
(1634,1491,o),
(1659,1516,o),
(1659,1547,cs),
(1659,1577,o),
(1634,1602,o),
(1604,1602,cs),
(1573,1602,o),
(1548,1577,o),
(1548,1547,cs),
(1548,1516,o),
(1573,1491,o),
(1604,1491,cs)
);
}
);
vertWidth = 0;
width = 1535;
}
);
metricLeft = C;
metricWidth = C;
},
{
color = 5;
glyphname = D.ss04;
lastChange = "2023-10-27 06:08:01 +0000";
layers = (
{
anchors = (
{
name = bottom;
pos = (731,0);
},
{
name = center;
pos = (894,929);
},
{
name = top;
pos = (1058,1857);
}
);
layerId = m01;
shapes = (
{
closed = 1;
nodes = (
(451,0,ls),
(998,0,o),
(1459,349,o),
(1544,982,cs),
(1618,1551,o),
(1212,1857,o),
(686,1857,cs),
(583,1857,ls),
(518,1857,o),
(499,1821,o),
(491,1774,cs),
(193,87,ls),
(185,38,o),
(209,0,o),
(266,0,cs)
);
},
{
closed = 1;
nodes = (
(220,19,o),
(203,43,o),
(211,83,cs),
(509,1770,ls),
(517,1814,o),
(530,1839,o),
(583,1839,cs),
(686,1839,ls),
(1205,1839,o),
(1598,1542,o),
(1525,985,cs),
(1442,360,o),
(990,19,o),
(451,19,cs),
(266,19,ls)
);
},
{
closed = 1;
nodes = (
(451,150,ls),
(905,150,o),
(1316,436,o),
(1384,1004,cs),
(1436,1453,o),
(1126,1710,o),
(696,1710,cs),
(640,1710,l),
(364,150,l)
);
},
{
closed = 1;
nodes = (
(624,1729,l),
(696,1729,ls),
(1134,1729,o),
(1456,1462,o),
(1403,1002,cs),
(1333,425,o),
(912,131,o),
(451,131,cs),
(343,131,l)
);
},
{
closed = 1;
nodes = (
(600,1733,o),
(619,1752,o),
(619,1775,cs),
(619,1798,o),
(600,1817,o),
(577,1817,cs),
(554,1817,o),
(535,1798,o),
(535,1775,cs),
(535,1752,o),
(554,1733,o),
(577,1733,cs)
);
}
);
vertWidth = 0;
width = 1539;
},
{
anchors = (
{
name = bottom;
pos = (785,0);
},
{
name = center;
pos = (948,929);
},
{
name = top;
pos = (1112,1857);
}
);
layerId = "140DECC1-64C4-40C0-9C07-503DBC3F4160";
shapes = (
{
closed = 1;
nodes = (
(522,-18,ls),
(1107,-18,o),
(1598,417,o),
(1677,1001,cs),
(1751,1543,o),
(1392,1876,o),
(743,1876,cs),
(600,1876,ls),
(502,1876,o),
(450,1831,o),
(434,1744,cs),
(152,143,ls),
(137,55,o),
(201,-18,o),
(301,-18,cs)
);
},
{
closed = 1;
nodes = (
(221,19,o),
(177,68,o),
(189,136,cs),
(471,1736,ls),
(484,1809,o),
(519,1839,o),
(600,1839,cs),
(743,1839,ls),
(1374,1839,o),
(1711,1525,o),
(1640,1006,cs),
(1563,438,o),
(1090,19,o),
(522,19,cs),
(301,19,ls)
);
},
{
closed = 1;
nodes = (
(522,274,ls),
(951,274,o),
(1308,585,o),
(1363,1004,cs),
(1410,1365,o),
(1184,1584,o),
(758,1584,cs),
(736,1584,l),
(506,274,l)
);
},
{
closed = 1;
nodes = (
(704,1621,l),
(758,1621,ls),
(1201,1621,o),
(1450,1381,o),
(1400,998,cs),
(1344,564,o),
(967,237,o),
(522,237,cs),
(461,237,l)
);
},
{
closed = 1;
nodes = (
(606,1683,o),
(631,1708,o),
(631,1738,cs),
(631,1769,o),
(606,1794,o),
(576,1794,cs),
(545,1794,o),
(520,1769,o),
(520,1738,cs),
(520,1708,o),
(545,1683,o),
(576,1683,cs)
);
}
);
vertWidth = 0;
width = 1663;
}
);
metricLeft = D;
metricWidth = D;
},
{
color = 5;
glyphname = E.ss04;
lastChange = "2023-10-27 06:08:01 +0000";
layers = (
{
anchors = (
{
name = bottom;
pos = (675,0);
},
{
name = ogonek;
pos = (1211,10);
},
{
name = top;
pos = (1002,1857);
},
{
name = topleft;
pos = (354,1857);
}
);
layerId = m01;
shapes = (
{
closed = 1;
nodes = (
(1217,0,ls),
(1281,0,o),
(1300,47,o),
(1300,83,cs),
(1300,120,o),
(1280,150,o),
(1217,150,cs),
(364,150,l),
(502,930,l),
(1246,930,ls),
(1310,930,o),
(1329,967,o),
(1328,997,cs),
(1327,1036,o),
(1310,1073,o),
(1245,1073,cs),
(527,1073,l),
(640,1710,l),
(1494,1710,ls),
(1557,1710,o),
(1576,1740,o),
(1576,1780,cs),
(1576,1816,o),
(1557,1857,o),
(1494,1857,cs),
(586,1857,ls),
(518,1857,o),
(499,1820,o),
(491,1774,cs),
(193,87,ls),
(185,38,o),
(209,0,o),
(266,0,cs)
);
},
{
closed = 1;
nodes = (
(220,19,o),
(203,43,o),
(211,83,cs),
(509,1770,ls),
(517,1814,o),
(530,1839,o),
(586,1839,cs),
(1494,1839,ls),
(1544,1839,o),
(1558,1810,o),
(1558,1780,cs),
(1558,1746,o),
(1546,1729,o),
(1494,1729,cs),
(624,1729,l),
(505,1055,l),
(1245,1055,ls),
(1298,1055,o),
(1309,1030,o),
(1310,997,cs),
(1310,972,o),
(1298,948,o),
(1246,948,cs),
(486,948,l),
(343,131,l),
(1217,131,ls),
(1270,131,o),
(1283,114,o),
(1283,83,cs),
(1283,52,o),
(1268,19,o),
(1217,19,cs),
(266,19,ls)
);
},
{
closed = 1;
nodes = (
(600,1733,o),
(619,1752,o),
(619,1775,cs),
(619,1798,o),
(600,1817,o),
(577,1817,cs),
(554,1817,o),
(535,1798,o),
(535,1775,cs),
(535,1752,o),
(554,1733,o),
(577,1733,cs)
);
}
);
vertWidth = 0;
width = 1420;
},
{
anchors = (
{
name = bottom;
pos = (691,0);
},
{
name = ogonek;
pos = (1279,10);
},
{
name = top;
pos = (1018,1857);
},
{
name = topleft;
pos = (305,1857);
}
);
layerId = "140DECC1-64C4-40C0-9C07-503DBC3F4160";
shapes = (
{
closed = 1;
nodes = (
(1272,-18,ls),
(1365,-18,o),
(1432,34,o),
(1432,120,cs),
(1432,196,o),
(1380,274,o),
(1276,274,cs),
(507,274,l),
(606,842,l),
(1331,842,ls),
(1431,842,o),
(1503,905,o),
(1503,983,cs),
(1503,1068,o),
(1438,1122,o),
(1345,1122,cs),
(656,1122,l),
(737,1584,l),
(1553,1584,ls),
(1649,1584,o),
(1718,1647,o),
(1718,1733,cs),
(1718,1815,o),
(1657,1876,o),
(1560,1876,cs),
(607,1876,ls),
(511,1876,o),
(453,1839,o),
(437,1750,cs),
(153,144,ls),
(138,56,o),
(181,-18,o),
(278,-18,cs)
);
},
{
closed = 1;
nodes = (
(205,19,o),
(177,67,o),
(190,139,cs),
(474,1743,ls),
(487,1815,o),
(524,1839,o),
(607,1839,cs),
(1560,1839,ls),
(1640,1839,o),
(1681,1797,o),
(1681,1733,cs),
(1681,1666,o),
(1632,1621,o),
(1553,1621,cs),
(705,1621,l),
(611,1085,l),
(1345,1085,ls),
(1422,1085,o),
(1466,1049,o),
(1466,983,cs),
(1466,924,o),
(1414,879,o),
(1331,879,cs),
(574,879,l),
(462,237,l),
(1276,237,ls),
(1358,237,o),
(1395,182,o),
(1395,120,cs),
(1395,55,o),
(1349,19,o),
(1272,19,cs),
(278,19,ls)
);
},
{
closed = 1;
nodes = (
(607,1683,o),
(632,1708,o),
(632,1738,cs),
(632,1769,o),
(607,1794,o),
(577,1794,cs),
(546,1794,o),
(521,1769,o),
(521,1738,cs),
(521,1708,o),
(546,1683,o),
(577,1683,cs)
);
}
);
vertWidth = 0;
width = 1474;
}
);
metricLeft = E;
metricWidth = E;
},
{
color = 5;
glyphname = F.ss04;
lastChange = "2023-10-27 06:08:01 +0000";
layers = (
{
anchors = (
{
name = bottom;
pos = (599,0);
},
{
name = top;
pos = (926,1857);
}
);
layerId = m01;
shapes = (
{
closed = 1;
nodes = (
(336,0,o),
(346,50,o),
(351,80,cs),
(502,930,l),
(1214,930,ls),
(1279,930,o),
(1298,967,o),
(1298,997,cs),
(1298,1036,o),
(1279,1073,o),
(1214,1073,cs),
(528,1073,l),
(640,1710,l),
(1465,1710,ls),
(1528,1710,o),
(1548,1740,o),
(1548,1780,cs),
(1548,1816,o),
(1529,1857,o),
(1465,1857,cs),
(586,1857,ls),
(518,1857,o),
(499,1820,o),
(491,1774,cs),
(193,87,ls),
(185,38,o),
(210,0,o),
(267,0,cs)
);
},
{
closed = 1;
nodes = (
(221,19,o),
(204,44,o),
(211,83,cs),
(509,1770,ls),
(517,1814,o),
(530,1839,o),
(586,1839,cs),
(1465,1839,ls),
(1517,1839,o),
(1530,1810,o),
(1530,1780,cs),
(1530,1746,o),
(1518,1729,o),
(1465,1729,cs),
(624,1729,l),
(506,1055,l),
(1214,1055,ls),
(1267,1055,o),
(1280,1030,o),
(1280,997,cs),
(1280,972,o),
(1267,948,o),
(1214,948,cs),
(486,948,l),
(334,82,ls),
(329,55,o),
(321,19,o),
(267,19,cs)
);
},
{
closed = 1;
nodes = (
(600,1733,o),
(619,1752,o),
(619,1775,cs),
(619,1798,o),
(600,1817,o),
(577,1817,cs),
(554,1817,o),
(535,1798,o),
(535,1775,cs),
(535,1752,o),
(554,1733,o),
(577,1733,cs)
);
}
);
vertWidth = 0;
width = 1266;
},
{
anchors = (
{
name = bottom;
pos = (642,0);
},
{
name = top;
pos = (969,1857);
}
);
layerId = "140DECC1-64C4-40C0-9C07-503DBC3F4160";
shapes = (
{
closed = 1;
nodes = (
(396,-18,o),
(466,49,o),
(482,144,cs),
(604,842,l),
(1316,842,ls),
(1418,842,o),
(1473,907,o),
(1473,985,cs),
(1473,1067,o),
(1414,1122,o),
(1318,1122,cs),
(654,1122,l),
(735,1584,l),
(1518,1584,ls),
(1624,1584,o),
(1686,1658,o),
(1686,1728,cs),
(1686,1817,o),
(1625,1876,o),
(1528,1876,cs),
(600,1876,ls),
(502,1876,o),
(450,1836,o),
(434,1747,cs),
(154,157,ls),
(139,73,o),
(169,-18,o),
(297,-18,cs)
);
},
{
closed = 1;
nodes = (
(197,19,o),
(178,79,o),
(191,150,cs),
(471,1742,ls),
(484,1814,o),
(517,1839,o),
(600,1839,cs),
(1528,1839,ls),
(1607,1839,o),
(1649,1799,o),
(1649,1728,cs),
(1649,1673,o),
(1604,1621,o),
(1518,1621,cs),
(703,1621,l),
(609,1085,l),
(1318,1085,ls),
(1397,1085,o),
(1436,1049,o),
(1436,985,cs),
(1436,922,o),
(1398,879,o),
(1316,879,cs),
(573,879,l),
(445,150,ls),
(432,69,o),
(380,19,o),
(297,19,cs)
);
},
{
closed = 1;
nodes = (
(605,1683,o),
(630,1708,o),
(630,1738,cs),
(630,1769,o),
(605,1794,o),
(575,1794,cs),
(544,1794,o),
(519,1769,o),
(519,1738,cs),
(519,1708,o),
(544,1683,o),
(575,1683,cs)
);
}
);
vertWidth = 0;
width = 1378;
}
);
metricLeft = F;
metricWidth = F;
},
{
color = 5;
glyphname = G.ss04;
kernLeft = G;
kernRight = G;
lastChange = "2024-03-07 21:57:38 +0000";
layers = (
{
anchors = (
{
name = bottom;
pos = (682,0);
},
{
name = top;
pos = (1009,1857);
}
);
layerId = m01;
shapes = (
{
closed = 1;
nodes = (
(838,-18,o),
(994,88,o),
(1176,336,c),
(1136,87,ls),
(1130,51,o),
(1139,4,o),
(1201,0,cs),
(1275,-3,o),
(1291,52,o),
(1297,84,cs),
(1407,724,ls),
(1416,777,o),
(1401,811,o),
(1343,811,cs),
(1280,811,o),
(1249,767,o),
(1217,692,cs),
(1068,351,o),
(872,131,o),
(673,131,cs),
(425,131,o),
(298,450,o),
(368,868,cs),
(465,1429,o),
(693,1729,o),
(1047,1729,cs),
(1176,1729,o),
(1301,1673,o),
(1429,1541,cs),
(1469,1500,o),
(1513,1511,o),
(1540,1539,cs),
(1568,1568,o),
(1561,1618,o),
(1533,1647,cs),
(1393,1794,o),
(1228,1876,o),
(1050,1876,cs),
(609,1876,o),
(327,1524,o),
(209,873,cs),
(123,374,o),
(318,-18,o),
(670,-18,cs)
);
},
{
closed = 1;
nodes = (
(331,0,o),
(142,378,o),
(227,870,cs),
(344,1515,o),
(618,1857,o),
(1050,1857,cs),
(1224,1857,o),
(1382,1779,o),
(1520,1634,cs),
(1544,1610,o),
(1546,1573,o),
(1526,1551,cs),
(1506,1529,o),
(1474,1521,o),
(1442,1553,cs),
(1312,1689,o),
(1180,1747,o),
(1047,1747,cs),
(683,1747,o),
(448,1438,o),
(350,870,cs),
(278,447,o),
(411,113,o),
(673,113,cs),
(880,113,o),
(1084,339,o),
(1234,685,cs),
(1265,758,o),
(1290,793,o),
(1343,793,cs),
(1389,793,o),
(1397,773,o),
(1389,728,cs),
(1279,87,ls),
(1274,56,o),
(1262,16,o),
(1202,19,cs),
(1155,21,o),
(1150,52,o),
(1154,83,cs),
(1199,360,ls),
(1205,402,o),
(1199,400,o),
(1173,363,cs),
(989,105,o),
(836,0,o),
(670,0,cs)
);
},
{
closed = 1;
nodes = (
(1506,1549,o),
(1524,1568,o),
(1524,1591,cs),
(1524,1614,o),
(1506,1633,o),
(1483,1633,cs),
(1460,1633,o),
(1441,1614,o),
(1441,1591,cs),
(1441,1568,o),
(1460,1549,o),
(1483,1549,cs)
);
}
);
vertWidth = 0;
width = 1553;
},
{
anchors = (
{
name = bottom;
pos = (778,0);
},
{
name = top;
pos = (1105,1857);
}
);
layerId = "140DECC1-64C4-40C0-9C07-503DBC3F4160";
shapes = (
{
closed = 1;
nodes = (
(924,-18,o),
(1058,67,o),
(1179,217,c),
(1168,161,ls),
(1148,60,o),
(1220,-1,o),
(1329,-1,cs),
(1440,-1,o),
(1471,60,o),
(1484,135,cs),
(1594,760,ls),
(1612,860,o),
(1555,926,o),
(1455,926,cs),
(1395,926,o),
(1327,911,o),
(1250,770,cs),
(1106,518,o),
(926,276,o),
(741,276,cs),
(585,276,o),
(493,493,o),
(557,866,cs),
(639,1346,o),
(838,1582,o),
(1162,1582,cs),
(1289,1582,o),
(1374,1554,o),
(1463,1473,cs),
(1537,1407,o),
(1635,1375,o),
(1707,1448,cs),
(1782,1523,o),
(1739,1619,o),
(1663,1688,cs),
(1507,1829,o),
(1346,1876,o),
(1165,1876,cs),
(664,1876,o),
(352,1536,o),
(234,874,cs),
(138,325,o),
(357,-18,o),
(739,-18,cs)
);
},
{
closed = 1;
nodes = (
(379,19,o),
(178,336,o),
(271,869,cs),
(386,1517,o),
(682,1839,o),
(1165,1839,cs),
(1340,1839,o),
(1490,1795,o),
(1639,1660,cs),
(1707,1598,o),
(1737,1530,o),
(1681,1474,cs),
(1626,1419,o),
(1553,1441,o),
(1487,1500,cs),
(1393,1587,o),
(1295,1619,o),
(1162,1619,cs),
(819,1619,o),
(604,1364,o),
(520,871,cs),
(454,484,o),
(558,239,o),
(741,239,cs),
(946,239,o),
(1136,497,o),
(1282,751,cs),
(1350,877,o),
(1400,889,o),
(1455,889,cs),
(1536,889,o),
(1571,846,o),
(1557,766,cs),
(1447,141,ls),
(1436,75,o),
(1416,36,o),
(1329,36,cs),
(1236,36,o),
(1191,76,o),
(1205,154,cs),
(1227,275,ls),
(1237,328,o),
(1219,333,o),
(1184,286,cs),
(1059,112,o),
(929,19,o),
(739,19,cs)
);
},
{
closed = 1;
nodes = (
(1639,1491,o),
(1664,1516,o),
(1664,1547,cs),
(1664,1577,o),
(1639,1602,o),
(1609,1602,cs),
(1578,1602,o),
(1553,1577,o),
(1553,1547,cs),
(1553,1516,o),
(1578,1491,o),
(1609,1491,cs)
);
}
);
vertWidth = 0;
width = 1708;
}
);
metricLeft = G;
metricWidth = G;
},
{
color = 5;
glyphname = H.ss04;
lastChange = "2023-10-27 06:08:01 +0000";
layers = (
{
anchors = (
{
name = bottom;
pos = (735,0);
},
{
name = center;
pos = (898,929);
},
{
name = top;
pos = (1062,1857);
},
{
name = topleft;
pos = (354,1857);
}
);
layerId = m01;
shapes = (
{
closed = 1;
nodes = (
(336,0,o),
(347,50,o),
(352,80,cs),
(502,930,l),
(1292,930,l),
(1146,87,ls),
(1139,51,o),
(1147,0,o),
(1219,0,cs),
(1281,0,o),
(1299,42,o),
(1304,70,cs),
(1603,1766,ls),
(1612,1819,o),
(1591,1857,o),
(1530,1857,cs),
(1471,1857,o),
(1445,1820,o),
(1439,1788,cs),
(1316,1073,l),
(527,1073,l),
(648,1758,ls),
(658,1816,o),
(640,1857,o),
(585,1857,cs),
(525,1857,o),
(499,1821,o),
(491,1774,cs),
(193,87,ls),
(185,38,o),
(210,0,o),
(266,0,cs)
);
},
{
closed = 1;
nodes = (
(220,19,o),
(203,43,o),
(211,83,cs),
(508,1770,ls),
(516,1813,o),
(535,1839,o),
(585,1839,cs),
(628,1839,o),
(639,1811,o),
(630,1761,cs),
(505,1055,l),
(1332,1055,l),
(1458,1784,ls),
(1462,1812,o),
(1483,1839,o),
(1530,1839,cs),
(1579,1839,o),
(1594,1814,o),
(1585,1769,cs),
(1286,73,ls),
(1282,48,o),
(1269,19,o),
(1219,19,cs),
(1163,19,o),
(1159,52,o),
(1164,83,cs),
(1313,948,l),
(486,948,l),
(334,82,ls),
(329,55,o),
(322,19,o),
(266,19,cs)
);
},
{
closed = 1;
nodes = (
(594,1733,o),
(612,1752,o),
(612,1775,cs),
(612,1798,o),
(594,1817,o),
(570,1817,cs),
(547,1817,o),
(529,1798,o),
(529,1775,cs),
(529,1752,o),
(547,1733,o),
(570,1733,cs)
);
}
);
vertWidth = 0;
width = 1601;
},
{
anchors = (
{
name = bottom;
pos = (766,0);
},
{
name = center;
pos = (929,929);
},
{
name = top;
pos = (1093,1857);
},
{
name = topleft;
pos = (303,1857);
}
);
layerId = "140DECC1-64C4-40C0-9C07-503DBC3F4160";
shapes = (
{
closed = 1;
nodes = (
(415,-18,o),
(467,48,o),
(475,113,c),
(592,787,l),
(1222,787,l),
(1110,142,ls),
(1093,49,o),
(1153,-18,o),
(1258,-18,cs),
(1348,-18,o),
(1417,36,o),
(1431,102,c),
(1710,1709,ls),
(1728,1814,o),
(1660,1876,o),
(1561,1876,cs),
(1471,1876,o),
(1403,1827,o),
(1391,1755,cs),
(1273,1082,l),
(643,1082,l),
(752,1703,ls),
(771,1816,o),
(710,1876,o),
(617,1876,cs),
(534,1876,o),
(450,1836,o),
(433,1744,cs),
(152,143,ls),
(136,52,o),
(204,-18,o),
(305,-18,cs)
);
},
{
closed = 1;
nodes = (
(222,19,o),
(176,67,o),
(189,136,cs),
(470,1736,ls),
(483,1808,o),
(545,1839,o),
(617,1839,cs),
(692,1839,o),
(731,1800,o),
(715,1708,cs),
(599,1045,l),
(1305,1045,l),
(1428,1749,ls),
(1436,1804,o),
(1485,1839,o),
(1561,1839,cs),
(1642,1839,o),
(1688,1798,o),
(1673,1717,cs),
(1394,109,ls),
(1383,58,o),
(1333,19,o),
(1258,19,cs),
(1172,19,o),
(1133,63,o),
(1147,137,cs),
(1267,824,l),
(561,824,l),
(438,118,l),
(432,65,o),
(395,19,o),
(305,19,cs)
);
},
{
closed = 1;
nodes = (
(625,1683,o),
(650,1708,o),
(650,1738,cs),
(650,1769,o),
(625,1794,o),
(594,1794,cs),
(564,1794,o),
(539,1769,o),
(539,1738,cs),
(539,1708,o),
(564,1683,o),
(594,1683,cs)
);
}
);
vertWidth = 0;
width = 1680;
}
);
metricLeft = H;
metricWidth = H;
},
{
color = 5;
glyphname = I.ss04;
lastChange = "2023-10-27 01:46:19 +0000";
layers = (
{
anchors = (
{
name = bottom;
pos = (287,0);
},
{
name = ogonek;
pos = (591,10);
},
{
name = top;
pos = (614,1857);
},
{
name = topleft;
pos = (256,1857);
}
);
layerId = m01;
shapes = (
{
closed = 1;
nodes = (
(430,0,ls),
(495,0,o),
(513,37,o),
(513,73,cs),
(513,113,o),
(495,150,o),
(430,150,cs),
(392,150,l),
(667,1710,l),
(726,1710,ls),
(787,1710,o),
(806,1750,o),
(806,1786,cs),
(806,1823,o),
(787,1857,o),
(726,1857,cs),
(473,1857,ls),
(409,1857,o),
(391,1823,o),
(391,1786,cs),
(391,1750,o),
(409,1710,o),
(473,1710,cs),
(501,1710,l),
(229,150,l),
(166,150,ls),
(105,150,o),
(86,112,o),
(86,73,cs),
(86,37,o),
(105,0,o),
(166,0,cs)
);
},
{
closed = 1;
nodes = (
(117,19,o),
(104,43,o),
(104,73,cs),
(104,106,o),
(117,131,o),
(166,131,cs),
(245,131,l),
(523,1729,l),
(473,1729,ls),
(422,1729,o),
(409,1755,o),
(409,1786,cs),
(409,1818,o),
(422,1839,o),
(473,1839,cs),
(726,1839,ls),
(776,1839,o),
(788,1818,o),
(788,1786,cs),
(788,1755,o),
(775,1729,o),
(726,1729,cs),
(651,1729,l),
(371,131,l),
(430,131,ls),
(483,131,o),
(495,106,o),
(495,73,cs),
(495,43,o),
(483,19,o),
(430,19,cs),
(166,19,ls)
);
},
{
closed = 1;
nodes = (
(608,1685,o),
(627,1704,o),
(627,1727,cs),
(627,1750,o),
(608,1769,o),
(585,1769,cs),
(562,1769,o),
(544,1750,o),
(544,1727,cs),
(544,1704,o),
(562,1685,o),
(585,1685,cs)
);
}
);
vertWidth = 0;
width = 723;
},
{
anchors = (
{
name = bottom;
pos = (410,0);
},
{
name = ogonek;
pos = (730,10);
},
{
name = top;
pos = (737,1857);
},
{
name = topleft;
pos = (358,1857);
}
);
layerId = "140DECC1-64C4-40C0-9C07-503DBC3F4160";
shapes = (
{
closed = 1;
nodes = (
(710,-18,ls),
(820,-18,o),
(856,50,o),
(866,122,cs),
(879,202,o),
(836,276,o),
(751,276,cs),
(664,276,l),
(891,1582,l),
(997,1582,ls),
(1100,1582,o),
(1147,1659,o),
(1160,1732,cs),
(1170,1814,o),
(1114,1876,o),
(1038,1876,cs),
(527,1876,ls),
(430,1876,o),
(383,1814,o),
(370,1737,cs),
(356,1660,o),
(409,1582,o),
(489,1582,cs),
(563,1582,l),
(338,276,l),
(243,276,ls),
(141,276,o),
(92,204,o),
(79,128,cs),
(65,50,o),
(118,-18,o),
(203,-18,cs)
);
},
{
closed = 1;
nodes = (
(140,19,o),
(104,62,o),
(116,122,cs),
(127,188,o),
(162,239,o),
(243,239,cs),
(369,239,l),
(608,1619,l),
(489,1619,ls),
(432,1619,o),
(396,1671,o),
(407,1732,cs),
(418,1797,o),
(450,1839,o),
(527,1839,cs),
(1038,1839,ls),
(1094,1839,o),
(1131,1798,o),
(1123,1737,cs),
(1112,1673,o),
(1078,1619,o),
(997,1619,cs),
(859,1619,l),
(620,239,l),
(751,239,ls),
(813,239,o),
(840,191,o),
(829,128,cs),
(820,63,o),
(795,19,o),
(710,19,cs),
(203,19,ls)
);
},
{
closed = 1;
nodes = (
(757,1564,o),
(782,1589,o),
(782,1620,cs),
(782,1650,o),
(757,1675,o),
(726,1675,cs),
(696,1675,o),
(671,1650,o),
(671,1620,cs),
(671,1589,o),
(696,1564,o),
(726,1564,cs)
);
}
);
vertWidth = 0;
width = 951;
}
);
metricLeft = I;
metricWidth = I;
},
{
color = 5;
glyphname = J.ss04;
kernLeft = J;
kernRight = J;
lastChange = "2024-03-07 21:56:59 +0000";
layers = (
{
anchors = (
{
name = bottom;
pos = (438,0);
},
{
name = top;
pos = (765,1857);
}
);
layerId = m01;
shapes = (
{
closed = 1;
nodes = (
(-4,0,o),
(251,12,o),
(307,19,cs),
(696,77,o),
(773,426,o),
(848,846,cs),
(1001,1710,l),
(1363,1710,ls),
(1427,1710,o),
(1445,1746,o),
(1445,1784,cs),
(1445,1820,o),
(1427,1857,o),
(1363,1857,cs),
(503,1857,ls),
(439,1857,o),
(420,1820,o),
(420,1784,cs),
(420,1746,o),
(439,1710,o),
(503,1710,cs),
(840,1710,l),
(690,863,ls),
(632,542,o),
(585,216,o),
(316,170,cs),
(239,156,o),
(-23,150,o),
(-90,150,cs),
(-130,150,o),
(-171,122,o),
(-171,78,cs),
(-171,31,o),
(-130,0,o),
(-90,0,cs)
);
},
{
closed = 1;
nodes = (
(-122,19,o),
(-152,41,o),
(-152,78,cs),
(-152,112,o),
(-123,131,o),
(-90,131,cs),
(-23,131,o),
(241,139,o),
(319,153,cs),
(601,201,o),
(650,538,o),
(707,860,cs),
(862,1729,l),
(503,1729,ls),
(451,1729,o),
(438,1753,o),
(438,1784,cs),
(438,1815,o),
(451,1839,o),
(503,1839,cs),
(1363,1839,ls),
(1414,1839,o),
(1427,1815,o),
(1427,1784,cs),
(1427,1753,o),
(1415,1729,o),
(1363,1729,cs),
(987,1729,l),
(829,850,ls),
(754,430,o),
(680,93,o),
(304,38,cs),
(249,31,o),
(-4,19,o),
(-90,19,cs)
);
},
{
closed = 1;
nodes = (
(946,1685,o),
(964,1704,o),
(964,1727,cs),
(964,1750,o),
(946,1769,o),
(923,1769,cs),
(900,1769,o),
(881,1750,o),
(881,1727,cs),
(881,1704,o),
(900,1685,o),
(923,1685,cs)
);
}
);
vertWidth = 0;
width = 1055;
},
{
anchors = (
{
name = bottom;
pos = (630,0);
},
{
name = top;
pos = (957,1857);
}
);
layerId = "140DECC1-64C4-40C0-9C07-503DBC3F4160";
shapes = (
{
closed = 1;
nodes = (
(179,-18,o),
(428,-14,o),
(480,-6,cs),
(1015,58,o),
(1014,450,o),
(1082,836,cs),
(1215,1582,l),
(1490,1582,ls),
(1593,1582,o),
(1650,1648,o),
(1650,1733,cs),
(1650,1823,o),
(1585,1876,o),
(1492,1876,cs),
(670,1876,ls),
(572,1876,o),
(507,1820,o),
(507,1733,cs),
(507,1643,o),
(571,1582,o),
(665,1582,cs),
(886,1582,l),
(761,879,ls),
(708,576,o),
(685,317,o),
(469,290,cs),
(401,281,o),
(154,276,o),
(94,276,cs),
(16,276,o),
(-64,213,o),
(-64,128,cs),
(-64,39,o),
(17,-18,o),
(94,-18,cs)
);
},
{
closed = 1;
nodes = (
(31,19,o),
(-27,60,o),
(-27,128,cs),
(-27,192,o),
(31,239,o),
(94,239,cs),
(154,239,o),
(404,244,o),
(475,253,cs),
(719,284,o),
(745,571,o),
(798,873,cs),
(931,1619,l),
(665,1619,ls),
(588,1619,o),
(544,1661,o),
(544,1733,cs),
(544,1801,o),
(587,1839,o),
(670,1839,cs),
(1492,1839,ls),
(1570,1839,o),
(1613,1804,o),
(1613,1733,cs),
(1613,1664,o),
(1573,1619,o),
(1490,1619,cs),
(1183,1619,l),
(1045,844,ls),
(976,452,o),
(979,92,o),
(475,31,cs),
(425,23,o),
(179,19,o),
(94,19,cs)
);
},
{
closed = 1;
nodes = (
(1084,1564,o),
(1109,1589,o),
(1109,1620,cs),
(1109,1650,o),
(1084,1675,o),
(1054,1675,cs),
(1023,1675,o),
(998,1650,o),
(998,1620,cs),
(998,1589,o),
(1023,1564,o),
(1054,1564,cs)
);
}
);
vertWidth = 0;
width = 1399;
}
);
metricLeft = J;
metricWidth = J;
},
{
color = 5;
glyphname = K.ss04;
lastChange = "2023-10-27 06:08:01 +0000";
layers = (
{
anchors = (
{
name = bottom;
pos = (670,0);
},
{
name = top;
pos = (997,1857);
}
);
layerId = m01;
shapes = (
{
closed = 1;
nodes = (
(1261,0,o),
(1302,32,o),
(1302,73,cs),
(1302,98,o),
(1291,118,o),
(1267,151,cs),
(630,994,l),
(1546,1708,ls),
(1581,1735,o),
(1602,1756,o),
(1602,1796,cs),
(1602,1823,o),
(1579,1857,o),
(1539,1857,cs),
(1512,1857,o),
(1480,1847,o),
(1444,1819,cs),
(531,1102,l),
(649,1758,ls),
(659,1814,o),
(645,1857,o),
(582,1857,cs),
(520,1857,o),
(499,1821,o),
(491,1773,cs),
(193,102,ls),
(185,54,o),
(209,0,o),
(266,0,cs),
(333,0,o),
(347,57,o),
(354,96,cs),
(498,914,l),
(1133,59,ls),
(1155,30,o),
(1181,0,o),
(1223,0,cs)
);
},
{
closed = 1;
nodes = (
(1189,19,o),
(1169,42,o),
(1147,69,cs),
(506,933,ls),
(490,956,o),
(487,956,o),
(483,932,cs),
(335,99,ls),
(329,61,o),
(319,19,o),
(266,19,cs),
(222,19,o),
(203,58,o),
(210,98,cs),
(508,1770,ls),
(516,1814,o),
(531,1839,o),
(582,1839,cs),
(630,1839,o),
(640,1812,o),
(630,1761,cs),
(511,1090,ls),
(506,1064,o),
(510,1062,o),
(536,1082,cs),
(1455,1806,ls),
(1489,1832,o),
(1516,1839,o),
(1537,1839,cs),
(1568,1839,o),
(1583,1817,o),
(1583,1796,cs),
(1583,1764,o),
(1569,1748,o),
(1535,1721,cs),
(604,998,l),
(1252,140,ls),
(1275,109,o),
(1283,93,o),
(1283,73,cs),
(1283,43,o),
(1254,19,o),
(1223,19,cs)
);
},
{
closed = 1;
nodes = (
(594,1733,o),
(613,1752,o),
(613,1775,cs),
(613,1798,o),
(594,1817,o),
(571,1817,cs),
(548,1817,o),
(530,1798,o),
(530,1775,cs),
(530,1752,o),
(548,1733,o),
(571,1733,cs)
);
}
);
vertWidth = 0;
width = 1413;
},
{
anchors = (
{
name = bottom;
pos = (687,0);
},
{
name = top;
pos = (1014,1857);
}
);
layerId = "140DECC1-64C4-40C0-9C07-503DBC3F4160";
shapes = (
{
closed = 1;
nodes = (
(1349,-18,o),
(1415,54,o),
(1415,135,cs),
(1415,177,o),
(1400,223,o),
(1379,253,cs),
(870,977,l),
(1635,1603,ls),
(1679,1639,o),
(1714,1686,o),
(1714,1746,cs),
(1714,1814,o),
(1663,1876,o),
(1567,1876,cs),
(1517,1876,o),
(1456,1859,o),
(1408,1819,cs),
(667,1215,l),
(755,1703,ls),
(778,1831,o),
(686,1876,o),
(610,1876,cs),
(530,1876,o),
(451,1835,o),
(434,1744,cs),
(153,156,ls),
(136,61,o),
(207,-18,o),
(308,-18,cs),
(406,-18,o),
(460,44,o),
(474,124,cs),
(594,800,l),
(1107,62,ls),
(1142,12,o),
(1203,-18,o),
(1261,-18,cs)
);
},
{
closed = 1;
nodes = (
(1213,19,o),
(1166,42,o),
(1138,82,cs),
(614,837,ls),
(581,883,o),
(571,881,o),
(562,828,cs),
(437,131,ls),
(425,64,o),
(387,19,o),
(308,19,cs),
(226,19,o),
(176,75,o),
(190,151,cs),
(471,1736,ls),
(484,1809,o),
(542,1839,o),
(610,1839,cs),
(675,1839,o),
(736,1808,o),
(718,1708,cs),
(626,1190,ls),
(616,1135,o),
(621,1128,o),
(679,1176,cs),
(1432,1790,ls),
(1474,1824,o),
(1524,1839,o),
(1567,1839,cs),
(1643,1839,o),
(1677,1798,o),
(1677,1746,cs),
(1677,1700,o),
(1652,1664,o),
(1611,1631,cs),
(820,984,l),
(1347,233,ls),
(1366,206,o),
(1378,169,o),
(1378,135,cs),
(1378,70,o),
(1331,19,o),
(1261,19,cs)
);
},
{
closed = 1;
nodes = (
(624,1683,o),
(649,1708,o),
(649,1738,cs),
(649,1769,o),
(624,1794,o),
(593,1794,cs),
(563,1794,o),
(538,1769,o),
(538,1738,cs),
(538,1708,o),
(563,1683,o),
(593,1683,cs)
);
}
);
vertWidth = 0;
width = 1467;
}
);
metricLeft = K;
metricWidth = K;
},
{
color = 5;
glyphname = L.ss04;
lastChange = "2023-10-27 06:08:01 +0000";
layers = (
{
anchors = (
{
name = bottom;
pos = (674,0);
},
{
name = center;
pos = (837,929);
},
{
name = top;
pos = (1001,1857);
},
{
name = topright;
pos = (1651,1857);
}
);
layerId = m01;
shapes = (
{
closed = 1;
nodes = (
(1220,0,ls),
(1278,0,o),
(1302,46,o),
(1302,83,cs),
(1302,122,o),
(1276,150,o),
(1220,150,cs),
(365,150,l),
(650,1758,ls),
(659,1813,o),
(649,1857,o),
(583,1857,cs),
(520,1857,o),
(496,1821,o),
(488,1774,cs),
(193,87,ls),
(185,39,o),
(210,0,o),
(266,0,cs)
);
},
{
closed = 1;
nodes = (
(222,19,o),
(205,44,o),
(211,83,cs),
(505,1770,ls),
(513,1815,o),
(531,1839,o),
(583,1839,cs),
(633,1839,o),
(641,1812,o),
(631,1761,cs),
(343,131,l),
(1220,131,ls),
(1268,131,o),
(1283,113,o),
(1283,83,cs),
(1283,52,o),
(1266,19,o),
(1220,19,cs),
(266,19,ls)
);
},
{
closed = 1;
nodes = (
(596,1733,o),
(615,1752,o),
(615,1775,cs),
(615,1798,o),
(596,1817,o),
(573,1817,cs),
(550,1817,o),
(531,1798,o),
(531,1775,cs),
(531,1752,o),
(550,1733,o),
(573,1733,cs)
);
}
);
vertWidth = 0;
width = 1290;
},
{
anchors = (
{
name = bottom;
pos = (695,0);
},
{
name = center;
pos = (858,929);
},
{
name = top;
pos = (1022,1857);
},
{
name = topright;
pos = (1740,1857);
}
);
layerId = "140DECC1-64C4-40C0-9C07-503DBC3F4160";
shapes = (
{
closed = 1;
nodes = (
(1283,-18,ls),
(1379,-18,o),
(1445,54,o),
(1445,132,cs),
(1445,210,o),
(1379,276,o),
(1283,276,cs),
(506,276,l),
(760,1703,ls),
(784,1838,o),
(700,1876,o),
(621,1876,cs),
(530,1876,o),
(453,1835,o),
(436,1744,cs),
(152,142,ls),
(137,52,o),
(198,-18,o),
(294,-18,cs)
);
},
{
closed = 1;
nodes = (
(218,19,o),
(176,66,o),
(189,137,cs),
(473,1736,ls),
(486,1809,o),
(541,1839,o),
(621,1839,cs),
(690,1839,o),
(741,1815,o),
(723,1708,cs),
(461,239,l),
(1283,239,ls),
(1361,239,o),
(1408,192,o),
(1408,132,cs),
(1408,70,o),
(1360,19,o),
(1283,19,cs),
(294,19,ls)
);
},
{
closed = 1;
nodes = (
(630,1683,o),
(655,1708,o),
(655,1738,cs),
(655,1769,o),
(630,1794,o),
(600,1794,cs),
(569,1794,o),
(544,1769,o),
(544,1738,cs),
(544,1708,o),
(569,1683,o),
(600,1683,cs)
);
}
);
vertWidth = 0;
width = 1408;
}
);
metricLeft = L;
metricWidth = L;
},
{
color = 5;
glyphname = M.ss04;
lastChange = "2023-10-27 01:46:19 +0000";
layers = (
{
anchors = (
{
name = bottom;
pos = (1064,0);
},
{
name = top;
pos = (1391,1857);
}
);
layerId = m01;
shapes = (
{
closed = 1;
nodes = (
(55,0,o),
(95,23,o),
(123,77,cs),
(877,1539,l),
(986,77,ls),
(988,47,o),
(1003,0,o),
(1074,0,cs),
(1135,0,o),
(1159,53,o),
(1171,74,cs),
(1930,1544,l),
(2042,78,ls),
(2045,47,o),
(2060,0,o),
(2128,0,cs),
(2179,0,o),
(2205,36,o),
(2201,84,cs),
(2062,1770,ls),
(2059,1818,o),
(2048,1857,o),
(1982,1857,cs),
(1914,1857,o),
(1895,1809,o),
(1878,1778,cs),
(1121,304,l),
(1008,1797,ls),
(1006,1820,o),
(986,1857,o),
(927,1857,cs),
(874,1857,o),
(852,1821,o),
(833,1783,cs),
(-35,120,ls),
(-73,47,o),
(-29,0,o),
(23,0,cs)
);
},
{
closed = 1;
nodes = (
(-20,19,o),
(-50,52,o),
(-18,112,cs),
(849,1775,ls),
(868,1812,o),
(885,1839,o),
(927,1839,cs),
(974,1839,o),
(987,1814,o),
(989,1795,cs),
(1103,287,ls),
(1106,248,o),
(1112,249,o),
(1131,285,cs),
(1895,1770,ls),
(1911,1801,o),
(1926,1839,o),
(1982,1839,cs),
(2034,1839,o),
(2040,1814,o),
(2044,1769,cs),
(2182,82,ls),
(2185,43,o),
(2168,19,o),
(2128,19,cs),
(2074,19,o),
(2062,52,o),
(2060,79,cs),
(1948,1562,ls),
(1945,1599,o),
(1940,1602,o),
(1920,1563,cs),
(1154,82,ls),
(1143,61,o),
(1123,19,o),
(1074,19,cs),
(1017,19,o),
(1007,51,o),
(1005,79,cs),
(894,1557,ls),
(891,1590,o),
(883,1592,o),
(863,1552,cs),
(107,85,ls),
(82,36,o),
(50,19,o),
(23,19,cs)
);
},
{
closed = 1;
nodes = (
(52,35,o),
(71,54,o),
(71,77,cs),
(71,100,o),
(52,118,o),
(29,118,cs),
(6,118,o),
(-13,100,o),
(-13,77,cs),
(-13,54,o),
(6,35,o),
(29,35,cs)
);
}
);
vertWidth = 0;
width = 2337;
},
{
anchors = (
{
name = bottom;
pos = (1087,0);
},
{
name = top;
pos = (1414,1857);
}
);
layerId = "140DECC1-64C4-40C0-9C07-503DBC3F4160";
shapes = (
{
closed = 1;
nodes = (
(164,-18,o),
(250,10,o),
(288,85,cs),
(858,1203,l),
(941,114,ls),
(947,41,o),
(1005,-18,o),
(1101,-18,cs),
(1226,-18,o),
(1260,46,o),
(1277,80,cs),
(1856,1205,l),
(1935,115,ls),
(1940,44,o),
(2009,-18,o),
(2107,-18,cs),
(2199,-18,o),
(2263,48,o),
(2256,134,cs),
(2125,1734,ls),
(2118,1820,o),
(2097,1876,o),
(1982,1876,cs),
(1890,1876,o),
(1835,1838,o),
(1800,1770,cs),
(1211,630,l),
(1130,1733,ls),
(1124,1823,o),
(1084,1876,o),
(955,1876,cs),
(867,1876,o),
(837,1835,o),
(804,1772,cs),
(-21,191,ls),
(-79,81,o),
(8,-18,o),
(105,-18,cs)
);
},
{
closed = 1;
nodes = (
(29,19,o),
(-34,88,o),
(12,175,cs),
(837,1756,ls),
(867,1814,o),
(887,1839,o),
(955,1839,cs),
(1064,1839,o),
(1088,1807,o),
(1093,1732,cs),
(1176,586,ls),
(1182,511,o),
(1189,511,o),
(1229,586,cs),
(1833,1753,ls),
(1863,1810,o),
(1903,1839,o),
(1982,1839,cs),
(2071,1839,o),
(2082,1809,o),
(2088,1731,cs),
(2219,130,ls),
(2224,64,o),
(2182,19,o),
(2107,19,cs),
(2026,19,o),
(1976,64,o),
(1972,117,cs),
(1890,1261,ls),
(1885,1329,o),
(1879,1329,o),
(1841,1256,cs),
(1244,97,ls),
(1227,64,o),
(1203,19,o),
(1101,19,cs),
(1024,19,o),
(983,59,o),
(978,117,cs),
(892,1252,ls),
(887,1326,o),
(880,1325,o),
(843,1252,cs),
(255,102,ls),
(225,42,o),
(156,19,o),
(105,19,cs)
);
},
{
closed = 1;
nodes = (
(141,65,o),
(166,90,o),
(166,120,cs),
(166,151,o),
(141,176,o),
(111,176,cs),
(80,176,o),
(55,151,o),
(55,120,cs),
(55,90,o),
(80,65,o),
(111,65,cs)
);
}
);
vertWidth = 0;
width = 2318;
}
);
metricLeft = M;
metricWidth = M;
},
{
color = 5;
glyphname = N.ss04;
lastChange = "2023-10-27 06:08:01 +0000";
layers = (
{
anchors = (
{
name = bottom;
pos = (733,0);
},
{
name = top;
pos = (1060,1857);
}
);
layerId = m01;
shapes = (
{
closed = 1;
nodes = (
(335,0,o),
(347,52,o),
(354,87,cs),
(605,1523,l),
(1141,56,ls),
(1152,27,o),
(1181,0,o),
(1225,0,cs),
(1293,0,o),
(1299,51,o),
(1304,80,cs),
(1599,1758,ls),
(1608,1813,o),
(1598,1857,o),
(1535,1857,cs),
(1475,1857,o),
(1451,1821,o),
(1443,1773,cs),
(1192,359,l),
(678,1795,ls),
(667,1822,o),
(635,1857,o),
(579,1857,cs),
(514,1857,o),
(496,1820,o),
(488,1774,cs),
(193,87,ls),
(185,39,o),
(210,0,o),
(266,0,cs)
);
},
{
closed = 1;
nodes = (
(221,19,o),
(204,44,o),
(210,83,cs),
(505,1770,ls),
(513,1815,o),
(527,1839,o),
(579,1839,cs),
(627,1839,o),
(652,1812,o),
(660,1788,cs),
(1183,329,ls),
(1194,298,o),
(1199,298,o),
(1205,329,cs),
(1461,1770,ls),
(1468,1813,o),
(1486,1839,o),
(1535,1839,cs),
(1582,1839,o),
(1591,1812,o),
(1581,1761,cs),
(1286,82,ls),
(1282,54,o),
(1277,19,o),
(1225,19,cs),
(1189,19,o),
(1168,38,o),
(1159,63,cs),
(615,1550,ls),
(603,1584,o),
(597,1584,o),
(592,1550,cs),
(335,90,ls),
(330,56,o),
(321,19,o),
(266,19,cs)
);
},
{
closed = 1;
nodes = (
(293,35,o),
(311,54,o),
(311,77,cs),
(311,100,o),
(293,118,o),
(270,118,cs),
(246,118,o),
(228,100,o),
(228,77,cs),
(228,54,o),
(246,35,o),
(270,35,cs)
);
}
);
vertWidth = 0;
width = 1603;
},
{
anchors = (
{
name = bottom;
pos = (766,0);
},
{
name = top;
pos = (1093,1857);
}
);
layerId = "140DECC1-64C4-40C0-9C07-503DBC3F4160";
shapes = (
{
closed = 1;
nodes = (
(398,-18,o),
(463,44,o),
(475,117,cs),
(653,1193,l),
(1123,72,ls),
(1148,14,o),
(1197,-18,o),
(1277,-18,cs),
(1386,-18,o),
(1419,48,o),
(1431,112,cs),
(1710,1702,ls),
(1728,1804,o),
(1675,1885,o),
(1568,1885,cs),
(1481,1885,o),
(1406,1834,o),
(1391,1743,cs),
(1212,657,l),
(741,1781,ls),
(712,1850,o),
(654,1876,o),
(589,1876,cs),
(508,1876,o),
(452,1831,o),
(436,1743,cs),
(152,143,ls),
(136,52,o),
(200,-18,o),
(293,-18,cs)
);
},
{
closed = 1;
nodes = (
(220,19,o),
(177,66,o),
(189,136,cs),
(473,1737,ls),
(486,1808,o),
(523,1839,o),
(589,1839,cs),
(642,1839,o),
(684,1820,o),
(707,1766,cs),
(1194,603,ls),
(1223,533,o),
(1229,533,o),
(1241,608,cs),
(1428,1737,ls),
(1440,1810,o),
(1494,1848,o),
(1568,1848,cs),
(1652,1848,o),
(1688,1794,o),
(1673,1709,cs),
(1394,119,ls),
(1383,61,o),
(1361,19,o),
(1277,19,cs),
(1210,19,o),
(1176,40,o),
(1157,87,cs),
(671,1247,ls),
(642,1315,o),
(636,1314,o),
(624,1243,cs),
(438,123,ls),
(429,65,o),
(382,19,o),
(293,19,cs)
);
},
{
closed = 1;
nodes = (
(336,65,o),
(361,90,o),
(361,120,cs),
(361,151,o),
(336,176,o),
(306,176,cs),
(275,176,o),
(250,151,o),
(250,120,cs),
(250,90,o),
(275,65,o),
(306,65,cs)
);
}
);
vertWidth = 0;
width = 1676;
}
);
metricLeft = N;
metricWidth = N;
},
{
color = 5;
glyphname = O.ss04;
lastChange = "2023-10-27 01:46:19 +0000";
layers = (
{
anchors = (
{
name = bottom;
pos = (668,0);
},
{
name = center;
pos = (831,929);
},
{
name = ogonek;
pos = (1276,10);
},
{
name = top;
pos = (995,1857);
},
{
name = topleft;
pos = (257,1857);
},
{
name = topright;
pos = (1733,1857);
}
);
layerId = m01;
shapes = (
{
closed = 1;
nodes = (
(1209,0,o),
(1429,731,o),
(1495,1103,cs),
(1579,1573,o),
(1425,1857,o),
(1016,1857,cs),
(507,1857,o),
(288,1335,o),
(221,943,cs),
(142,480,o),
(219,0,o),
(717,0,cs)
);
},
{
closed = 1;
nodes = (
(235,19,o),
(161,481,o),
(239,939,cs),
(306,1329,o),
(519,1839,o),
(1016,1839,cs),
(1413,1839,o),
(1559,1568,o),
(1476,1106,cs),
(1411,735,o),
(1195,19,o),
(717,19,cs)
);
},
{
closed = 1;
nodes = (
(318,580,o),
(346,150,o),
(714,150,cs),
(1036,150,o),
(1281,779,o),
(1336,1090,cs),
(1393,1410,o),
(1370,1710,o),
(1002,1710,cs),
(596,1710,o),
(422,1155,o),
(377,910,cs)
);
},
{
closed = 1;
nodes = (
(404,1160,o),
(583,1729,o),
(1002,1729,cs),
(1387,1729,o),
(1411,1410,o),
(1353,1087,cs),
(1299,773,o),
(1050,131,o),
(714,131,cs),
(328,131,o),
(300,581,o),
(360,914,cs)
);
},
{
closed = 1;
nodes = (
(1335,1646,o),
(1353,1664,o),
(1353,1687,cs),
(1353,1710,o),
(1335,1729,o),
(1312,1729,cs),
(1288,1729,o),
(1270,1710,o),
(1270,1687,cs),
(1270,1664,o),
(1288,1646,o),
(1312,1646,cs)
);
}
);
vertWidth = 0;
width = 1525;
},
{
anchors = (
{
name = bottom;
pos = (755,0);
},
{
name = center;
pos = (918,929);
},
{
name = ogonek;
pos = (1431,10);
},
{
name = top;
pos = (1082,1857);
},
{
name = topleft;
pos = (259,1857);
},
{
name = topright;
pos = (1905,1857);
}
);
layerId = "140DECC1-64C4-40C0-9C07-503DBC3F4160";
shapes = (
{
closed = 1;
nodes = (
(1241,-18,o),
(1569,413,o),
(1692,1104,cs),
(1774,1582,o),
(1617,1876,o),
(1127,1876,cs),
(650,1876,o),
(353,1560,o),
(242,944,cs),
(139,353,o),
(361,-18,o),
(823,-18,cs)
);
},
{
closed = 1;
nodes = (
(384,19,o),
(179,364,o),
(279,938,cs),
(387,1541,o),
(669,1839,o),
(1127,1839,cs),
(1592,1839,o),
(1735,1573,o),
(1655,1109,cs),
(1535,431,o),
(1221,19,o),
(823,19,cs)
);
},
{
closed = 1;
nodes = (
(492,507,o),
(590,276,o),
(821,276,cs),
(1071,276,o),
(1280,583,o),
(1368,1092,cs),
(1426,1414,o),
(1403,1582,o),
(1112,1582,cs),
(825,1582,o),
(644,1361,o),
(561,909,cs)
);
},
{
closed = 1;
nodes = (
(610,1379,o),
(806,1619,o),
(1112,1619,cs),
(1437,1619,o),
(1463,1417,o),
(1405,1087,cs),
(1315,566,o),
(1093,239,o),
(821,239,cs),
(564,239,o),
(453,500,o),
(524,915,cs)
);
},
{
closed = 1;
nodes = (
(1440,1605,o),
(1465,1630,o),
(1465,1660,cs),
(1465,1691,o),
(1440,1716,o),
(1410,1716,cs),
(1379,1716,o),
(1354,1691,o),
(1354,1660,cs),
(1354,1630,o),
(1379,1605,o),
(1410,1605,cs)
);
}
);
vertWidth = 0;
width = 1648;
}
);
metricLeft = O;
metricWidth = O;
},
{
color = 5;
glyphname = P.ss04;
kernRight = P;
lastChange = "2024-03-07 21:58:01 +0000";
layers = (
{
anchors = (
{
name = bottom;
pos = (652,0);
},
{
name = top;
pos = (979,1857);
}
);
layerId = m01;
shapes = (
{
closed = 1;
nodes = (
(336,0,o),
(346,51,o),
(351,80,cs),
(501,924,l),
(1058,929,o),
(1483,991,o),
(1535,1381,cs),
(1579,1708,o),
(1197,1857,o),
(586,1857,cs),
(518,1857,o),
(499,1821,o),
(491,1774,cs),
(193,87,ls),
(185,39,o),
(211,0,o),
(267,0,cs)
);
},
{
closed = 1;
nodes = (
(222,19,o),
(205,44,o),
(211,83,cs),
(509,1770,ls),
(517,1814,o),
(530,1839,o),
(586,1839,cs),
(1192,1839,o),
(1557,1695,o),
(1517,1384,cs),
(1467,1004,o),
(1048,946,o),
(486,942,c),
(334,82,ls),
(329,54,o),
(322,19,o),
(267,19,cs)
);
},
{
closed = 1;
nodes = (
(980,1079,o),
(1345,1138,o),
(1377,1399,cs),
(1399,1578,o),
(1191,1702,o),
(640,1710,c),
(528,1073,l)
);
},
{
closed = 1;
nodes = (
(624,1729,l),
(1194,1723,o),
(1418,1591,o),
(1394,1396,cs),
(1360,1116,o),
(970,1059,o),
(506,1055,c)
);
},
{
closed = 1;
nodes = (
(600,1733,o),
(618,1752,o),
(618,1775,cs),
(618,1798,o),
(600,1817,o),
(577,1817,cs),
(554,1817,o),
(535,1798,o),
(535,1775,cs),
(535,1752,o),
(554,1733,o),
(577,1733,cs)
);
}
);
vertWidth = 0;
width = 1375;
},
{
anchors = (
{
name = bottom;
pos = (708,0);
},
{
name = top;
pos = (1035,1857);
}
);
layerId = "140DECC1-64C4-40C0-9C07-503DBC3F4160";
shapes = (
{
closed = 1;
nodes = (
(412,-18,o),
(466,38,o),
(478,107,cs),
(604,826,l),
(1108,839,o),
(1579,851,o),
(1647,1333,cs),
(1704,1734,o),
(1311,1876,o),
(606,1876,cs),
(511,1876,o),
(451,1834,o),
(435,1744,cs),
(152,141,ls),
(137,52,o),
(200,-18,o),
(305,-18,cs)
);
},
{
closed = 1;
nodes = (
(220,19,o),
(177,66,o),
(189,133,cs),
(472,1736,ls),
(485,1810,o),
(525,1839,o),
(606,1839,cs),
(1302,1839,o),
(1664,1708,o),
(1610,1338,cs),
(1545,875,o),
(1085,873,o),
(572,863,c),
(441,115,ls),
(431,56,o),
(392,19,o),
(305,19,cs)
);
},
{
closed = 1;
nodes = (
(1024,1137,o),
(1308,1139,o),
(1334,1351,cs),
(1354,1515,o),
(1291,1587,o),
(738,1588,c),
(656,1122,l)
);
},
{
closed = 1;
nodes = (
(706,1625,l),
(1310,1627,o),
(1394,1534,o),
(1371,1348,cs),
(1340,1097,o),
(1004,1094,o),
(611,1083,c)
);
},
{
closed = 1;
nodes = (
(607,1683,o),
(632,1708,o),
(632,1738,cs),
(632,1769,o),
(607,1794,o),
(577,1794,cs),
(546,1794,o),
(521,1769,o),
(521,1738,cs),
(521,1708,o),
(546,1683,o),
(577,1683,cs)
);
}
);
vertWidth = 0;
width = 1508;
}
);
metricLeft = P;
metricWidth = P;
},
{
color = 5;
glyphname = Q.ss04;
lastChange = "2023-10-27 01:46:19 +0000";
layers = (
{
anchors = (
{
name = bottom;
pos = (669,0);
},
{
name = top;
pos = (996,1857);
}
);
layerId = m01;
shapes = (
{
closed = 1;
nodes = (
(795,-1,o),
(867,18,o),
(930,49,c),
(1080,-168,ls),
(1112,-214,o),
(1162,-241,o),
(1202,-216,cs),
(1249,-191,o),
(1249,-130,o),
(1222,-93,cs),
(1062,140,l),
(1318,370,o),
(1448,831,o),
(1496,1102,cs),
(1580,1572,o),
(1426,1856,o),
(1017,1856,cs),
(508,1856,o),
(289,1334,o),
(222,941,cs),
(143,479,o),
(220,-1,o),
(718,-1,cs)
);
},
{
closed = 1;
nodes = (
(236,18,o),
(162,480,o),
(240,938,cs),
(307,1328,o),
(520,1838,o),
(1017,1838,cs),
(1414,1838,o),
(1560,1567,o),
(1477,1105,cs),
(1430,831,o),
(1298,365,o),
(1038,142,c),
(1207,-105,ls),
(1229,-135,o),
(1229,-181,o),
(1193,-201,cs),
(1162,-219,o),
(1124,-199,o),
(1096,-158,cs),
(936,73,l),
(870,37,o),
(797,18,o),
(718,18,cs)
);
},
{
closed = 1;
nodes = (
(319,579,o),
(347,148,o),
(715,148,cs),
(758,148,o),
(800,160,o),
(841,180,c),
(786,260,ls),
(753,308,o),
(747,348,o),
(784,377,cs),
(830,414,o),
(886,394,o),
(918,350,cs),
(967,278,l),
(1161,480,o),
(1298,867,o),
(1337,1089,cs),
(1394,1409,o),
(1371,1709,o),
(1003,1709,cs),
(597,1709,o),
(423,1154,o),
(378,909,cs)
);
},
{
closed = 1;
nodes = (
(405,1159,o),
(584,1728,o),
(1003,1728,cs),
(1388,1728,o),
(1412,1409,o),
(1354,1085,cs),
(1314,857,o),
(1169,450,o),
(964,250,c),
(902,339,ls),
(875,377,o),
(832,393,o),
(796,363,cs),
(768,340,o),
(771,314,o),
(801,271,cs),
(867,175,l),
(819,146,o),
(768,130,o),
(715,130,cs),
(329,130,o),
(301,579,o),
(361,913,cs)
);
},
{
closed = 1;
nodes = (
(1336,1646,o),
(1354,1664,o),
(1354,1687,cs),
(1354,1710,o),
(1336,1729,o),
(1313,1729,cs),
(1289,1729,o),
(1271,1710,o),
(1271,1687,cs),
(1271,1664,o),
(1289,1646,o),
(1313,1646,cs)
);
}
);
vertWidth = 0;
width = 1509;
},
{
anchors = (
{
name = bottom;
pos = (755,0);
},
{
name = top;
pos = (1082,1857);
}
);
layerId = "140DECC1-64C4-40C0-9C07-503DBC3F4160";
shapes = (
{
closed = 1;
nodes = (
(883,-18,o),
(944,-9,o),
(1001,8,c),
(1110,-152,ls),
(1166,-237,o),
(1266,-265,o),
(1338,-217,cs),
(1412,-171,o),
(1428,-78,o),
(1377,-2,cs),
(1263,167,l),
(1464,356,o),
(1616,682,o),
(1691,1104,cs),
(1773,1582,o),
(1616,1876,o),
(1126,1876,cs),
(649,1876,o),
(352,1560,o),
(241,944,cs),
(138,353,o),
(360,-18,o),
(822,-18,cs)
);
},
{
closed = 1;
nodes = (
(383,19,o),
(178,364,o),
(278,938,cs),
(386,1541,o),
(668,1839,o),
(1126,1839,cs),
(1591,1839,o),
(1734,1573,o),
(1654,1109,cs),
(1577,677,o),
(1422,353,o),
(1215,173,c),
(1346,-22,ls),
(1388,-84,o),
(1376,-150,o),
(1318,-186,cs),
(1263,-223,o),
(1189,-203,o),
(1141,-131,cs),
(1016,53,l),
(953,30,o),
(889,19,o),
(822,19,cs)
);
},
{
closed = 1;
nodes = (
(491,507,o),
(589,276,o),
(820,276,cs),
(820,276,o),
(820,276,o),
(819,276,c),
(810,289,ls),
(759,363,o),
(772,462,o),
(843,511,cs),
(915,562,o),
(1016,536,o),
(1072,450,cs),
(1094,417,l),
(1218,556,o),
(1314,787,o),
(1367,1092,cs),
(1425,1414,o),
(1402,1582,o),
(1111,1582,cs),
(824,1582,o),
(643,1361,o),
(560,909,cs)
);
},
{
closed = 1;
nodes = (
(609,1379,o),
(805,1619,o),
(1111,1619,cs),
(1436,1619,o),
(1462,1417,o),
(1404,1087,cs),
(1346,751,o),
(1233,497,o),
(1090,359,c),
(1041,430,ls),
(993,501,o),
(920,521,o),
(865,481,cs),
(809,442,o),
(799,370,o),
(840,309,cs),
(887,242,l),
(863,242,o),
(844,239,o),
(820,239,cs),
(563,239,o),
(452,500,o),
(523,915,cs)
);
},
{
closed = 1;
nodes = (
(1439,1605,o),
(1464,1630,o),
(1464,1660,cs),
(1464,1691,o),
(1439,1716,o),
(1409,1716,cs),
(1378,1716,o),
(1353,1691,o),
(1353,1660,cs),
(1353,1630,o),
(1378,1605,o),
(1409,1605,cs)
);
}
);
vertWidth = 0;
width = 1647;
}
);
metricLeft = Q;
metricWidth = Q;
},
{
color = 5;
glyphname = R.ss04;
lastChange = "2023-10-27 06:08:01 +0000";
layers = (
{
anchors = (
{
name = bottom;
pos = (662,0);
},
{
name = top;
pos = (989,1857);
}
);
layerId = m01;
shapes = (
{
closed = 1;
nodes = (
(334,0,o),
(345,52,o),
(352,95,cs),
(493,884,l),
(1147,54,ls),
(1177,15,o),
(1208,0,o),
(1233,0,cs),
(1300,0,o),
(1329,74,o),
(1265,155,cs),
(659,927,l),
(1123,945,o),
(1488,1035,o),
(1533,1380,cs),
(1576,1707,o),
(1206,1857,o),
(584,1857,cs),
(516,1857,o),
(497,1821,o),
(489,1774,cs),
(194,104,ls),
(185,52,o),
(208,0,o),
(265,0,cs)
);
},
{
closed = 1;
nodes = (
(221,19,o),
(205,56,o),
(212,100,cs),
(507,1770,ls),
(515,1814,o),
(528,1839,o),
(584,1839,cs),
(1199,1839,o),
(1555,1695,o),
(1515,1384,cs),
(1471,1047,o),
(1114,963,o),
(649,945,cs),
(626,944,o),
(624,939,o),
(637,922,cs),
(1251,143,ls),
(1307,73,o),
(1286,19,o),
(1233,19,cs),
(1213,19,o),
(1188,31,o),
(1160,66,cs),
(502,898,ls),
(482,922,o),
(480,920,o),
(475,894,cs),
(334,99,ls),
(327,56,o),
(320,19,o),
(265,19,cs)
);
},
{
closed = 1;
nodes = (
(975,1079,o),
(1341,1141,o),
(1375,1398,cs),
(1399,1582,o),
(1154,1702,o),
(638,1710,c),
(526,1073,l)
);
},
{
closed = 1;
nodes = (
(622,1729,l),
(1156,1723,o),
(1419,1596,o),
(1393,1395,cs),
(1357,1119,o),
(965,1059,o),
(504,1055,c)
);
},
{
closed = 1;
nodes = (
(598,1733,o),
(617,1752,o),
(617,1775,cs),
(617,1798,o),
(598,1817,o),
(575,1817,cs),
(552,1817,o),
(533,1798,o),
(533,1775,cs),
(533,1752,o),
(552,1733,o),
(575,1733,cs)
);
}
);
vertWidth = 0;
width = 1398;
},
{
anchors = (
{
name = bottom;
pos = (686,0);
},
{
name = top;
pos = (1013,1857);
}
);
layerId = "140DECC1-64C4-40C0-9C07-503DBC3F4160";
shapes = (
{
closed = 1;
nodes = (
(380,-18,o),
(462,53,o),
(479,149,cs),
(583,746,l),
(1115,53,ls),
(1165,-13,o),
(1237,-18,o),
(1275,-18,cs),
(1381,-18,o),
(1479,111,o),
(1359,267,cs),
(916,845,l),
(1289,891,o),
(1588,1022,o),
(1649,1363,cs),
(1715,1735,o),
(1307,1876,o),
(606,1876,cs),
(510,1876,o),
(447,1834,o),
(431,1744,cs),
(153,156,ls),
(137,65,o),
(176,-18,o),
(282,-18,cs)
);
},
{
closed = 1;
nodes = (
(202,19,o),
(176,72,o),
(190,151,cs),
(468,1736,ls),
(481,1810,o),
(523,1839,o),
(606,1839,cs),
(1299,1839,o),
(1672,1709,o),
(1612,1370,cs),
(1553,1040,o),
(1264,921,o),
(887,880,cs),
(849,875,o),
(845,870,o),
(874,833,cs),
(1331,243,ls),
(1433,112,o),
(1358,19,o),
(1275,19,cs),
(1241,19,o),
(1183,24,o),
(1143,77,cs),
(603,776,ls),
(565,825,o),
(562,821,o),
(553,771,cs),
(443,154,ls),
(430,74,o),
(364,19,o),
(282,19,cs)
);
},
{
closed = 1;
nodes = (
(1027,1136,o),
(1305,1203,o),
(1334,1375,cs),
(1356,1508,o),
(1223,1582,o),
(733,1582,c),
(652,1122,l)
);
},
{
closed = 1;
nodes = (
(701,1619,l),
(1231,1622,o),
(1400,1535,o),
(1371,1370,cs),
(1335,1163,o),
(1009,1093,o),
(607,1083,c)
);
},
{
closed = 1;
nodes = (
(603,1683,o),
(628,1708,o),
(628,1738,cs),
(628,1769,o),
(603,1794,o),
(573,1794,cs),
(542,1794,o),
(517,1769,o),
(517,1738,cs),
(517,1708,o),
(542,1683,o),
(573,1683,cs)
);
}
);
vertWidth = 0;
width = 1469;
}
);
metricLeft = R;
metricWidth = R;
},
{
color = 5;
glyphname = S.ss04;
lastChange = "2023-10-27 01:46:18 +0000";
layers = (
{
anchors = (
{
name = bottom;
pos = (551,0);
},
{
name = top;
pos = (878,1857);
}
);
layerId = m01;
shapes = (
{
closed = 1;
nodes = (
(899,0,o),
(1137,216,o),
(1137,564,cs),
(1137,746,o),
(1003,916,o),
(802,1058,cs),
(592,1203,o),
(468,1289,o),
(468,1415,cs),
(468,1597,o),
(640,1710,o),
(923,1710,cs),
(1113,1710,o),
(1155,1659,o),
(1171,1557,cs),
(1176,1511,o),
(1242,1502,o),
(1277,1511,cs),
(1328,1524,o),
(1327,1572,o),
(1323,1601,cs),
(1288,1788,o),
(1169,1857,o),
(926,1857,cs),
(546,1857,o),
(311,1684,o),
(311,1408,cs),
(311,1205,o),
(477,1095,o),
(677,950,cs),
(900,791,o),
(976,678,o),
(976,545,cs),
(976,299,o),
(803,150,o),
(518,150,cs),
(356,150,o),
(278,201,o),
(255,302,cs),
(245,345,o),
(201,363,o),
(163,352,cs),
(114,338,o),
(99,288,o),
(104,258,cs),
(133,89,o),
(290,0,o),
(518,0,cs)
);
},
{
closed = 1;
nodes = (
(296,19,o),
(150,101,o),
(122,261,cs),
(118,285,o),
(129,323,o),
(168,334,cs),
(198,343,o),
(229,331,o),
(237,298,cs),
(262,189,o),
(349,131,o),
(518,131,cs),
(811,131,o),
(994,290,o),
(994,545,cs),
(994,684,o),
(914,804,o),
(687,965,cs),
(487,1110,o),
(329,1215,o),
(329,1408,cs),
(329,1674,o),
(554,1839,o),
(926,1839,cs),
(1163,1839,o),
(1272,1775,o),
(1305,1598,cs),
(1310,1571,o),
(1310,1538,o),
(1273,1528,cs),
(1242,1522,o),
(1193,1527,o),
(1189,1559,cs),
(1172,1667,o),
(1124,1729,o),
(923,1729,cs),
(634,1729,o),
(449,1610,o),
(449,1415,cs),
(449,1279,o),
(582,1188,o),
(791,1043,cs),
(990,903,o),
(1119,740,o),
(1119,564,cs),
(1119,225,o),
(891,19,o),
(518,19,cs)
);
},
{
closed = 1;
nodes = (
(1269,1547,o),
(1287,1565,o),
(1287,1588,cs),
(1287,1611,o),
(1269,1630,o),
(1246,1630,cs),
(1223,1630,o),
(1204,1611,o),
(1204,1588,cs),
(1204,1565,o),
(1223,1547,o),
(1246,1547,cs)
);
}
);
vertWidth = 0;
width = 1268;
},
{
anchors = (
{
name = bottom;
pos = (594,0);
},
{
name = top;
pos = (921,1857);
}
);
layerId = "140DECC1-64C4-40C0-9C07-503DBC3F4160";
shapes = (
{
closed = 1;
nodes = (
(956,-18,o),
(1264,249,o),
(1264,606,cs),
(1264,776,o),
(1199,904,o),
(900,1115,cs),
(755,1219,o),
(581,1315,o),
(581,1393,cs),
(581,1519,o),
(704,1582,o),
(971,1582,cs),
(1092,1582,o),
(1144,1556,o),
(1154,1500,cs),
(1172,1400,o),
(1275,1376,o),
(1342,1397,cs),
(1424,1422,o),
(1452,1494,o),
(1439,1570,cs),
(1400,1790,o),
(1251,1876,o),
(1015,1876,cs),
(524,1876,o),
(267,1714,o),
(267,1393,cs),
(267,1109,o),
(537,990,o),
(688,881,cs),
(899,726,o),
(956,675,o),
(956,575,cs),
(956,405,o),
(806,276,o),
(598,276,cs),
(458,276,o),
(376,312,o),
(366,357,cs),
(347,455,o),
(249,472,o),
(183,459,cs),
(96,441,o),
(64,365,o),
(80,288,cs),
(113,98,o),
(295,-18,o),
(550,-18,cs)
);
},
{
closed = 1;
nodes = (
(308,19,o),
(146,122,o),
(117,295,c),
(103,359,o),
(125,409,o),
(191,422,cs),
(247,434,o),
(315,422,o),
(329,350,cs),
(344,283,o),
(448,239,o),
(598,239,cs),
(821,239,o),
(993,386,o),
(993,575,cs),
(993,693,o),
(923,755,o),
(710,910,cs),
(555,1022,o),
(304,1133,o),
(304,1393,cs),
(304,1691,o),
(537,1839,o),
(1015,1839,cs),
(1239,1839,o),
(1366,1764,o),
(1402,1562,cs),
(1413,1501,o),
(1394,1450,o),
(1331,1432,cs),
(1275,1414,o),
(1203,1433,o),
(1191,1508,cs),
(1177,1584,o),
(1103,1619,o),
(971,1619,cs),
(692,1619,o),
(544,1544,o),
(544,1393,cs),
(544,1291,o),
(734,1188,o),
(878,1085,cs),
(1168,881,o),
(1227,765,o),
(1227,606,cs),
(1227,268,o),
(941,19,o),
(550,19,cs)
);
},
{
closed = 1;
nodes = (
(1330,1474,o),
(1355,1499,o),
(1355,1529,cs),
(1355,1560,o),
(1330,1585,o),
(1300,1585,cs),
(1269,1585,o),
(1244,1560,o),
(1244,1529,cs),
(1244,1499,o),
(1269,1474,o),
(1300,1474,cs)
);
}
);
vertWidth = 0;
width = 1326;
}
);
metricLeft = S;
metricWidth = S;
},
{
color = 5;
glyphname = T.ss04;
kernLeft = T;
kernRight = T;
lastChange = "2024-03-07 21:53:27 +0000";
layers = (
{
anchors = (
{
name = bottom;
pos = (491,0);
},
{
name = center;
pos = (654,929);
},
{
name = top;
pos = (818,1857);
}
);
layerId = m01;
shapes = (
{
closed = 1;
nodes = (
(640,0,o),
(651,50,o),
(656,80,cs),
(941,1710,l),
(1409,1710,ls),
(1470,1710,o),
(1489,1746,o),
(1489,1784,cs),
(1489,1820,o),
(1471,1857,o),
(1409,1857,cs),
(314,1857,ls),
(249,1857,o),
(231,1820,o),
(231,1784,cs),
(231,1746,o),
(250,1710,o),
(314,1710,cs),
(779,1710,l),
(498,87,l),
(487,39,o),
(513,0,o),
(571,0,cs)
);
},
{
closed = 1;
nodes = (
(524,19,o),
(507,44,o),
(516,83,c),
(801,1729,l),
(314,1729,ls),
(261,1729,o),
(249,1753,o),
(249,1784,cs),
(249,1815,o),
(262,1839,o),
(314,1839,cs),
(1409,1839,ls),
(1458,1839,o),
(1471,1815,o),
(1471,1784,cs),
(1471,1753,o),
(1459,1729,o),
(1409,1729,cs),
(925,1729,l),
(638,82,ls),
(634,54,o),
(626,19,o),
(571,19,cs)
);
},
{
closed = 1;
nodes = (
(885,1687,o),
(903,1706,o),
(903,1729,cs),
(903,1752,o),
(885,1770,o),
(861,1770,cs),
(838,1770,o),
(820,1752,o),
(820,1729,cs),
(820,1706,o),
(838,1687,o),
(861,1687,cs)
);
}
);
vertWidth = 0;
width = 1141;
},
{
anchors = (
{
name = bottom;
pos = (524,0);
},
{
name = center;
pos = (687,929);
},
{
name = top;
pos = (851,1857);
}
);
layerId = "140DECC1-64C4-40C0-9C07-503DBC3F4160";
shapes = (
{
closed = 1;
nodes = (
(709,-21,o),
(763,41,o),
(777,107,c),
(1036,1591,l),
(1415,1591,ls),
(1518,1591,o),
(1576,1658,o),
(1576,1734,cs),
(1576,1819,o),
(1512,1885,o),
(1415,1885,cs),
(381,1885,ls),
(284,1885,o),
(220,1819,o),
(220,1734,cs),
(220,1658,o),
(278,1591,o),
(381,1591,cs),
(709,1591,l),
(454,143,ls),
(438,52,o),
(504,-21,o),
(605,-21,cs)
);
},
{
closed = 1;
nodes = (
(524,16,o),
(479,66,o),
(491,136,cs),
(754,1628,l),
(381,1628,ls),
(298,1628,o),
(257,1674,o),
(257,1734,cs),
(257,1802,o),
(302,1848,o),
(381,1848,cs),
(1415,1848,ls),
(1495,1848,o),
(1539,1802,o),
(1539,1734,cs),
(1539,1674,o),
(1499,1628,o),
(1415,1628,cs),
(1005,1628,l),
(740,115,ls),
(730,59,o),
(690,16,o),
(605,16,cs)
);
},
{
closed = 1;
nodes = (
(907,1564,o),
(931,1589,o),
(931,1620,cs),
(931,1650,o),
(907,1675,o),
(876,1675,cs),
(845,1675,o),
(820,1650,o),
(820,1620,cs),
(820,1589,o),
(845,1564,o),
(876,1564,cs)
);
}
);
vertWidth = 0;
width = 1185;
}
);
metricLeft = T;
metricWidth = T;
},
{
color = 5;
glyphname = U.ss04;
lastChange = "2023-10-27 06:08:01 +0000";
layers = (
{
anchors = (
{
name = bottom;
pos = (679,0);
},
{
name = ogonek;
pos = (1263,10);
},
{
name = top;
pos = (1006,1857);
},
{
name = topright;
pos = (1714,1857);
}
);
layerId = m01;
shapes = (
{
closed = 1;
nodes = (
(680,-13,o),
(1021,356,o),
(1217,819,c),
(1090,86,ls),
(1080,27,o),
(1118,-4,o),
(1163,-4,cs),
(1199,-4,o),
(1240,21,o),
(1248,68,cs),
(1548,1771,ls),
(1556,1819,o),
(1534,1856,o),
(1472,1856,cs),
(1414,1856,o),
(1392,1819,o),
(1384,1782,c),
(1329,1468,l),
(1092,700,o),
(703,136,o),
(436,136,cs),
(313,136,o),
(340,336,o),
(373,517,cs),
(600,1767,ls),
(609,1812,o),
(580,1853,o),
(531,1856,cs),
(480,1856,o),
(447,1813,o),
(439,1765,cs),
(215,526,ls),
(147,152,o),
(238,-13,o),
(412,-13,cs)
);
},
{
closed = 1;
nodes = (
(250,6,o),
(168,156,o),
(233,523,cs),
(456,1762,ls),
(464,1805,o),
(490,1838,o),
(530,1838,cs),
(569,1835,o),
(588,1807,o),
(582,1770,cs),
(355,520,ls),
(322,338,o),
(291,118,o),
(436,118,cs),
(715,118,o),
(1108,693,o),
(1347,1464,c),
(1402,1779,ls),
(1408,1811,o),
(1425,1838,o),
(1472,1838,cs),
(1522,1838,o),
(1538,1814,o),
(1530,1774,cs),
(1229,72,ls),
(1223,33,o),
(1192,15,o),
(1163,15,cs),
(1125,15,o),
(1099,36,o),
(1107,82,cs),
(1240,843,ls),
(1251,907,o),
(1244,925,o),
(1209,846,cs),
(985,344,o),
(663,6,o),
(412,6,cs)
);
},
{
closed = 1;
nodes = (
(544,1733,o),
(563,1752,o),
(563,1775,cs),
(563,1798,o),
(544,1817,o),
(521,1817,cs),
(498,1817,o),
(479,1798,o),
(479,1775,cs),
(479,1752,o),
(498,1733,o),
(521,1733,cs)
);
}
);
vertWidth = 0;
width = 1543;
},
{
anchors = (
{
name = bottom;
pos = (712,0);
},
{
name = ogonek;
pos = (1362,10);
},
{
name = top;
pos = (1039,1857);
},
{
name = topright;
pos = (1829,1857);
}
);
layerId = "140DECC1-64C4-40C0-9C07-503DBC3F4160";
shapes = (
{
closed = 1;
nodes = (
(678,-31,o),
(914,135,o),
(1106,425,c),
(1056,142,ls),
(1037,35,o),
(1118,-18,o),
(1207,-18,cs),
(1278,-18,o),
(1363,19,o),
(1377,103,cs),
(1661,1718,ls),
(1677,1808,o),
(1615,1876,o),
(1508,1876,cs),
(1418,1876,o),
(1352,1827,o),
(1338,1752,cs),
(1302,1556,l),
(1084,751,o),
(785,264,o),
(526,264,cs),
(457,264,o),
(464,357,o),
(494,525,cs),
(706,1712,ls),
(723,1807,o),
(652,1876,o),
(558,1876,cs),
(455,1879,o),
(393,1792,o),
(383,1736,cs),
(171,561,ls),
(98,154,o),
(226,-31,o),
(447,-31,cs)
);
},
{
closed = 1;
nodes = (
(248,6,o),
(139,167,o),
(208,554,cs),
(420,1729,ls),
(428,1775,o),
(476,1842,o),
(558,1839,cs),
(635,1839,o),
(682,1791,o),
(669,1720,cs),
(457,533,ls),
(426,359,o),
(416,227,o),
(526,227,cs),
(809,227,o),
(1118,734,o),
(1339,1548,c),
(1375,1746,ls),
(1385,1804,o),
(1432,1839,o),
(1508,1839,cs),
(1596,1839,o),
(1637,1795,o),
(1624,1723,cs),
(1340,108,ls),
(1329,46,o),
(1268,19,o),
(1207,19,cs),
(1133,19,o),
(1079,55,o),
(1093,137,cs),
(1158,509,ls),
(1170,575,o),
(1157,581,o),
(1118,514,cs),
(926,187,o),
(683,6,o),
(447,6,cs)
);
},
{
closed = 1;
nodes = (
(575,1683,o),
(600,1708,o),
(600,1738,cs),
(600,1769,o),
(575,1794,o),
(545,1794,cs),
(514,1794,o),
(489,1769,o),
(489,1738,cs),
(489,1708,o),
(514,1683,o),
(545,1683,cs)
);
}
);
vertWidth = 0;
width = 1625;
}
);
metricLeft = U;
metricWidth = U;
},
{
color = 5;
glyphname = V.ss04;
lastChange = "2023-10-27 01:46:19 +0000";
layers = (
{
anchors = (
{
name = bottom;
pos = (432,0);
},
{
name = top;
pos = (759,1857);
}
);
layerId = m01;
shapes = (
{
closed = 1;
nodes = (
(471,0,o),
(485,37,o),
(504,77,cs),
(1333,1754,ls),
(1366,1819,o),
(1326,1857,o),
(1278,1857,cs),
(1219,1857,o),
(1194,1833,o),
(1170,1783,cs),
(462,321,l),
(393,1782,ls),
(392,1812,o),
(377,1857,o),
(306,1857,cs),
(249,1857,o),
(230,1820,o),
(232,1773,cs),
(325,87,ls),
(327,49,o),
(355,0,o),
(410,0,cs)
);
},
{
closed = 1;
nodes = (
(367,19,o),
(345,56,o),
(343,89,cs),
(251,1774,ls),
(249,1815,o),
(261,1839,o),
(306,1839,cs),
(364,1839,o),
(375,1808,o),
(376,1781,cs),
(445,290,ls),
(447,253,o),
(449,253,o),
(467,289,cs),
(1186,1775,ls),
(1208,1821,o),
(1226,1839,o),
(1278,1839,cs),
(1317,1839,o),
(1342,1813,o),
(1317,1761,cs),
(488,85,ls),
(467,44,o),
(459,19,o),
(410,19,cs)
);
},
{
closed = 1;
nodes = (
(334,1733,o),
(353,1752,o),
(353,1775,cs),
(353,1798,o),
(334,1817,o),
(311,1817,cs),
(288,1817,o),
(269,1798,o),
(269,1775,cs),
(269,1752,o),
(288,1733,o),
(311,1733,cs)
);
}
);
vertWidth = 0;
width = 1017;
},
{
anchors = (
{
name = bottom;
pos = (524,0);
},
{
name = top;
pos = (851,1857);
}
);
layerId = "140DECC1-64C4-40C0-9C07-503DBC3F4160";
shapes = (
{
closed = 1;
nodes = (
(564,-23,o),
(609,31,o),
(636,88,cs),
(1423,1681,ls),
(1478,1794,o),
(1405,1876,o),
(1301,1876,cs),
(1211,1876,o),
(1152,1838,o),
(1120,1773,cs),
(586,670,l),
(535,1745,ls),
(531,1820,o),
(470,1876,o),
(369,1876,cs),
(278,1876,o),
(216,1823,o),
(221,1727,cs),
(312,124,ls),
(316,45,o),
(381,-23,o),
(473,-23,cs)
);
},
{
closed = 1;
nodes = (
(399,14,o),
(352,63,o),
(349,126,cs),
(258,1729,ls),
(253,1804,o),
(294,1839,o),
(369,1839,cs),
(453,1839,o),
(495,1801,o),
(498,1744,cs),
(551,623,ls),
(555,536,o),
(565,542,o),
(604,623,cs),
(1153,1758,ls),
(1178,1810,o),
(1224,1839,o),
(1301,1839,cs),
(1384,1839,o),
(1433,1786,o),
(1389,1697,cs),
(603,105,ls),
(577,52,o),
(545,14,o),
(473,14,cs)
);
},
{
closed = 1;
nodes = (
(409,1683,o),
(434,1708,o),
(434,1738,cs),
(434,1769,o),
(409,1794,o),
(378,1794,cs),
(348,1794,o),
(323,1769,o),
(323,1738,cs),
(323,1708,o),
(348,1683,o),
(378,1683,cs)
);
}
);
vertWidth = 0;
width = 1187;
}
);
metricLeft = V;
metricWidth = V;
},
{
color = 5;
glyphname = W.ss04;
lastChange = "2023-10-27 01:46:19 +0000";
layers = (
{
anchors = (
{
name = bottom;
pos = (910,0);
},
{
name = top;
pos = (1237,1857);
}
);
layerId = m01;
shapes = (
{
closed = 1;
nodes = (
(460,0,o),
(485,49,o),
(500,80,cs),
(1213,1551,l),
(1288,64,ls),
(1290,20,o),
(1317,0,o),
(1371,0,cs),
(1411,0,o),
(1439,28,o),
(1463,77,cs),
(2290,1754,ls),
(2321,1819,o),
(2281,1857,o),
(2224,1857,cs),
(2180,1857,o),
(2148,1832,o),
(2125,1783,cs),
(1423,333,l),
(1349,1782,ls),
(1347,1812,o),
(1328,1857,o),
(1254,1857,cs),
(1204,1857,o),
(1170,1806,o),
(1160,1785,cs),
(456,325,l),
(385,1782,ls),
(383,1812,o),
(369,1857,o),
(297,1857,cs),
(240,1857,o),
(221,1820,o),
(223,1773,cs),
(316,87,ls),
(319,38,o),
(351,0,o),
(406,0,cs)
);
},
{
closed = 1;
nodes = (
(361,19,o),
(337,46,o),
(334,89,cs),
(242,1774,ls),
(240,1815,o),
(252,1839,o),
(297,1839,cs),
(355,1839,o),
(366,1808,o),
(367,1781,cs),
(440,294,ls),
(442,262,o),
(447,264,o),
(463,297,cs),
(1177,1777,ls),
(1186,1796,o),
(1214,1839,o),
(1254,1839,cs),
(1314,1839,o),
(1330,1807,o),
(1331,1781,cs),
(1405,314,ls),
(1407,273,o),
(1415,275,o),
(1433,313,cs),
(2141,1775,ls),
(2162,1819,o),
(2187,1839,o),
(2224,1839,cs),
(2272,1839,o),
(2299,1813,o),
(2273,1761,cs),
(1446,84,ls),
(1424,40,o),
(1404,19,o),
(1371,19,cs),
(1324,19,o),
(1308,31,o),
(1306,65,cs),
(1229,1578,ls),
(1227,1617,o),
(1222,1613,o),
(1205,1577,cs),
(483,87,ls),
(468,57,o),
(449,19,o),
(406,19,cs)
);
},
{
closed = 1;
nodes = (
(323,1733,o),
(342,1752,o),
(342,1775,cs),
(342,1798,o),
(323,1817,o),
(300,1817,cs),
(277,1817,o),
(258,1798,o),
(258,1775,cs),
(258,1752,o),
(277,1733,o),
(300,1733,cs)
);
}
);
vertWidth = 0;
width = 2001;
},
{
anchors = (
{
name = bottom;
pos = (991,0);
},
{
name = top;
pos = (1318,1857);
}
);
layerId = "140DECC1-64C4-40C0-9C07-503DBC3F4160";
shapes = (
{
closed = 1;
nodes = (
(540,-18,o),
(598,21,o),
(632,88,cs),
(1181,1195,l),
(1255,127,ls),
(1262,37,o),
(1326,-18,o),
(1413,-18,cs),
(1484,-18,o),
(1546,22,o),
(1580,93,cs),
(2359,1681,ls),
(2414,1794,o),
(2329,1876,o),
(2232,1876,cs),
(2133,1876,o),
(2078,1822,o),
(2052,1767,cs),
(1527,679,l),
(1451,1745,ls),
(1446,1825,o),
(1389,1876,o),
(1279,1876,cs),
(1173,1876,o),
(1142,1813,o),
(1125,1777,cs),
(581,665,l),
(535,1745,ls),
(532,1819,o),
(474,1876,o),
(372,1876,cs),
(281,1876,o),
(216,1823,o),
(221,1727,cs),
(305,124,ls),
(310,37,o),
(377,-18,o),
(478,-18,cs)
);
},
{
closed = 1;
nodes = (
(393,19,o),
(346,57,o),
(342,126,cs),
(258,1729,ls),
(254,1804,o),
(297,1839,o),
(372,1839,cs),
(456,1839,o),
(495,1801,o),
(498,1744,cs),
(546,607,ls),
(549,532,o),
(557,535,o),
(592,606,cs),
(1158,1760,ls),
(1176,1796,o),
(1196,1839,o),
(1279,1839,cs),
(1373,1839,o),
(1410,1806,o),
(1414,1744,cs),
(1494,619,ls),
(1499,550,o),
(1504,549,o),
(1538,619,cs),
(2085,1750,ls),
(2108,1798,o),
(2150,1839,o),
(2232,1839,cs),
(2309,1839,o),
(2368,1783,o),
(2325,1697,cs),
(1547,109,ls),
(1517,50,o),
(1471,19,o),
(1413,19,cs),
(1341,19,o),
(1297,57,o),
(1292,129,cs),
(1215,1243,ls),
(1211,1314,o),
(1200,1315,o),
(1165,1244,cs),
(598,105,ls),
(571,49,o),
(527,19,o),
(478,19,cs)
);
},
{
closed = 1;
nodes = (
(409,1683,o),
(434,1708,o),
(434,1738,cs),
(434,1769,o),
(409,1794,o),
(378,1794,cs),
(348,1794,o),
(323,1769,o),
(323,1738,cs),
(323,1708,o),
(348,1683,o),
(378,1683,cs)
);
}
);
vertWidth = 0;
width = 2121;
}
);
metricLeft = W;
metricWidth = W;
},
{
color = 5;
glyphname = X.ss04;
lastChange = "2023-10-27 01:46:18 +0000";
layers = (
{
anchors = (
{
name = bottom;
pos = (464,0);
},
{
name = top;
pos = (791,1857);
}
);
layerId = m01;
shapes = (
{
closed = 1;
nodes = (
(-18,-10,o),
(42,-12,o),
(76,35,cs),
(605,763,l),
(868,61,ls),
(890,1,o),
(953,-10,o),
(993,10,cs),
(1025,27,o),
(1038,65,o),
(1021,112,cs),
(717,918,l),
(1306,1726,ls),
(1339,1772,o),
(1332,1819,o),
(1304,1841,cs),
(1272,1868,o),
(1211,1866,o),
(1176,1818,cs),
(651,1096,l),
(385,1799,ls),
(364,1856,o),
(312,1869,o),
(273,1854,cs),
(233,1839,o),
(218,1798,o),
(239,1741,cs),
(539,942,l),
(-59,122,ls),
(-87,83,o),
(-80,41,o),
(-53,19,cs)
);
},
{
closed = 1;
nodes = (
(-62,50,o),
(-67,80,o),
(-45,111,cs),
(559,939,l),
(256,1747,ls),
(237,1796,o),
(248,1826,o),
(279,1837,cs),
(310,1850,o),
(349,1841,o),
(368,1793,cs),
(637,1080,ls),
(644,1061,o),
(647,1061,o),
(663,1082,cs),
(1191,1807,ls),
(1220,1846,o),
(1267,1848,o),
(1292,1826,cs),
(1313,1810,o),
(1320,1776,o),
(1291,1737,cs),
(697,920,l),
(1004,105,ls),
(1019,66,o),
(1010,40,o),
(985,27,cs),
(951,9,o),
(904,19,o),
(886,68,cs),
(618,781,ls),
(611,798,o),
(608,798,o),
(596,782,cs),
(62,46,ls),
(33,7,o),
(-12,9,o),
(-41,33,cs)
);
},
{
closed = 1;
nodes = (
(332,1733,o),
(350,1752,o),
(350,1775,cs),
(350,1798,o),
(332,1817,o),
(309,1817,cs),
(285,1817,o),
(267,1798,o),
(267,1775,cs),
(267,1752,o),
(285,1733,o),
(309,1733,cs)
);
}
);
vertWidth = 0;
width = 1102;
},
{
anchors = (
{
name = bottom;
pos = (519,0);
},
{
name = top;
pos = (846,1857);
}
);
layerId = "140DECC1-64C4-40C0-9C07-503DBC3F4160";
shapes = (
{
closed = 1;
nodes = (
(44,-29,o),
(170,-45,o),
(227,34,cs),
(634,604,l),
(833,73,ls),
(869,-22,o),
(992,-37,o),
(1064,0,cs),
(1131,35,o),
(1165,101,o),
(1133,179,cs),
(856,912,l),
(1378,1642,ls),
(1435,1718,o),
(1420,1789,o),
(1361,1840,cs),
(1303,1893,o),
(1188,1894,o),
(1129,1816,cs),
(727,1256,l),
(526,1787,ls),
(491,1879,o),
(387,1892,o),
(314,1868,cs),
(231,1838,o),
(199,1767,o),
(237,1668,cs),
(506,949,l),
(-28,208,ls),
(-76,142,o),
(-77,75,o),
(-18,22,cs)
);
},
{
closed = 1;
nodes = (
(-38,90,o),
(-38,131,o),
(2,186,cs),
(547,944,l),
(272,1681,ls),
(240,1763,o),
(261,1809,o),
(327,1832,cs),
(388,1854,o),
(465,1844,o),
(491,1774,cs),
(701,1217,ls),
(714,1182,o),
(719,1183,o),
(744,1217,cs),
(1159,1794,ls),
(1204,1856,o),
(1290,1854,o),
(1337,1812,cs),
(1385,1770,o),
(1394,1725,o),
(1349,1664,cs),
(815,918,l),
(1098,167,ls),
(1122,104,o),
(1102,62,o),
(1047,33,cs),
(987,3,o),
(895,14,o),
(869,86,cs),
(660,642,ls),
(647,678,o),
(643,678,o),
(618,643,cs),
(198,56,ls),
(154,-5,o),
(57,8,o),
(6,50,cs)
);
},
{
closed = 1;
nodes = (
(414,1683,o),
(439,1708,o),
(439,1738,cs),
(439,1769,o),
(414,1794,o),
(384,1794,cs),
(353,1794,o),
(328,1769,o),
(328,1738,cs),
(328,1708,o),
(353,1683,o),
(384,1683,cs)
);
}
);
vertWidth = 0;
width = 1177;
}
);
metricLeft = X;
metricWidth = X;
},
{
color = 5;
glyphname = Y.ss04;
lastChange = "2023-10-27 01:46:19 +0000";
layers = (
{
anchors = (
{
name = bottom;
pos = (432,0);
},
{
name = top;
pos = (759,1857);
},
{
name = topleft;
pos = (264,1857);
}
);
layerId = m01;
shapes = (
{
closed = 1;
nodes = (
(559,0,o),
(571,49,o),
(577,79,cs),
(724,918,l),
(1318,1726,ls),
(1333,1748,o),
(1343,1770,o),
(1343,1789,cs),
(1343,1826,o),
(1302,1857,o),
(1268,1857,cs),
(1237,1857,o),
(1210,1849,o),
(1187,1818,cs),
(664,1096,l),
(395,1795,ls),
(381,1831,o),
(353,1857,o),
(306,1857,cs),
(268,1857,o),
(232,1826,o),
(232,1792,cs),
(232,1772,o),
(235,1764,o),
(245,1741,cs),
(560,923,l),
(413,87,ls),
(405,39,o),
(430,0,o),
(486,0,cs)
);
},
{
closed = 1;
nodes = (
(442,19,o),
(424,44,o),
(431,84,cs),
(579,925,l),
(261,1747,ls),
(252,1771,o),
(250,1776,o),
(250,1792,cs),
(250,1816,o),
(275,1839,o),
(306,1839,cs),
(345,1839,o),
(366,1819,o),
(378,1788,cs),
(652,1075,ls),
(658,1061,o),
(661,1061,o),
(671,1075,cs),
(1202,1807,ls),
(1221,1833,o),
(1241,1839,o),
(1268,1839,cs),
(1295,1839,o),
(1325,1815,o),
(1325,1789,cs),
(1325,1774,o),
(1318,1758,o),
(1303,1737,cs),
(706,925,l),
(559,82,ls),
(554,54,o),
(544,19,o),
(486,19,cs)
);
},
{
closed = 1;
nodes = (
(337,1733,o),
(356,1752,o),
(356,1775,cs),
(356,1798,o),
(337,1817,o),
(314,1817,cs),
(291,1817,o),
(272,1798,o),
(272,1775,cs),
(272,1752,o),
(291,1733,o),
(314,1733,cs)
);
}
);
vertWidth = 0;
width = 1017;
},
{
anchors = (
{
name = bottom;
pos = (478,0);
},
{
name = top;
pos = (805,1857);
},
{
name = topleft;
pos = (259,1857);
}
);
layerId = "140DECC1-64C4-40C0-9C07-503DBC3F4160";
shapes = (
{
closed = 1;
nodes = (
(661,-23,o),
(708,46,o),
(719,112,cs),
(855,894,l),
(1411,1632,ls),
(1436,1665,o),
(1448,1699,o),
(1448,1737,cs),
(1448,1825,o),
(1347,1876,o),
(1289,1876,cs),
(1239,1876,o),
(1189,1850,o),
(1157,1807,cs),
(737,1229,l),
(530,1776,ls),
(504,1844,o),
(462,1876,o),
(392,1876,cs),
(300,1876,o),
(222,1824,o),
(222,1752,cs),
(222,1720,o),
(228,1700,o),
(240,1668,cs),
(529,919,l),
(395,142,ls),
(379,52,o),
(449,-23,o),
(551,-23,cs)
);
},
{
closed = 1;
nodes = (
(468,14,o),
(420,66,o),
(432,137,cs),
(568,923,l),
(275,1681,ls),
(263,1711,o),
(259,1725,o),
(259,1752,cs),
(259,1802,o),
(314,1839,o),
(392,1839,cs),
(445,1839,o),
(474,1819,o),
(496,1761,cs),
(713,1186,ls),
(725,1154,o),
(729,1154,o),
(751,1186,cs),
(1187,1787,ls),
(1212,1821,o),
(1248,1839,o),
(1289,1839,cs),
(1336,1839,o),
(1411,1801,o),
(1411,1737,cs),
(1411,1708,o),
(1402,1683,o),
(1381,1654,cs),
(820,909,l),
(682,119,ls),
(672,63,o),
(639,14,o),
(551,14,cs)
);
},
{
closed = 1;
nodes = (
(414,1683,o),
(439,1708,o),
(439,1738,cs),
(439,1769,o),
(414,1794,o),
(384,1794,cs),
(353,1794,o),
(328,1769,o),
(328,1738,cs),
(328,1708,o),
(353,1683,o),
(384,1683,cs)
);
}
);
vertWidth = 0;
width = 1093;
}
);
metricLeft = Y;
metricWidth = Y;
},
{
color = 5;
glyphname = Z.ss04;
lastChange = "2023-10-27 01:46:19 +0000";
layers = (
{
anchors = (
{
name = bottom;
pos = (464,0);
},
{
name = center;
pos = (627,929);
},
{
name = top;
pos = (791,1857);
}
);
layerId = m01;
shapes = (
{
closed = 1;
nodes = (
(948,0,ls),
(1012,0,o),
(1031,42,o),
(1031,80,cs),
(1031,117,o),
(1012,150,o),
(948,150,cs),
(148,150,l),
(1282,1724,ls),
(1296,1745,o),
(1308,1772,o),
(1308,1792,cs),
(1308,1834,o),
(1282,1857,o),
(1226,1857,cs),
(307,1857,ls),
(244,1857,o),
(224,1816,o),
(224,1780,cs),
(224,1740,o),
(244,1710,o),
(307,1710,cs),
(1085,1710,l),
(-58,125,ls),
(-73,104,o),
(-75,84,o),
(-75,68,cs),
(-75,35,o),
(-49,0,o),
(8,0,cs)
);
},
{
closed = 1;
nodes = (
(-40,19,o),
(-58,43,o),
(-58,68,cs),
(-58,82,o),
(-55,96,o),
(-43,114,cs),
(1107,1709,ls),
(1120,1727,o),
(1119,1729,o),
(1095,1729,cs),
(307,1729,ls),
(255,1729,o),
(243,1746,o),
(243,1780,cs),
(243,1810,o),
(256,1839,o),
(307,1839,cs),
(1226,1839,ls),
(1273,1839,o),
(1290,1825,o),
(1290,1792,cs),
(1290,1776,o),
(1282,1755,o),
(1267,1734,cs),
(128,154,ls),
(113,133,o),
(114,131,o),
(142,131,cs),
(948,131,ls),
(1000,131,o),
(1013,111,o),
(1013,80,cs),
(1013,47,o),
(999,19,o),
(948,19,cs),
(8,19,ls)
);
},
{
closed = 1;
nodes = (
(335,1740,o),
(354,1758,o),
(354,1782,cs),
(354,1805,o),
(335,1823,o),
(312,1823,cs),
(289,1823,o),
(271,1805,o),
(271,1782,cs),
(271,1758,o),
(289,1740,o),
(312,1740,cs)
);
}
);
vertWidth = 0;
width = 1102;
},
{
anchors = (
{
name = bottom;
pos = (530,0);
},
{
name = center;
pos = (693,929);
},
{
name = top;
pos = (857,1857);
}
);
layerId = "140DECC1-64C4-40C0-9C07-503DBC3F4160";
shapes = (
{
closed = 1;
nodes = (
(1005,-18,ls),
(1107,-18,o),
(1166,46,o),
(1166,123,cs),
(1166,207,o),
(1100,276,o),
(1005,276,cs),
(398,276,l),
(1384,1628,ls),
(1413,1668,o),
(1424,1703,o),
(1424,1735,cs),
(1424,1816,o),
(1354,1876,o),
(1252,1876,cs),
(383,1876,ls),
(286,1876,o),
(222,1810,o),
(222,1725,cs),
(222,1648,o),
(280,1582,o),
(383,1582,cs),
(967,1582,l),
(-36,211,ls),
(-55,185,o),
(-64,154,o),
(-64,125,cs),
(-64,66,o),
(-23,-18,o),
(118,-18,cs)
);
},
{
closed = 1;
nodes = (
(2,19,o),
(-27,77,o),
(-27,125,cs),
(-27,149,o),
(-21,169,o),
(-6,189,cs),
(1013,1584,ls),
(1037,1616,o),
(1035,1619,o),
(992,1619,cs),
(383,1619,ls),
(300,1619,o),
(259,1665,o),
(259,1725,cs),
(259,1793,o),
(303,1839,o),
(383,1839,cs),
(1252,1839,ls),
(1338,1839,o),
(1387,1796,o),
(1387,1735,cs),
(1387,1709,o),
(1378,1684,o),
(1354,1650,cs),
(354,278,ls),
(327,241,o),
(328,239,o),
(377,239,cs),
(1005,239,ls),
(1082,239,o),
(1129,190,o),
(1129,123,cs),
(1129,63,o),
(1089,19,o),
(1005,19,cs),
(118,19,ls)
);
},
{
closed = 1;
nodes = (
(414,1683,o),
(439,1708,o),
(439,1738,cs),
(439,1769,o),
(414,1794,o),
(384,1794,cs),
(353,1794,o),
(328,1769,o),
(328,1738,cs),
(328,1708,o),
(353,1683,o),
(384,1683,cs)
);
}
);
vertWidth = 0;
width = 1198;
}
);
metricLeft = Z;
metricWidth = Z;
},
{
color = 5;
glyphname = A.ss05;
lastChange = "2023-10-27 01:46:19 +0000";
layers = (
{
anchors = (
{
name = bottom;
pos = (542,0);
},
{
name = ogonek;
pos = (1051,10);
},
{
name = top;
pos = (869,1857);
}
);
layerId = m01;
shapes = (
{
closed = 1;
nodes = (
(82,0,o),
(98,23,o),
(125,77,cs),
(561,932,l),
(931,932,l),
(999,78,ls),
(1001,48,o),
(1013,0,o),
(1081,0,cs),
(1138,0,o),
(1158,36,o),
(1154,84,cs),
(1010,1797,ls),
(1007,1830,o),
(984,1857,o),
(931,1857,cs),
(861,1857,o),
(857,1820,o),
(838,1783,cs),
(-36,105,ls),
(-71,40,o),
(-27,0,o),
(22,0,cs)
);
},
{
closed = 1;
nodes = (
(-18,19,o),
(-48,45,o),
(-21,96,cs),
(854,1775,ls),
(876,1816,o),
(877,1839,o),
(931,1839,cs),
(974,1839,o),
(989,1820,o),
(991,1795,cs),
(1136,82,ls),
(1140,42,o),
(1126,19,o),
(1081,19,cs),
(1027,19,o),
(1019,51,o),
(1017,79,cs),
(948,951,l),
(550,951,l),
(109,85,ls),
(82,33,o),
(72,19,o),
(22,19,cs)
);
},
{
closed = 1;
nodes = (
(919,1072,l),
(882,1562,l),
(633,1072,l)
);
},
{
closed = 1;
nodes = (
(873,1585,ls),
(890,1619,o),
(895,1619,o),
(898,1580,cs),
(939,1055,l),
(603,1055,l)
);
},
{
closed = 1;
nodes = (
(950,1733,o),
(968,1752,o),
(968,1775,cs),
(968,1798,o),
(950,1817,o),
(926,1817,cs),
(903,1817,o),
(885,1798,o),
(885,1775,cs),
(885,1752,o),
(903,1733,o),
(926,1733,cs)
);
},
{
closed = 1;
nodes = (
(769,1541,l),
(759,1476,l),
(805,1523,l),
(794,1528,l),
(884,1705,l),
(870,1712,l),
(780,1536,l)
);
}
);
vertWidth = 0;
width = 1259;
},
{
anchors = (
{
name = bottom;
pos = (622,0);
},
{
name = ogonek;
pos = (1192,10);
},
{
name = top;
pos = (949,1857);
}
);
layerId = "140DECC1-64C4-40C0-9C07-503DBC3F4160";
shapes = (
{
closed = 1;
nodes = (
(187,-18,o),
(238,7,o),
(277,85,cs),
(610,743,l),
(964,742,l),
(1016,115,ls),
(1022,34,o),
(1075,-18,o),
(1174,-18,cs),
(1263,-18,o),
(1330,32,o),
(1322,134,cs),
(1185,1724,ls),
(1177,1824,o),
(1103,1876,o),
(1005,1876,cs),
(904,1876,o),
(839,1828,o),
(808,1770,cs),
(-19,179,ls),
(-80,65,o),
(3,-18,o),
(104,-18,cs)
);
},
{
closed = 1;
nodes = (
(24,19,o),
(-33,72,o),
(14,163,cs),
(842,1753,ls),
(868,1803,o),
(918,1839,o),
(1005,1839,cs),
(1089,1839,o),
(1141,1802,o),
(1148,1721,cs),
(1285,130,ls),
(1291,52,o),
(1247,19,o),
(1174,19,cs),
(1092,19,o),
(1058,54,o),
(1053,117,cs),
(997,779,l),
(587,780,l),
(243,102,ls),
(210,36,o),
(176,19,o),
(104,19,cs)
);
},
{
closed = 1;
nodes = (
(940,1038,l),
(914,1342,l),
(759,1038,l)
);
},
{
closed = 1;
nodes = (
(898,1392,ls),
(930,1453,o),
(940,1458,o),
(945,1396,cs),
(979,1001,l),
(699,1001,l)
);
},
{
closed = 1;
nodes = (
(1010,1683,o),
(1035,1708,o),
(1035,1738,cs),
(1035,1769,o),
(1010,1794,o),
(980,1794,cs),
(949,1794,o),
(924,1769,o),
(924,1738,cs),
(924,1708,o),
(949,1683,o),
(980,1683,cs)
);
},
{
closed = 1;
nodes = (
(811,1496,l),
(806,1430,l),
(856,1474,l),
(845,1479,l),
(935,1656,l),
(912,1667,l),
(822,1490,l)
);
}
);
vertWidth = 0;
width = 1382;
}
);
metricLeft = A;
metricWidth = A;
},
